<?xml version="1.0" encoding="UTF-8"?>
<svg id="Layer_1" data-name="Layer 1" xmlns="http://www.w3.org/2000/svg" xmlns:xlink="http://www.w3.org/1999/xlink" viewBox="0 0 32 32">
  <defs>
    <style>
      .cls-1 {
        fill: url(#linear-gradient-15);
      }

      .cls-2 {
        fill: url(#linear-gradient-13);
      }

      .cls-3 {
        fill: url(#linear-gradient-28);
      }

      .cls-4 {
        fill: url(#linear-gradient-42);
      }

      .cls-5 {
        fill: url(#linear-gradient-46);
      }

      .cls-6 {
        fill: url(#bottommm);
      }

      .cls-7 {
        fill: url(#linear-gradient-2);
      }

      .cls-8 {
        opacity: .87;
      }

      .cls-9 {
        fill: url(#linear-gradient-43);
      }

      .cls-10 {
        fill: url(#linear-gradient-25);
      }

      .cls-11 {
        fill: url(#linear-gradient-10);
      }

      .cls-12 {
        fill: url(#linear-gradient-12);
      }

      .cls-13 {
        fill: url(#linear-gradient-40);
      }

      .cls-14 {
        fill: url(#linear-gradient-27);
      }

      .cls-15 {
        fill: url(#linear-gradient-37);
      }

      .cls-16 {
        fill: url(#linear-gradient-39);
      }

      .cls-17 {
        fill: url(#linear-gradient-52);
      }

      .cls-18 {
        fill: url(#linear-gradient-47);
      }

      .cls-19 {
        fill: url(#linear-gradient-26);
      }

      .cls-20 {
        fill: url(#linear-gradient-4);
      }

      .cls-21 {
        fill: url(#linear-gradient-7);
      }

      .cls-21, .cls-22, .cls-23 {
        stroke: #fff;
        stroke-miterlimit: 10;
        stroke-width: .074px;
      }

      .cls-24 {
        fill: url(#linear-gradient-35);
      }

      .cls-25 {
        fill: url(#linear-gradient-30);
      }

      .cls-26 {
        fill: url(#linear-gradient-44);
      }

      .cls-27 {
        fill: url(#linear-gradient-49);
      }

      .cls-28 {
        fill: url(#linear-gradient-3);
      }

      .cls-29 {
        fill: url(#linear-gradient-34);
      }

      .cls-30 {
        fill: url(#linear-gradient-5);
      }

      .cls-31 {
        fill: url(#linear-gradient-38);
      }

      .cls-32 {
        fill: url(#linear-gradient-22);
      }

      .cls-33 {
        fill: url(#linear-gradient-24);
      }

      .cls-22 {
        fill: url(#linear-gradient-9);
      }

      .cls-34 {
        fill: #231f20;
      }

      .cls-35 {
        fill: url(#linear-gradient-33);
      }

      .cls-36 {
        fill: url(#linear-gradient-51);
      }

      .cls-37 {
        fill: url(#linear-gradient-14);
      }

      .cls-38 {
        fill: url(#linear-gradient-29);
      }

      .cls-39 {
        fill: url(#linear-gradient-20);
      }

      .cls-40 {
        fill: url(#linear-gradient-17);
      }

      .cls-41 {
        fill: url(#linear-gradient-50);
      }

      .cls-42 {
        fill: url(#linear-gradient-11);
      }

      .cls-23 {
        fill: url(#linear-gradient-8);
      }

      .cls-43 {
        fill: url(#linear-gradient-19);
      }

      .cls-44 {
        fill: url(#linear-gradient-6);
      }

      .cls-45 {
        fill: url(#linear-gradient-36);
      }

      .cls-46 {
        fill: url(#linear-gradient-21);
      }

      .cls-47 {
        fill: url(#linear-gradient-45);
      }

      .cls-48 {
        fill: url(#linear-gradient-48);
      }

      .cls-49 {
        fill: url(#linear-gradient-32);
      }

      .cls-50 {
        fill: url(#linear-gradient-41);
      }

      .cls-51 {
        fill: url(#linear-gradient-16);
      }

      .cls-52 {
        fill: url(#linear-gradient);
      }

      .cls-53 {
        fill: url(#_Áåçûìÿííûé_ãðàäèåíò_68);
      }

      .cls-54 {
        fill: url(#linear-gradient-23);
      }

      .cls-55 {
        fill: url(#linear-gradient-31);
      }

      .cls-56 {
        fill: url(#linear-gradient-18);
      }
    </style>
    <linearGradient id="bottommm" x1="2.141" y1="7.999" x2="29.859" y2="24.001" gradientUnits="userSpaceOnUse">
      <stop offset="0" stop-color="#8e5f2b"/>
      <stop offset=".1" stop-color="#b37129"/>
      <stop offset=".37" stop-color="#c48f2f"/>
      <stop offset=".48" stop-color="#fef7b4"/>
      <stop offset=".58" stop-color="#c48f2f"/>
      <stop offset=".82" stop-color="#7d461d"/>
      <stop offset="1" stop-color="#efbc48"/>
    </linearGradient>
    <linearGradient id="_Áåçûìÿííûé_ãðàäèåíò_68" data-name="Áåçûìÿííûé ãðàäèåíò 68" x1="2.639" y1="8.286" x2="29.361" y2="23.714" gradientUnits="userSpaceOnUse">
      <stop offset=".006" stop-color="#c0902f"/>
      <stop offset=".253" stop-color="#fdf7ce"/>
      <stop offset=".304" stop-color="#f6ebbc"/>
      <stop offset=".406" stop-color="#e5ce8f"/>
      <stop offset=".548" stop-color="#c9a048"/>
      <stop offset=".596" stop-color="#c0902f"/>
      <stop offset=".871" stop-color="#edd689"/>
      <stop offset="1" stop-color="#fdf7ce"/>
    </linearGradient>
    <linearGradient id="linear-gradient" x1="19.758" y1="9.427" x2="21.277" y2="9.427" gradientUnits="userSpaceOnUse">
      <stop offset=".122" stop-color="#875a1f"/>
      <stop offset=".131" stop-color="#956925"/>
      <stop offset=".15" stop-color="#ac802f"/>
      <stop offset=".17" stop-color="#bc9036"/>
      <stop offset=".192" stop-color="#c6993a"/>
      <stop offset=".221" stop-color="#c99d3c"/>
      <stop offset=".345" stop-color="#9e7927"/>
      <stop offset=".378" stop-color="#a6822e"/>
      <stop offset=".434" stop-color="#be9b42"/>
      <stop offset=".503" stop-color="#e3c462"/>
      <stop offset=".537" stop-color="#f9db74"/>
      <stop offset=".544" stop-color="#f9df86"/>
      <stop offset=".559" stop-color="#faebb6"/>
      <stop offset=".571" stop-color="#fcf6e3"/>
      <stop offset="1" stop-color="#c99d3c"/>
    </linearGradient>
    <linearGradient id="linear-gradient-2" x1="16.005" y1="5.374" x2="16.006" y2="5.374" xlink:href="#linear-gradient"/>
    <linearGradient id="linear-gradient-3" x1="14.864" y1="6.881" x2="24.748" y2="6.881" xlink:href="#linear-gradient"/>
    <linearGradient id="linear-gradient-4" x1="7.48" y1="7.568" x2="14.431" y2="7.568" xlink:href="#linear-gradient"/>
    <linearGradient id="linear-gradient-5" x1="13.04" y1="4.412" x2="13.041" y2="4.412" xlink:href="#linear-gradient"/>
    <linearGradient id="linear-gradient-6" x1="11.283" y1="4.929" x2="14.815" y2="4.929" xlink:href="#linear-gradient"/>
    <linearGradient id="linear-gradient-7" x1="16.536" y1="17.885" x2="24.009" y2="17.885" xlink:href="#linear-gradient"/>
    <linearGradient id="linear-gradient-8" x1="8.414" y1="17.885" x2="15.893" y2="17.885" xlink:href="#linear-gradient"/>
    <linearGradient id="linear-gradient-9" x1="8.662" y1="12.118" x2="23.964" y2="12.118" xlink:href="#linear-gradient"/>
    <linearGradient id="linear-gradient-10" x1="18.865" y1="22.191" x2="27.965" y2="22.191" xlink:href="#linear-gradient"/>
    <linearGradient id="linear-gradient-11" x1="18.963" y1="24.736" x2="20.266" y2="24.736" xlink:href="#linear-gradient"/>
    <linearGradient id="linear-gradient-12" x1="19.869" y1="24.047" x2="26.859" y2="24.047" xlink:href="#linear-gradient"/>
    <linearGradient id="linear-gradient-13" x1="20.952" y1="25.313" x2="21.383" y2="25.313" xlink:href="#linear-gradient"/>
    <linearGradient id="linear-gradient-14" x1="20.981" y1="25.312" x2="21.345" y2="25.312" xlink:href="#linear-gradient"/>
    <linearGradient id="linear-gradient-15" x1="20.537" y1="25.492" x2="20.99" y2="25.492" xlink:href="#linear-gradient"/>
    <linearGradient id="linear-gradient-16" x1="20.573" y1="25.487" x2="20.95" y2="25.487" xlink:href="#linear-gradient"/>
    <linearGradient id="linear-gradient-17" x1="12.016" y1="25.648" x2="18.441" y2="25.648" xlink:href="#linear-gradient"/>
    <linearGradient id="linear-gradient-18" x1="14.288" y1="24.616" x2="19.146" y2="24.616" xlink:href="#linear-gradient"/>
    <linearGradient id="linear-gradient-19" x1="14.222" y1="25.039" x2="19.705" y2="25.039" xlink:href="#linear-gradient"/>
    <linearGradient id="linear-gradient-20" x1="13.218" y1="26.715" x2="16.247" y2="26.715" xlink:href="#linear-gradient"/>
    <linearGradient id="linear-gradient-21" x1="11.736" y1="25.696" x2="13.152" y2="25.696" xlink:href="#linear-gradient"/>
    <linearGradient id="linear-gradient-22" x1="14.468" y1="23.943" x2="18.223" y2="23.943" xlink:href="#linear-gradient"/>
    <linearGradient id="linear-gradient-23" x1="17.548" y1="26.42" x2="18.696" y2="26.42" xlink:href="#linear-gradient"/>
    <linearGradient id="linear-gradient-24" x1="13.215" y1="23.722" x2="15.737" y2="23.722" xlink:href="#linear-gradient"/>
    <linearGradient id="linear-gradient-25" x1="15.19" y1="27.414" x2="15.76" y2="27.414" xlink:href="#linear-gradient"/>
    <linearGradient id="linear-gradient-26" x1="16.247" y1="26.563" x2="17.647" y2="26.563" xlink:href="#linear-gradient"/>
    <linearGradient id="linear-gradient-27" x1="16.955" y1="27.181" x2="17.661" y2="27.181" xlink:href="#linear-gradient"/>
    <linearGradient id="linear-gradient-28" x1="15.984" y1="27.125" x2="16.91" y2="27.125" xlink:href="#linear-gradient"/>
    <linearGradient id="linear-gradient-29" x1="14.502" y1="24.822" x2="16.181" y2="24.822" xlink:href="#linear-gradient"/>
    <linearGradient id="linear-gradient-30" x1="14.205" y1="24.795" x2="14.707" y2="24.795" xlink:href="#linear-gradient"/>
    <linearGradient id="linear-gradient-31" x1="16.626" y1="26.048" x2="18.223" y2="26.048" xlink:href="#linear-gradient"/>
    <linearGradient id="linear-gradient-32" x1="16.626" y1="26.041" x2="18.025" y2="26.041" xlink:href="#linear-gradient"/>
    <linearGradient id="linear-gradient-33" x1="16.148" y1="26.533" x2="17.482" y2="26.533" xlink:href="#linear-gradient"/>
    <linearGradient id="linear-gradient-34" x1="15.819" y1="26.979" x2="16.807" y2="26.979" xlink:href="#linear-gradient"/>
    <linearGradient id="linear-gradient-35" x1="16.181" y1="24.694" x2="18.221" y2="24.694" xlink:href="#linear-gradient"/>
    <linearGradient id="linear-gradient-36" x1="13.813" y1="26.808" x2="15.106" y2="26.808" xlink:href="#linear-gradient"/>
    <linearGradient id="linear-gradient-37" x1="14.444" y1="26.547" x2="14.979" y2="26.547" xlink:href="#linear-gradient"/>
    <linearGradient id="linear-gradient-38" x1="13.268" y1="26.48" x2="14.52" y2="26.48" xlink:href="#linear-gradient"/>
    <linearGradient id="linear-gradient-39" x1="13.887" y1="26.249" x2="14.417" y2="26.249" xlink:href="#linear-gradient"/>
    <linearGradient id="linear-gradient-40" x1="14.435" y1="27.198" x2="15.494" y2="27.198" xlink:href="#linear-gradient"/>
    <linearGradient id="linear-gradient-41" x1="14.894" y1="26.933" x2="15.36" y2="26.933" xlink:href="#linear-gradient"/>
    <linearGradient id="linear-gradient-42" x1="12.828" y1="26.198" x2="13.88" y2="26.198" xlink:href="#linear-gradient"/>
    <linearGradient id="linear-gradient-43" x1="13.305" y1="26.001" x2="13.767" y2="26.001" xlink:href="#linear-gradient"/>
    <linearGradient id="linear-gradient-44" x1="4.092" y1="22.269" x2="12.592" y2="22.269" xlink:href="#linear-gradient"/>
    <linearGradient id="linear-gradient-45" x1="11.184" y1="24.754" x2="12.481" y2="24.754" xlink:href="#linear-gradient"/>
    <linearGradient id="linear-gradient-46" x1="5.218" y1="24.108" x2="11.604" y2="24.108" xlink:href="#linear-gradient"/>
    <linearGradient id="linear-gradient-47" x1="10.122" y1="25.272" x2="10.556" y2="25.272" xlink:href="#linear-gradient"/>
    <linearGradient id="linear-gradient-48" x1="10.156" y1="25.27" x2="10.522" y2="25.27" xlink:href="#linear-gradient"/>
    <linearGradient id="linear-gradient-49" x1="10.527" y1="25.465" x2="11.005" y2="25.465" xlink:href="#linear-gradient"/>
    <linearGradient id="linear-gradient-50" x1="10.565" y1="25.465" x2="10.974" y2="25.465" xlink:href="#linear-gradient"/>
    <linearGradient id="linear-gradient-51" x1="10.663" y1="25.418" x2="10.74" y2="25.418" xlink:href="#linear-gradient"/>
    <linearGradient id="linear-gradient-52" x1="10.715" y1="25.479" x2="10.748" y2="25.479" xlink:href="#linear-gradient"/>
  </defs>
  <g>
    <circle class="cls-34" cx="16" cy="16" r="12.433"/>
    <path class="cls-6" d="M16,0C7.163,0,0,7.163,0,16s7.163,16,16,16,16-7.163,16-16S24.837,0,16,0ZM16,31.425C7.481,31.425.575,24.519.575,16S7.481.575,16,.575s15.425,6.906,15.425,15.425-6.906,15.425-15.425,15.425ZM16,1.1C7.771,1.1,1.1,7.771,1.1,16s6.671,14.9,14.9,14.9,14.9-6.671,14.9-14.9S24.229,1.1,16,1.1ZM16,28.433c-6.867,0-12.433-5.567-12.433-12.433S9.133,3.567,16,3.567s12.433,5.567,12.433,12.433-5.567,12.433-12.433,12.433Z"/>
    <path class="cls-53" d="M16,.575C7.481.575.575,7.481.575,16s6.906,15.425,15.425,15.425,15.425-6.906,15.425-15.425S24.519.575,16,.575ZM16,30.9c-8.229,0-14.9-6.671-14.9-14.9S7.771,1.1,16,1.1s14.9,6.671,14.9,14.9-6.671,14.9-14.9,14.9ZM29.034,16h.016s-.017-.652-.017-.652l.289-.015-.055-.712c-.01-.077-.02-.154-.029-.231-.019-.148-.038-.3-.059-.45l-.004-.025-.299.046.014-.002-.104-.584-.013-.058.282-.06-.083-.36c-.007-.031-.015-.062-.022-.094-.018-.079-.037-.162-.061-.241l-.141-.496c-.01-.036-.022-.072-.034-.107-.007-.019-.013-.038-.019-.058l-.008-.024-.283.091.008-.003-.109-.321c-.007-.019-.013-.038-.019-.057-.012-.035-.023-.07-.037-.104l-.053-.134.269-.103-.009-.024c-.018-.045-.036-.091-.054-.136-.065-.165-.132-.337-.21-.5l-.141-.313c-.019-.045-.042-.089-.064-.132l-.102-.199-.257.131-.155-.302-.156-.272.25-.144-.013-.022c-.02-.035-.04-.07-.06-.105-.036-.064-.074-.13-.114-.193l-.185-.289c-.097-.159-.207-.312-.313-.461-.025-.036-.051-.071-.076-.107l-.015-.021-.234.169-.098-.138-.298-.38.224-.181-.014-.019c-.056-.074-.117-.145-.177-.213l-.269-.311c-.039-.046-.081-.09-.117-.128l-.373-.392-.216.215.011-.012c-.058-.055-.115-.11-.173-.165-.098-.094-.199-.19-.3-.283l.194-.215-.279-.242c-.027-.023-.053-.046-.08-.069-.059-.052-.12-.105-.184-.153l-.405-.319c-.03-.023-.06-.044-.091-.066-.016-.012-.033-.023-.049-.035l-.02-.015-.177.242.006-.009c-.049-.034-.097-.069-.146-.104-.126-.09-.256-.183-.391-.267l.157-.241-.31-.199c-.05-.033-.101-.062-.149-.09l-.447-.257c-.066-.036-.132-.07-.199-.103-.036-.018-.071-.036-.107-.055l-.022-.012-.132.257c-.036-.018-.071-.036-.107-.055-.064-.033-.13-.067-.196-.098l-.286-.129.118-.263-.259-.117-.399-.158c-.157-.066-.321-.121-.48-.174-.057-.019-.113-.038-.169-.057l-.024-.008-.09.274-.161-.054-.464-.132.074-.278-.023-.007c-.095-.029-.193-.052-.288-.073l-.381-.088c-.078-.02-.159-.034-.237-.048-.034-.006-.068-.012-.102-.018l-.363-.065-.045.285c-.144-.022-.291-.04-.434-.058-.071-.009-.142-.018-.213-.027l.03-.288-.025-.002c-.15-.014-.303-.025-.451-.036-.078-.006-.157-.012-.236-.018-.152-.006-.304-.009-.456-.013-.077-.002-.154-.004-.231-.006h-.026s0,.303,0,.303v-.016s-.652.017-.652.017l-.015-.289-.712.055c-.077.01-.154.02-.231.029-.148.019-.3.038-.45.059l-.025.004.046.299-.002-.014-.584.104-.058.013-.06-.282-.36.083c-.031.007-.062.015-.094.022-.08.018-.162.037-.241.061l-.496.141c-.036.01-.072.022-.107.034-.019.007-.038.013-.057.019l-.024.008.091.282-.003-.008-.321.109c-.019.007-.037.013-.056.019-.035.012-.07.023-.104.037l-.134.053-.103-.269-.024.009c-.045.018-.091.036-.136.054-.165.065-.337.132-.5.21l-.313.141c-.045.019-.089.042-.132.064l-.199.102.131.257-.302.155-.272.156-.144-.25-.022.013c-.035.02-.07.04-.104.06-.064.036-.13.074-.193.114l-.289.185c-.159.097-.312.207-.461.313-.036.025-.071.051-.107.076l-.021.015.169.233-.138.098-.38.298-.181-.224-.019.015c-.074.056-.144.117-.212.176l-.312.27c-.046.039-.09.081-.128.117l-.392.373.215.216-.012-.011c-.055.058-.11.116-.166.174-.093.098-.19.198-.283.3l-.215-.194-.242.279c-.023.027-.046.053-.069.08-.051.059-.105.12-.153.183l-.319.405c-.023.03-.044.06-.066.091-.012.016-.023.033-.035.049l-.015.02.242.177-.009-.006c-.034.049-.069.097-.104.146-.09.126-.183.256-.267.391l-.241-.157-.199.31c-.033.05-.062.101-.09.149l-.257.447c-.036.066-.07.132-.103.199-.018.036-.036.071-.055.107l-.012.022.257.132c-.018.036-.036.071-.054.106-.033.064-.067.13-.099.197l-.129.286-.263-.118-.117.259-.158.399c-.066.157-.121.321-.174.479-.019.057-.038.113-.057.169l-.008.024.274.09-.054.161-.132.464-.278-.074-.007.023c-.029.095-.052.193-.073.288l-.088.381c-.02.078-.034.159-.048.237-.006.034-.012.068-.018.102l-.065.363.285.045c-.022.144-.04.291-.058.434-.009.071-.018.142-.027.213l-.288-.03-.002.025c-.014.15-.025.303-.036.451-.006.078-.012.156-.018.236-.006.152-.009.304-.013.456-.002.077-.004.154-.006.231v.026s.303,0,.303,0h-.016s.017.652.017.652l-.289.015.055.712c.01.077.02.154.029.232.019.148.038.3.059.45l.004.025.302-.047-.016.003.104.584.013.058-.282.06.083.36c.007.031.015.062.022.094.018.079.037.162.061.241l.141.496c.01.036.022.072.034.107.007.019.013.038.019.057l.008.024.28-.09-.005.002.109.321c.007.019.013.038.019.056.012.035.023.07.037.104l.053.134-.269.103.009.023c.018.046.036.091.054.137.065.165.132.336.21.499l.141.313c.019.045.042.09.064.133l.102.198.257-.131.155.302.156.272-.25.144.013.022c.02.035.04.07.06.104.036.064.074.13.114.193l.185.289c.097.159.207.313.313.461.025.036.051.071.076.107l.015.021.233-.169.098.138.298.38-.224.181.015.019c.056.074.117.145.177.213l.27.311c.035.042.072.082.117.128l.373.392.216-.215-.011.012c.058.055.116.11.174.166.098.093.198.19.3.283l-.194.215.279.242c.027.023.054.046.08.069.059.051.12.105.183.152l.405.319c.03.023.06.044.091.066.016.012.033.023.049.035l.02.015.177-.242-.006.009c.049.034.097.069.146.104.126.09.256.183.391.267l-.157.242.31.199c.05.033.103.064.149.09l.447.257c.065.036.132.069.198.103.036.018.072.036.107.055l.022.012.132-.257c.036.018.072.037.107.055.063.033.129.067.195.098l.286.129-.118.263.259.117.399.158c.157.066.321.121.48.174.056.019.113.038.169.057l.024.008.09-.274.161.054.464.132-.074.278.023.007c.095.029.193.052.288.073l.382.088c.078.02.159.034.237.048.034.006.068.012.102.018l.363.065.045-.285c.144.022.29.04.432.058.072.009.143.018.215.027l-.03.288.025.002c.15.014.303.025.451.036.078.006.156.012.235.018.151.006.302.009.453.013.078.002.156.004.234.006h.026s0-.303,0-.303v.016s.652-.017.652-.017l.015.289.712-.055c.077-.01.154-.02.232-.029.148-.018.3-.038.45-.059l.025-.004-.047-.301.003.016.584-.104.058-.013.06.282.36-.083c.031-.007.063-.015.094-.022.079-.018.161-.037.241-.061l.496-.141c.036-.01.072-.022.107-.034.019-.007.038-.013.058-.019l.024-.008-.09-.28.002.005.321-.108c.019-.007.038-.013.057-.019.035-.012.07-.023.104-.037l.134-.053.103.269.023-.009c.046-.018.091-.036.137-.054.165-.065.336-.132.499-.21l.313-.141c.045-.019.09-.042.133-.064l.198-.102-.131-.257.302-.155.272-.156.144.25.022-.013c.035-.02.07-.04.105-.06.064-.036.129-.074.192-.114l.289-.185c.159-.097.313-.207.461-.313.036-.025.071-.051.107-.076l.021-.015-.169-.233.138-.098.38-.298.181.224.019-.015c.074-.056.145-.117.213-.177l.311-.27c.042-.035.082-.072.128-.117l.392-.373-.215-.216.012.011c.055-.058.11-.115.165-.173.094-.098.19-.199.283-.3l.215.194.242-.279c.023-.027.046-.053.069-.08.052-.059.105-.12.153-.184l.319-.405c.023-.03.044-.06.066-.091.012-.016.023-.033.035-.049l.015-.02-.241-.176.008.006c.034-.049.069-.097.104-.146.09-.126.183-.257.267-.391l.242.157.199-.31c.033-.05.064-.103.09-.149l.257-.447c.036-.066.069-.132.103-.198.018-.036.036-.072.055-.107l.012-.022-.257-.132c.018-.036.037-.072.055-.107.033-.063.067-.129.098-.196l.129-.286.263.118.117-.259.158-.399c.066-.157.121-.321.174-.48.019-.056.038-.113.057-.169l.008-.024-.274-.09.054-.161.132-.464.278.074.007-.023c.029-.095.051-.193.073-.288l.088-.382c.02-.078.034-.159.048-.237.006-.034.012-.068.018-.102l.065-.363-.285-.045c.022-.144.04-.29.058-.432.009-.072.018-.143.027-.215l.288.03.002-.025c.014-.15.025-.303.036-.451.006-.078.012-.156.018-.235.006-.151.009-.302.013-.454.002-.078.004-.156.006-.234v-.026s-.303,0-.303,0ZM2.992,16.676h0s0,0,0,0ZM15.729,28.705c-.137-.003-.273-.007-.409-.012-.08-.006-.161-.012-.241-.018-.136-.01-.276-.02-.414-.033l-.025-.002-.03.286c-.071-.009-.143-.018-.214-.027-.141-.018-.287-.036-.43-.057l.045-.285-.348-.062c-.033-.006-.066-.012-.099-.018-.073-.013-.149-.026-.223-.045l-.367-.085c-.089-.02-.182-.041-.27-.069l-.025-.008-.075.279-.463-.131-.16-.054.09-.274-.023-.008c-.056-.019-.112-.038-.168-.057-.149-.05-.303-.101-.45-.163l-.381-.15-.247-.112-.118.263-.285-.129c-.065-.031-.13-.064-.193-.097-.036-.018-.072-.037-.108-.055l.132-.256-.022-.011c-.035-.018-.07-.036-.105-.054-.062-.032-.125-.064-.186-.097l-.428-.246c-.045-.026-.094-.053-.14-.084l-.298-.191-.157.242c-.133-.083-.263-.175-.389-.265-.048-.035-.097-.069-.146-.104l.17-.233-.02-.015c-.016-.011-.032-.023-.048-.034-.029-.02-.057-.04-.085-.062l-.388-.305c-.059-.045-.117-.095-.172-.143-.026-.023-.052-.046-.078-.068l-.267-.231-.192.213c-.101-.093-.201-.189-.299-.282-.058-.055-.115-.11-.173-.165l.204-.203-.357-.375c-.034-.035-.074-.077-.11-.12l-.259-.299c-.056-.064-.114-.131-.166-.2l-.016-.021-.224.182-.297-.378-.098-.138.233-.169-.014-.02c-.026-.036-.051-.072-.077-.108-.1-.14-.203-.284-.294-.433l-.177-.277c-.037-.059-.073-.121-.107-.181-.019-.034-.039-.068-.059-.102l-.013-.021-.249.144-.156-.27-.154-.301.257-.131-.098-.191c-.021-.04-.042-.081-.06-.124l-.136-.3c-.073-.153-.136-.314-.197-.469-.018-.045-.036-.091-.054-.136l-.009-.023-.269.103-.053-.134c-.013-.033-.025-.068-.036-.102-.006-.019-.013-.038-.019-.057l-.108-.32.274-.088-.008-.024c-.006-.019-.013-.037-.019-.056-.011-.032-.023-.066-.032-.099l-.135-.475c-.023-.074-.04-.151-.057-.226-.007-.031-.014-.061-.021-.091l-.079-.344-.282.06-.013-.057-.104-.582.284-.044-.003-.024c-.019-.136-.036-.273-.053-.41-.01-.081-.02-.161-.031-.241l-.052-.68-.287.015-.017-.65h.288s0-.024,0-.024c.002-.081.004-.163.006-.244.003-.138.007-.276.012-.412.006-.08.012-.161.018-.241.01-.136.021-.276.033-.414l.002-.025-.286-.03c.009-.071.018-.141.027-.212.018-.142.036-.289.058-.432l.285.045.062-.348c.006-.033.012-.066.018-.099.013-.073.026-.149.045-.223l.085-.367c.02-.089.041-.182.069-.27l.008-.025-.279-.075.131-.463.054-.16.274.09.008-.023c.019-.056.038-.112.057-.168.05-.149.101-.303.163-.45l.15-.381.112-.247-.263-.118.129-.285c.031-.066.065-.131.098-.195.018-.035.037-.071.054-.106l.256.132.011-.022c.018-.035.036-.07.054-.105.032-.062.063-.125.097-.186l.246-.428c.026-.045.053-.093.084-.14l.191-.298-.242-.157c.083-.133.175-.263.265-.389.035-.048.069-.097.104-.146l.233.17.015-.02c.011-.016.023-.032.034-.048.02-.029.04-.057.062-.085l.305-.388c.045-.06.095-.117.143-.172.023-.026.045-.052.067-.078l.231-.267-.213-.192c.093-.101.189-.201.282-.299.055-.058.11-.115.165-.173l.203.204.375-.357c.036-.034.077-.074.12-.11l.3-.26c.064-.056.131-.114.2-.166l.021-.016-.182-.224.378-.297.138-.098.169.233.02-.014c.036-.026.072-.051.108-.077.14-.1.284-.203.433-.294l.277-.177c.059-.037.121-.073.181-.107.034-.019.068-.039.102-.059l.021-.013-.144-.249.27-.156.301-.154.131.257.192-.098c.04-.021.081-.042.123-.06l.3-.136c.153-.073.314-.136.47-.197.045-.018.091-.036.136-.054l.023-.009-.103-.269.134-.053c.033-.013.068-.025.102-.036.019-.006.038-.013.057-.019l.32-.108.088.274.024-.008c.019-.006.037-.013.056-.019.032-.011.066-.023.099-.032l.475-.135c.074-.023.151-.04.226-.057.031-.007.061-.014.091-.021l.344-.079-.06-.282.057-.013.582-.104.044.284.024-.003c.136-.019.273-.036.41-.054.081-.01.161-.02.241-.031l.68-.052-.015-.287.65-.017v.288s.024,0,.024,0c.081.002.163.004.244.006.138.003.276.007.412.012.08.006.161.012.241.018.136.01.276.021.414.033l.025.002.03-.286c.071.009.142.018.212.027.142.018.288.036.432.058l-.045.285.347.062c.033.006.066.012.099.018.073.013.149.026.223.045l.367.085c.089.02.182.041.27.069l.025.008.075-.279.463.131.16.054-.09.274.023.008c.056.019.112.038.168.057.149.05.303.101.45.163l.381.15.248.112.117-.263.285.129c.065.031.131.065.194.097.035.018.071.037.107.055l-.132.256.022.011c.035.018.07.036.105.054.062.032.125.063.186.097l.428.246c.045.026.093.053.14.084l.298.191.157-.242c.134.083.263.175.389.265.048.035.097.069.146.104l-.17.233.02.015c.016.011.032.023.048.034.029.02.057.04.085.062l.388.305c.06.045.117.095.173.144.026.023.052.045.077.067l.267.231.192-.213c.101.093.202.189.299.282.057.055.115.11.173.164l-.204.203.357.375c.034.035.074.077.11.12l.259.3c.056.064.114.131.166.2l.016.021.224-.182.297.378.098.138h0s-.234.169-.234.169l.014.02c.025.036.051.072.077.107.1.14.203.285.295.434l.177.277c.037.059.073.121.107.181.019.034.039.068.059.102l.013.021.249-.144.156.27.154.301-.257.131.099.192c.02.04.042.081.06.123l.136.3c.073.153.136.313.197.469.018.046.036.091.054.137l.009.023.269-.103.053.134c.013.033.024.067.036.101.006.019.013.039.019.057l.108.32-.274.088.008.024c.006.019.013.037.019.056.011.032.023.066.032.099l.135.475c.023.074.041.152.058.227.007.03.014.061.021.091l.079.344.282-.06.013.057.104.582-.284.044.003.024c.019.137.036.274.054.411.01.08.02.161.031.24l.052.68.287-.015.017.65h-.288s0,.024,0,.024c-.002.082-.004.165-.006.247-.003.137-.007.273-.012.409-.006.08-.012.161-.018.241-.01.136-.021.276-.033.414l-.002.025.286.03c-.009.071-.018.143-.027.214-.018.141-.036.287-.057.43l-.285-.045-.062.347c-.006.033-.012.066-.018.099-.013.073-.026.149-.045.223l-.085.367c-.02.089-.041.182-.069.27l-.008.025.279.075-.131.463-.054.16-.274-.09-.008.023c-.019.056-.038.112-.057.168-.05.149-.101.303-.163.45l-.15.381-.112.248.263.117-.129.285c-.031.065-.064.13-.097.194-.018.036-.037.071-.055.107l-.256-.132-.011.022c-.018.035-.036.07-.054.105-.032.063-.064.125-.097.186l-.246.428c-.026.045-.053.093-.084.14l-.191.298.242.157c-.083.134-.176.264-.266.389-.035.048-.069.097-.103.145l-.233-.17-.015.02c-.011.016-.023.032-.034.048-.02.029-.04.057-.062.085l-.305.388c-.045.06-.095.117-.143.172-.023.026-.045.052-.067.078l-.231.267.213.192c-.093.101-.189.202-.282.299-.055.057-.11.115-.164.172l-.203-.204-.375.357c-.035.034-.077.074-.12.11l-.299.259c-.064.056-.131.114-.2.166l-.021.016.182.224-.378.297-.138.098h0s-.17-.233-.17-.233l-.02.014c-.036.025-.071.051-.107.076-.14.1-.285.203-.434.295l-.277.177c-.059.037-.121.073-.181.107-.034.019-.068.039-.102.059l-.021.013.144.249-.27.156-.301.154-.131-.257-.192.099c-.04.02-.081.042-.123.06l-.3.136c-.153.073-.313.136-.469.197-.046.018-.091.036-.137.054l-.023.009.103.269-.134.053c-.033.013-.067.024-.101.036-.019.006-.039.013-.058.019l-.32.108-.088-.274-.024.008c-.019.006-.037.012-.056.019-.032.011-.066.023-.1.032l-.475.135c-.074.023-.152.041-.227.058-.03.007-.061.014-.091.021l-.344.079.06.282-.057.013-.582.104-.044-.284-.024.003c-.137.019-.273.036-.41.054-.08.01-.161.02-.24.031l-.68.052.015.287-.65.017v-.288s-.024,0-.024,0c-.082-.002-.165-.004-.247-.006ZM16.676,29.008h0,0Z"/>
  </g>
  <g class="cls-8">
    <path class="cls-52" d="M19.775,9.164c-.011,0-.019.007-.017.015.005.023.016.043.039.058.015.01.029.021.048.026.013.003.027.005.041.006.014,0,.029-.002.042.003.041.014.046.076.103.067.026-.004.046-.015.071-.001.023.012.041.03.063.043.016.009.034.021.054.022.014,0,.025.005.037.012.011.006.034.017.039.028.003.006,0,.007-.002.014-.003.01,0,.015.009.022.008.007.022.019.022.03,0,.01-.013.012-.02.019-.006.007-.008.015-.005.023.001.004.005.005.004.01-.001.004-.009.008-.013.01-.008.005-.01.005-.02.004-.007-.001-.013-.005-.016.002-.003.008.028.042.037.036.004-.003.003-.012.009-.016.011-.007.027-.003.04-.003.021,0,.04.002.024.022-.011.015-.028.002-.044.005-.009.001-.027.011-.024.02.003.008.019.011.027.013.001.01.001.029-.018.022-.017-.007-.022-.029-.034-.04-.017-.015-.025.006-.019.019.005.01.016.017.027.023.009.005.012.002.022.003.014,0,.019.007.012.017-.002.003-.004.004-.006.007-.003.006-.001.009-.009.013-.009.004-.017,0-.025.005-.01.006-.004.018-.013.023-.008.005-.014,0-.012.008,0,.003.005.003.005.008,0,.005-.003.008-.002.013.004.013.021.016.029.025.005.006,0,.004,0,.01,0,.005.003.006.004.011,0,.009-.007.012.002.022.007.008.017.012.028.016.013.005.007,0,.02-.001.009-.001.018.01.014.018,0,.002-.004.002-.006.002-.005.011-.003.014.001.024.005.013.008.01.023.014.004.001.008.004.012.006.006.002.014.003.02.005.004.002.006.006.009.008.005.002.013,0,.018,0,.007.001.012.005.019.006.001,0,.01.002.01.002.009.005.009.016.022.022.015.006.026,0,.038-.007.012-.007.027-.004.041-.009.006-.002.014-.007.022-.005.007.002.01.007.019.008.021.002.027-.006.041-.016.016-.01.032,0,.05-.003.009-.001.016-.006.025-.004.008.002.015.007.022.01.015.006.023-.002.037-.001.01,0,.02.002.031.002.018,0,.03-.008.046-.012.01-.002.018.001.028,0,.009,0,.015-.004.022-.009.019-.012.05-.015.072-.024.024-.01.044-.03.062-.046,0,0-.001-.001-.002-.001,0,.001,0,.003,0,.004.007-.01.016-.02.021-.03.006-.012-.002-.021,0-.033.002-.008.014-.019.021-.024.01-.008.012-.017.015-.028.001-.004,0-.009.002-.013.003-.007.007-.009.007-.017,0-.008,0-.015.008-.021.008-.006.017-.008.018-.018,0-.008-.003-.016-.001-.025.003-.015.008-.025,0-.039-.006-.01-.018-.023-.01-.035.002-.002.015-.007.018-.008.015-.006.03-.013.045-.019.012-.005.009-.026.01-.035.002-.011.014-.012.025-.015.01-.003.022-.008.024-.017.003-.011-.01-.019-.015-.028-.008-.014-.001-.031.013-.04.008-.005.013-.012.021-.018.011-.008.02-.013.027-.025.008-.014-.011-.03-.025-.037-.027-.013-.049.018-.07.027-.015.006-.031.001-.046.01-.012.007-.022.017-.036.023-.013.005-.028.005-.039.013-.015.012-.025-.001-.041,0-.012,0-.022-.007-.033-.004-.002,0-.002.003-.005.003-.01,0-.019-.015-.017-.022.001-.004.006-.005.007-.008.002-.007-.003-.01.002-.017.004-.005.007-.005.005-.011-.002-.005-.011-.008-.014-.013-.004-.006-.001-.011-.002-.016-.002-.016-.054-.06-.029-.073.011-.006.037-.002.049-.003.032-.003.09.002.082-.036-.004-.024-.009-.056-.026-.076-.018-.021-.052-.036-.081-.042-.014-.003-.024-.007-.026-.02-.001-.007.003-.033-.015-.024-.006.003,0,.013-.003.017-.004.005-.018.006-.024.007-.023.001-.047,0-.07.003-.012.002-.023.005-.033.01-.009.005-.017.015-.029.01-.005-.002-.014-.01-.017-.014-.005-.006-.004-.009-.003-.017.002-.013-.002-.027-.013-.037-.008-.007-.029-.022-.042-.021-.008,0-.008.002-.016,0-.007-.002-.016-.005-.024-.006-.008,0-.018.003-.026,0-.006-.002-.011-.006-.017-.003-.012.005.004.021-.01.027-.004.001-.017-.022-.018-.025-.003-.005-.006-.012-.011-.016-.006-.006-.014,0-.021-.002-.007-.002-.013-.008-.021-.01-.01-.002-.022-.003-.032-.003-.007,0-.014,0-.022.001-.002,0-.003.002-.001.003.005.003.009.009.009.014,0,0-.002.003-.004.006-.004.006-.012.008-.019.005-.003-.001-.005-.002-.007-.002-.005,0-.005.003-.008.004-.013.004-.018-.009-.03-.009-.006,0-.011.006-.018.006-.008,0-.013-.002-.019-.005-.008-.005-.015-.011-.022-.018-.009-.009-.021-.016-.034-.019-.014-.003-.026-.016-.04-.018-.005,0-.008.002-.013,0-.008-.004-.007-.007-.018-.005-.011.003-.012.002-.021-.003-.006-.003-.012-.006-.018-.01-.007-.004-.028-.009-.034-.003-.004-.003-.009-.006-.015-.006-.006,0-.009.004-.015.002-.006-.001-.01-.005-.015-.007-.006-.002-.013,0-.019-.002-.008-.002-.011-.009-.02-.005-.012.005-.02.012-.033.014-.012.001-.023.002-.029.012-.006.009-.005.019-.009.028-.005.011-.002.018-.02.018-.007,0-.012,0-.018.001-.01,0-.013-.002-.018.007-.004.006-.004.014-.008.02-.005.007-.012.01-.017.017-.003.005-.007.01-.006.015,0,.005.005.012.006.016.001.006.008.01.01.015.003.008-.005.008-.011.012-.006.004-.01.01-.014.015-.007.01-.018.014-.03.018-.007.002-.016.005-.02.01-.004.005.001.01.001.015,0,.017-.037.032-.053.037-.011.004-.024.004-.036.003Z"/>
    <g>
      <path class="cls-7" d="M16.006,5.374s-.002,0,0,0t0,0Z"/>
      <path class="cls-28" d="M22.427,5.966c-.017-.01-.034-.019-.055-.025-.024-.007-.038-.017-.053-.034-.013-.016-.025-.031-.041-.044-.071-.06-.16-.012-.255-.028-.051-.009-.126-.075-.177-.08-.015-.002-.042-.003-.04-.021.002-.017.029-.027.047-.028.024-.002.049.005.071.012.021.007.039.023.061.027.012.003.024,0,.035.004.01.003.018.008.028.011.022.007.039-.006.06.006.02.011-.002.022.019.03.018.007.108.029.101.016-.019-.026-.055-.045-.083-.063-.034-.023-.067-.046-.1-.069-.069-.047-.138-.094-.209-.14-.069-.046-.141-.089-.21-.135-.013-.009-.026-.02-.041-.027-.02-.009-.026.004-.043.007-.019.003-.041-.011-.056-.018-.018-.008-.035-.018-.051-.027-.032-.019-.062-.04-.098-.054-.019-.007-.038-.009-.058-.013-.021-.004-.041-.011-.062-.016-.016-.004-.033-.007-.049-.012-.022-.007-.045-.007-.067-.013-.017-.005-.038-.016-.056-.016-.007,0-.013.003-.021.001-.008-.002-.016-.006-.023-.009-.036-.016-.076-.022-.116-.024-.022-.002-.04-.005-.061-.01-.019-.005-.037-.002-.054.006-.015.007-.023.017-.018.031.003.008.025.026.022.033-.003.008-.022.004-.027,0-.013-.006-.014-.02-.023-.029-.012-.011-.029-.012-.046-.014-.021-.002-.043-.006-.064-.009-.042-.006-.081-.018-.119-.033-.016-.006-.032-.016-.05-.02-.019-.004-.036.002-.055-.003-.018-.005-.024.008-.036.017-.01.007-.022.019-.011.028.007.006.016.009.017.014.001.006.005.012.012.015.02.008.031.028.05.037.024.013.056.013.077.029.014.011.013.021.004.034-.008.012-.011.026-.02.037-.007.008-.02.018-.033.019-.011,0-.009-.002-.01-.01,0-.006-.004-.011-.007-.016-.006-.011-.025-.017-.013-.028.012-.012.032-.003.043-.012,0-.01.017-.016.005-.026-.008-.007-.02-.009-.03-.011-.009-.002-.022-.004-.029-.01-.006-.005-.006-.011-.015-.015-.009-.004-.021-.004-.031-.007-.005-.002-.006-.008,0-.011.007-.003.004-.008-.009-.011-.008-.002-.017-.001-.025-.005-.006-.003-.012-.008-.018-.012-.003-.002-.004-.006-.004-.009,0-.012-.02-.023-.03-.028-.021-.011-.046-.015-.069-.021-.011-.003-.02-.005-.029.003-.007.006-.009.011-.019.013-.019.003-.038-.008-.054-.013-.006-.002-.021-.003-.022-.009,0-.003.001-.005.004-.006.007-.003.007-.012,0-.015h0s-.011-.002-.014-.006c-.007-.008,0-.015-.011-.022-.012-.008-.052-.021-.061-.007-.004.007,0,.01-.012.012-.014.002-.029,0-.043.003-.015.003-.028.009-.043.012-.011.002-.022.003-.029.012-.009.012,0,.018.012.023.006.003.008.008.007.014,0,.002,0,.004.003.008.006.01.009.016.001.027-.008.012-.048.042-.025.056.004.002.017.003.019.007.001.004.003.008.007.01.031.018.079.012.113.025.023.009.048.022.066.036.005.004.015.012.004.015-.01.003-.029-.009-.036-.013-.036-.018-.071-.037-.115-.036-.025,0-.038.01-.049.028-.008.012-.017.018-.029.02-.01.002-.019.006-.025.012-.025.023-.116-.005-.141-.005-.008,0-.056.002-.047-.013.005-.009.038-.005.047-.004.017.002.033.007.051.01.006,0,.016.004.021.002.003,0,.006-.002.007-.004.003-.004.008-.007.014-.007.014,0,.027-.004.04-.008.008-.002.016-.007.02-.013.003-.004.012-.008.016-.01h0c.02-.007.022-.03.003-.039-.011-.006-.019-.012-.017-.022.002-.006-.002-.011-.008-.014-.005-.002-.01-.005-.01-.008,0-.003.002-.005.004-.005.007-.002.01-.009.007-.015,0-.001,0-.002,0-.003-.002-.012.009-.01.018-.015.011-.007.003-.022.002-.032-.002-.012-.014-.016-.018-.026-.008-.021.015-.017.03-.017.007,0,.015,0,.015-.008,0-.004-.005-.005-.004-.01.001-.005.008-.006.008-.012,0-.008-.015-.016-.021-.021-.004-.004-.007-.007-.013-.008-.006-.001-.012.002-.017-.002-.003-.003,0-.01-.004-.014-.003-.004-.009-.007-.014-.009-.012-.004-.025-.005-.037-.007-.035-.005-.067-.015-.101-.022-.009-.002-.028-.008-.037-.004-.006.003-.004.009-.009.013-.005.004-.012.003-.015.009-.006.011.008.022-.012.028-.012.004-.027.002-.04,0-.031-.004-.062-.012-.092-.007-.009.002-.013.01-.007.016.001.001.002.002.002.004,0,.002,0,.004-.002.005-.004.004-.006.009-.002.013.007.008.012.018-.003.022-.006.001-.014-.004-.02,0-.003.003-.002.006-.005.009,0,0,0,0,0,0-.005.003-.006.008,0,.011.004.002.008.004.013.005.012.005.012.012.021.018.017.012.043.013.053.032.01.019-.011.023-.024.009-.005-.006-.008-.013-.016-.017-.01-.005-.023-.002-.034-.005-.013-.003-.032-.01-.047-.018-.008-.004-.013-.01-.015-.018-.002-.005-.019-.009-.023-.011-.02-.006-.036-.019-.058-.023-.022-.004-.034-.018-.056-.02-.014-.001-.027-.001-.04-.005-.013-.003-.025-.009-.039-.01-.024-.002-.047.004-.067-.006-.007-.004-.008-.011-.003-.017h0s0-.002,0-.003c-.012-.006-.024-.004-.033-.016.012-.004-.006-.011-.01-.012-.013-.004-.028-.004-.042-.006-.017-.003-.028-.013-.044-.017-.011-.003-.016,0-.022.005-.006.005-.003.014.005.016,0,0,0,0,.001,0,.005.001.008.005.008.01,0,.004.009.009.014.009.006,0,.011-.002.016-.001.009.002.005.005.009.011.006.01.02.011.034.013.014.002.021.015.012.024-.002.002-.006.004-.011.003-.009,0-.017-.008-.025-.01-.009-.002-.019-.003-.028-.005-.018-.006-.024-.01-.044-.005-.019.004-.039.002-.058,0-.022-.002-.043-.007-.064-.012-.011-.003-.022-.005-.034-.005-.01,0-.021.003-.031.002-.021-.003-.008-.015-.012-.026-.005-.012-.029-.014-.042-.015-.022-.002-.045-.005-.066,0-.011.003-.019.006-.031.006-.006,0-.012-.001-.017-.002-.006-.001-.013,0-.017.002-.005.003-.022-.002-.026-.003-.005,0-.021-.004-.028,0-.008.003-.017.002-.025-.001-.006-.003-.012-.005-.019-.007-.018-.004-.019.009-.034.01-.007,0-.015-.002-.022-.003-.008,0-.017,0-.025,0-.018,0-.03.007-.047.01-.007.001-.015-.001-.022,0-.006.001-.008.006-.013.008-.009.005-.02.001-.026.008-.007.007,0,.014-.013.016-.008.001-.019-.002-.027-.004-.012-.003-.037-.005-.039-.017-.004-.021.028-.01.041-.011.004,0,.04,0,.043-.008.002-.004.01-.008.007-.012-.003-.005-.016-.005-.022-.006-.009-.002-.018-.006-.02-.014-.003-.014.025-.006.034-.005.026.005.05.01.076.011.015,0,.035.005.05.002.018-.003.013-.016,0-.023-.017-.009-.039-.009-.058-.01-.012,0-.023-.002-.034-.005-.006-.001-.014-.004-.021-.002-.019.005,0,.022-.023.021-.02,0-.04-.006-.06-.006-.005,0-.02,0-.025-.004-.004-.004-.01-.008-.017-.008-.01,0-.019,0-.028,0-.01,0-.033.002-.041-.004-.007-.005,0-.011-.007-.015-.009-.005-.033,0-.042.002-.014.001-.044-.008-.037.01.003.007.008.018.015.022.004.003.01.003.014.005.006.004.008.009.011.014.003.004.008.009.009.014,0,.004-.003.008-.002.013,0,.003.002.005.003.007.007.007.002.017-.009.018-.011,0-.023,0-.035-.003-.019-.004-.034-.005-.053,0-.008.002-.03.01-.037.003-.01-.009.012-.009.018-.011.007-.002.009-.003.007-.01,0-.003-.004-.005-.004-.008,0-.003.001-.007,0-.01-.001-.008-.009-.013-.016-.018-.007-.005-.01-.01-.015-.017-.005-.006-.006-.008-.015-.009-.011-.002-.017-.003-.027-.008-.016-.008-.04-.009-.051-.021-.007-.008-.01-.011-.022-.013-.009-.002-.018-.004-.028-.005-.008-.001-.016-.002-.023-.004-.006-.002-.014-.004-.017-.01-.002-.006-.005-.008-.012-.007-.011,0-.022.008-.033.006-.014-.003-.02-.017-.033-.022-.019-.008-.032-.003-.052-.002-.01,0-.018-.004-.026-.007-.01-.003-.02-.005-.031-.006-.041-.006-.079-.018-.113-.036-.028-.015-.062-.004-.093-.002-.022.002-.065.005-.072-.019.015-.007.056.016.059-.008.003-.024-.048-.017-.064-.017-.01,0-.039.002-.046-.004-.008-.007.003-.013-.013-.018-.028-.008-.065-.011-.095-.009-.035.002-.067.004-.102,0-.034-.003-.063.007-.096.011-.031.004-.061.009-.092.003-.024-.005-.054-.01-.076.003-.014.008-.028.016-.045.017-.018.001-.035-.006-.053-.004-.017.002-.034.006-.051.008-.016.002-.035.002-.049.009.006.013-.006.016-.019.019-.019.004-.034.012-.053.017-.004.001-.01.003-.014.003-.007,0-.004,0-.008-.005-.003-.004-.002-.008-.007-.011-.014-.008-.042-.001-.057,0-.012.001-.03,0-.04.007-.015.01,0,.023.015.023.019,0,.036-.009.054-.011.011-.001.043.004.023.016-.012.007-.034.002-.048.003-.017.001-.03.008-.038.02.006.002.025.003.025.01,0,.011-.021.003-.027.006-.007.003-.004.009-.009.014-.006.006-.014.003-.023.004-.012.002-.025.013-.029.022-.004.008.004.019-.003.025-.011.009-.031-.004-.044-.001-.014.003-.016.018-.027.025-.014.009-.036.009-.053.014-.011.004-.039.014-.018.023.012.005.035,0,.041.014-.011.009-.032.005-.046.003-.017-.002-.033-.002-.048.005-.015.007-.026.018-.044.019-.017,0-.039-.011-.055-.005-.014.005-.001.018-.011.027-.009.008-.029.013-.04.016-.012.003-.025.003-.036.007-.007.003-.009.007-.011.012-.003.007-.007.008-.014.012-.003.002-.005.004-.007.006-.013.012-.022.018-.04.02-.012.002-.058.007-.044.025.005.007.031.01.02.021-.007.007-.039.013-.023.023.006.004.015.003.021.006.002.001.005.004.006.006.002.005.006.008.012.01.001,0,.003,0,.004.002.007.004.005.011.01.016.005.004.025.004.024.012-.001.008-.021.007-.026.012-.004.004-.006.009-.006.015,0,.009.008.016.018.017.009.001.016.005.024.009.016.008.027.008.045.01.022.002.036.004.058,0,.014-.003.026,0,.04-.002.01-.001.013-.004.014-.01.001-.005.008-.009.014-.006.008.003.014.007.025,0,.014-.009.023-.018.042-.021.007-.001.016-.001.022-.005.003-.002.006-.009.009-.01.01-.002.015.022.022.026.006.004.013.002.017.008.003.004.001.009.004.012.004.005.013.005.018.009.006.005.004.012.01.017.006.004.014.005.02.01.006.004.01.007.018.008.016.002.026.005.02.021-.01.026-.036.025-.059.031-.008.002-.008.012,0,.013.004,0,.008.002.012.003.009.004.016.01.026.006.002,0,.004-.002.006-.003.009-.008.024-.008.034-.001.007.005.016.009.024.009.014,0,.025-.008.039-.008.013,0,.026.003.033-.008.006-.009.005-.015.021-.016.012,0,.026.005.034-.005.002-.003,0-.006.005-.009.004-.002.011-.002.015-.002.012,0,.021,0,.032-.005.009-.004.017-.009.024-.016.015-.014.011-.033-.004-.046-.003-.003-.004-.006-.001-.01.004-.007.018-.007.026-.011.01-.005.016-.014.027-.017.01-.002.041,0,.03-.015-.004-.006-.02-.01-.013-.018.004-.005.018-.004.024-.004.01,0,.025,0,.028-.01.001-.005-.004-.013,0-.017.004-.007.004-.016-.004-.021-.009-.006-.024-.009-.036-.011-.009-.001-.025-.001-.032-.006-.005-.003-.006-.007-.005-.01.001-.008-.007-.016-.017-.017h0c-.007,0-.01-.009-.004-.012.013-.008.029-.014.036-.025.004-.005-.001-.01.004-.014.005-.005.021-.003.028-.005.011-.003.021-.007.033-.008.008,0,.027.002.033-.002.004-.002.005-.009.01-.012.006-.004.013-.006.02-.008.014-.004.029-.006.043-.01.019-.007.027-.018.039-.031.011-.013.024-.029.041-.038.015-.009.034-.01.051-.013.017-.003.041-.008.055.003.011.009.014.014.029.019.017.006.007.014-.007.019-.017.006-.036.018-.055.018-.009,0-.017-.001-.025.002-.009.004-.014.01-.024.012-.017.004-.035,0-.047.013-.004.005-.007.01-.013.014-.007.004-.016.003-.024.007-.018.009-.015.033-.023.047-.011.018-.008.028,0,.047.003.006.004.017.009.022.004.004.009.004.015.006.015.005.023.018.038.024.019.008.045.007.066.009.024.001.048.004.072.002.022,0,.038-.009.059-.013.021-.004.045,0,.067-.003.024-.003.044.003.068.006.01.001.058.003.06.014.001.009-.046.011-.053.012-.051.006-.096,0-.147-.005-.023-.003-.045-.005-.067.003-.019.007-.038-.002-.053.01-.006.005-.009.007-.018.008-.005,0-.012,0-.014.004-.003.005.004.008.002.012-.003.007-.018.007-.025.007-.008,0-.044-.003-.045.009,0,.006.015.007.021.008.011.002.022.002.033.004.008.001.017.003.025,0,.007-.003.008-.011.015-.013.01-.003.033.017.037.024.01.017-.014.021-.028.015-.019-.008-.033-.014-.055-.015-.019-.001-.039-.009-.053.004-.007.006-.01.01-.021.01-.004,0-.007,0-.011,0-.003,0-.006.001-.007.003-.003.005-.006.01-.012.013-.015.008-.032.019-.016.026.008.004.017.003.017.013,0,.004-.003.008-.005.012-.003.007-.009.012-.017.014-.003,0-.007.002-.009.004-.008.005-.011.014-.017.021-.015.014-.021-.004-.036-.008-.01-.003-.022-.002-.033-.004-.012-.002-.025-.005-.038-.004-.021,0-.039.012-.061.014-.012.001-.024-.002-.035.002-.009.003-.014.01-.022.014-.019.009-.042.005-.062.004-.051-.003-.099-.01-.149-.02-.025-.005-.052.004-.077-.003-.007-.002-.018-.007-.012-.014.002-.002.005-.003.008-.003.004,0,.005-.005.001-.007h0c-.01-.003-.008-.015.003-.016.005,0,.011,0,.015-.002.006-.001.007-.008.002-.01-.004-.002-.006-.004-.004-.008.006-.01.021,0,.029-.002.025-.006-.034-.026-.042-.028-.034-.007-.06,0-.093.006-.016.003-.028-.001-.043-.003-.006,0-.033,0-.033.008,0,.004.015.005.018.006.009.004.009.008.005.012-.004.004-.006.009-.006.014,0,.012-.016.027-.016.038,0,.021.032.015.046.028.018.017-.031.021-.042.022-.011,0-.023,0-.034.003-.02.004-.037.012-.058.015-.02.003-.043.003-.061.01-.016.006-.03.018-.044.027-.015.01-.026.022-.04.032-.011.008-.028.007-.036.018-.004.006-.003.008-.012.011-.009.003-.017.003-.025.008-.015.009-.026.021-.041.029-.037.019-.076.029-.118.035-.02.003-.038.008-.055.017-.016.008-.031.018-.05.021-.019.003-.038,0-.058.005-.011.002-.029.004-.036.013,0,0,0,0,0,0-.004.006,0,.013.009.013.004,0,.008.003.008.007,0,.007.006.013.013.016.007.003.015.005.022.004.003,0,.005-.002.008-.003.009-.005.022-.004.029.003.001.001.004.002.007.003.011.002.017-.004.028,0,.018.008.036.012.054.02.008.004.018.007.025.014.008.008.003.013.003.022,0,.011.01.008.015.015.005.008-.005.014-.01.019-.007.009-.01.019-.014.029-.003.007-.004.018-.013.022-.009.004-.026.003-.036.005-.015.002-.029.003-.044.005-.058.006-.114.004-.173.003-.04,0-.084.004-.12.02-.013.006-.019.017-.019.029,0,0,0,.001,0,.002-.001.006-.009.007-.012.011-.007.01.011.035.018.044.011.016.02.03.01.048-.007.013-.027.027-.015.042.007.009.021.012.026.02.004.006.009.011.017.013.001,0,.002,0,.003.002.006.006-.004.015.005.02.007.004.019,0,.027,0,.011,0,.023,0,.034,0,.023.001.048.002.07.006.012.002.021.009.031.011.006.001.011.003.017.005.017.007.065-.009.077-.011.031-.005.061-.008.09-.019.028-.01.052-.025.079-.037.023-.01.046-.019.054-.041.007-.019.015-.037.016-.057,0-.011.008-.016.019-.021.01-.004.02-.011.031-.013.021-.003.04,0,.061-.008.013-.005.016-.011.025-.019.012-.01.02-.01.018-.026-.001-.011,0-.016.011-.023,0,0,.002-.001.002-.002.016-.011.037-.014.057-.01.001,0,.002,0,.003,0,.021.003.044.004.066.004.043,0,.074-.019.108-.038.016-.009.037-.017.056-.009.018.007.024.025.04.034.005.003.009.006.012.01.009.01.019.01.03.015.009.004.014.011.022.015.009.003.018,0,.026.002.008.003.006.008.011.012.006.006.013.005.021.005.024,0,.049.009.071.016.016.005.032.012.048.018.016.006.036.01.049.021.025.02-.004.043.009.064.021.034.075-.007.088-.025.008-.011.005-.02.009-.031.004-.014.015-.008.027-.006.014.002.028-.009.02-.02-.008-.01-.029-.016-.041-.02-.038-.015-.073-.03-.114-.041-.037-.01-.071-.026-.099-.049-.014-.012-.028-.021-.044-.031-.01-.006-.028-.019-.018-.031.007-.009.021-.003.031,0,.009.003.019.003.029.005.009.002.015.007.022.012.013.008.031.009.042.018.012.01.016.017.033.021.018.004.029.013.045.02.018.008.04.009.06.014.02.005.039.013.056.023.007.004.014.009.022.012.008.003.019.002.026.006.011.006.005.019.007.028.002.008.007.014.011.021.004.008.005.016.012.023.005.005.012.008.018.012.007.005.01.01.015.016.011.012.035.011.051.017.019.007.036.016.057.018.021.003.042.004.063.006.01,0,.021.002.03,0,.008-.001.006,0,.009-.006h0c.004-.006,0-.014-.009-.015-.008-.002-.017-.003-.022-.01-.004-.005-.003-.012-.006-.018-.003-.006-.007-.01-.013-.015-.005-.004-.017-.01-.009-.015.01-.006.032.006.044.002.01-.003.015-.012.024-.017.012-.006.023,0,.036.002.016.004.034.006.05.007.018.002.034-.002.052.002.021.005.035-.004.055-.006.013-.001.029,0,.042-.002.008-.001.01-.009.004-.013,0,0-.001,0-.002-.001-.006-.005-.01-.011-.015-.016-.005-.004-.01-.008-.016-.011-.005-.002-.013-.002-.016-.007-.009-.01.008-.019.016-.025.005-.004.011-.007.013-.013.002-.005,0-.011.004-.016.006-.008.021-.01.03-.015.007-.004.011-.006.019-.008.003,0,.015-.002.016-.006,0-.004-.012-.006-.012-.011-.001-.009.013-.009.02-.01.014-.003.019-.011.029-.019.007-.006.013-.008.013-.011.001-.005.006-.009.012-.008.005,0,.01,0,.015-.001.009-.004.012-.012.024-.011.017.001.025.015.043.015.007,0,.035-.003.031.008-.003.012-.034.005-.044.005-.022,0-.025.017-.008.027.007.004.016.005.022.009.008.006.006.013.011.02.012.02.049.024.073.022.015-.002.029-.006.044-.009.015-.002.029-.001.045-.002.011,0,.029-.002.032-.013.002-.01-.01-.014-.015-.02-.001-.002.001-.004-.002-.006-.002-.002-.007-.002-.01-.002,0,0,0,0-.001,0-.007,0-.014-.002-.02-.005-.003-.002-.009-.003-.011-.004-.005-.003-.008-.007-.014-.009-.007-.002-.014,0-.02-.003.013-.007.032-.002.047-.003.017,0,.035-.004.052-.006.008-.001.015-.003.022-.006.005-.003.011-.009.017-.01.002,0,.004,0,.006.001.019.008.021.03.003.041-.011.007-.022.013-.032.02-.015.011-.002.021.006.032.006.007.011.013.019.018.009.005.02.005.029.01.008.004.011.011.02.014.011.003.024,0,.036.004.02.006.033.017.054.021.02.004.023.019.039.027.009.005.03.012.025.023-.004.012-.026.022-.039.023-.025.002-.05-.006-.075-.006-.01,0-.02.002-.03-.002-.01-.004-.017-.009-.029-.011-.012-.002-.025,0-.037-.003-.012-.003-.022-.008-.033-.011-.012-.003-.022-.004-.033-.009-.011-.005-.022-.011-.034-.015-.023-.006-.047-.002-.07-.006-.011-.002-.021-.005-.031,0-.01.005-.011.01-.024.01-.024,0-.049-.006-.073-.004-.01.001-.018.006-.028.008-.011.002-.023-.001-.034-.002-.017-.002-.038-.002-.05.01-.005.005-.006.009-.013.012-.009.004-.021.005-.03.008-.023.009-.046-.003-.068.005-.008.003-.013.01-.022.012-.011.003-.023,0-.034.001-.001,0-.003,0-.004,0-.012.001-.018.011-.014.02h0c.005.01-.006.017-.002.026.002.004.007.006.009.01.003.005.001.009.003.013.003.01.01.01.02.014.003.001.007.002.009.005.004.004,0,.007,0,.008.002.006.011.007.018.009.025.009.043.022.071.027.03.005.062.009.092.007.024-.002.051-.013.075-.006.013.003.017.012.027.018.011.007.025.009.038.01.029,0,.059-.005.089-.005.021,0,.048-.014.061.006.012.018-.014.036-.028.048-.008.007-.02.012-.027.019-.009.009.001.018-.004.028-.005.009-.017.009-.021.019-.004.01-.004.016-.014.024-.016.011-.04.019-.061.015-.026-.006-.047-.021-.072-.028-.028-.008-.052-.01-.079,0-.028.011-.05.012-.08.003-.028-.008-.056-.019-.086-.02-.014,0-.042.008-.052-.003-.008-.008-.001-.016-.018-.017-.008,0-.018.001-.026.002-.017.002-.04.007-.056.002-.006-.002-.009-.004-.009-.007,0-.006-.004-.011-.011-.012h-.003c-.008-.001-.011-.002-.015-.005-.007-.005-.01-.01-.02-.013-.022-.007-.036-.005-.057.002-.013.004-.027,0-.041.001-.017.002-.023.011-.037.017-.015.006-.019.007-.021.022-.001.01-.003.018-.016.022-.02.005-.045-.006-.066-.007-.031,0-.062-.004-.089-.018-.01-.005-.005-.006-.008-.013-.002-.005-.007-.009-.013-.011-.007-.002-.014,0-.02-.003-.006-.003-.009-.008-.016-.011-.014-.005-.029-.004-.043-.009-.014-.005-.024-.007-.039-.004-.014.003-.027.006-.037-.004-.01-.011-.011-.018-.031-.013-.02.005-.03,0-.05-.003,0,0-.002,0-.002,0-.008,0-.011-.01-.004-.013.002-.001.003-.003.004-.005.005-.011-.014-.018-.012-.029,0-.008.021-.019.01-.027-.009-.006-.027.008-.032-.002,0-.002,0-.003,0-.005.004-.009.002-.019-.007-.025,0,0,0,0-.001-.001-.002-.003-.005-.006-.008-.008-.005-.003-.01-.006-.016-.007-.013-.003-.026-.004-.04-.007-.013-.003-.028-.005-.041-.001-.013.004-.023.011-.037.013-.033.006-.066.005-.099.005-.033,0-.064.003-.096.006-.017.002-.033.003-.05.002-.017,0-.033.003-.049.005-.015.002-.028-.004-.043-.004-.015,0-.028.007-.042.01-.015.004-.03.006-.043.012-.013.006-.024.014-.037.019-.006.002-.013.003-.018.005-.006.003-.008.008-.013.012-.01.007-.023.006-.035.006-.042.002-.083.01-.124.012-.015,0-.03.002-.044.004h0c-.029.005-.056.018-.073.039-.003.003-.005.006-.009.009-.005.004-.009.005-.015.006-.01.001-.026.006-.035.011-.018.01-.033.023-.051.033-.002.001-.005.003-.008.004-.021.01-.033.029-.032.048,0,.003,0,.007.001.01.003.012-.006.018.009.028.013.008.02.015.006.026-.012.01-.023.012-.03.026-.007.015-.021.02-.04.024-.029.006-.04.012-.077.038-.004.003-.007.006-.01.009-.01.01-.03.011-.033.024-.004.015-.008.023-.025.031-.006.003-.012.005-.017.009-.006.007,0,.01-.003.017-.002.006-.008.006-.013.01-.005.004-.006.01-.007.016-.001.012.003.025-.007.036-.009.009-.024.011-.032.02-.01.011.006.021,0,.033-.005.01-.022.011-.027.022-.005.012.009.02.018.027.006.005.01.011.016.015.006.004.015.005.021.009.013.009.012.024.015.036.004.015.014.027.021.041.007.015.003.029-.007.043-.008.011-.023.02-.025.033-.003.014.013.018.02.029.006.01-.005.023.012.026.009.001.01-.001.016.005.004.004.003.008.01.01.007.002.016-.002.024-.002.008,0,.018.003.024.008.006.005.008.011.013.016.006.005.015.009.023.012.017.007.036.01.053.018.015.008.027.019.039.029.025.021.051.037.087.043.035.005.062.022.095.031.029.008.037.035.068.041.038.007.079-.003.113-.015.034-.012.067-.029.104-.032.038-.003.076.01.114.003.006-.001.017-.004.022-.008.007-.006.017-.009.027-.011.014-.002.028-.008.04-.012.027-.009.053-.017.081-.024.025-.007.053-.011.079-.004.023.007.038.022.056.035.045.032.092.006.143.011.038.004.061.032.056.062-.004.018-.018.032-.029.048-.012.018-.017.038-.013.058.009.044.067.051.103.077.04.03.069.068.078.112.004.022.009.042.019.063.008.017.019.035.005.052-.014.016-.038.023-.053.039-.016.018-.026.04-.03.062-.008.043.017.08.046.114.016.018.033.037.045.057.006.01.011.021.012.032,0,.011-.004.022-.003.033.002.019.02.034.025.053.006.022.003.042.019.061.014.017.032.03.043.048.012.019.02.041.023.062.003.021,0,.043.015.062.007.009.015.017.02.026.005.009.009.019.017.027.031.028.078-.006.108-.017.046-.018.092-.015.141-.012.02.001.04,0,.052-.015.009-.011.011-.024.03-.025.011,0,.02.004.031,0,.012-.004.022-.014.031-.021.017-.013.029-.029.049-.038.024-.01.05-.015.072-.029.021-.013.036-.03.048-.049.01-.016.015-.034.04-.038.013-.002.027,0,.04-.003.009-.002.024-.006.013-.015.044-.008.062-.038.064-.073.002-.022-.013-.042-.004-.064.008-.019.028-.032.05-.04.025-.009.052-.012.079-.015.024-.002.053-.002.074-.012.02-.01.032-.03.047-.043.018-.016.033-.032.041-.053.007-.019.009-.04.007-.06-.003-.021-.015-.039-.02-.059-.005-.022.008-.042.006-.063-.002-.018-.018-.034-.015-.052.004-.027.047-.036.071-.049.042-.021.073-.053.121-.067.049-.015.103-.016.146-.043.022-.014.041-.029.066-.038.026-.009.054-.015.078-.028.043-.022.072-.057.112-.082.026-.017.068-.036.065-.068-.005-.047-.084-.039-.124-.039-.031,0-.062.001-.093.003-.028.001-.059.005-.087-.002-.02-.005-.047-.015-.06-.028-.014-.015-.007-.035.012-.044.043-.02.092.01.134.015.028.003.053-.006.079-.011.029-.005.059-.003.089-.004.062-.003.124-.008.186-.014.03-.003.061,0,.091-.004.029-.003.056-.013.082-.024.027-.011.054-.021.083-.029.019-.005.038-.009.056-.017.02-.009.065-.029.058-.052-.004-.016-.03-.018-.04-.031-.007-.008-.01-.017-.02-.023-.009-.005-.02-.008-.031-.01-.021-.004-.042-.007-.055-.022-.012-.013-.024-.036-.028-.051-.003-.011,0-.028.018-.024.013.003.025.015.033.024.012.011.021.024.035.033.021.015.048.02.075.024.061.008.122.014.183.027.05.01.101.026.137.057.018.015.03.035.055.043.013.004.022.006.028.017.005.008.007.015.017.021.01.006.045.012.044.027-.001.011-.025.004-.033.005-.006,0-.018.002-.019.009-.002.009.015.011.022.013.025.005.027.024.037.041.02.035.06.022.097.018.018-.002.033.003.031.019-.002.017-.017.028-.024.042-.004.008,0,.018,0,.026,0,.011.003.021,0,.031-.006.022-.014.04-.013.064,0,.012.006.021.011.031.005.011.006.022.01.034.004.011.01.02.011.032,0,.006-.002.011,0,.017,0,.005.006.01.004.015-.003.006-.015.004-.017.01-.002.007.013.008.018.012.007.007.005.019.007.027.003.01.013.019.016.029.003.01-.007.018-.009.027-.002.011.003.02.009.029.008.012.015.03.034.032.013.002.026-.004.038-.007.014-.003.028-.006.042-.009.013-.003.023-.002.034-.009.004-.003.006-.006.011-.007.006-.001.012.002.018.002.023-.002.015-.034.032-.045.012-.008.034-.007.04-.021.008-.018-.017-.033.01-.044.014-.006.014-.02.026-.026.009-.004.019,0,.028.001.013,0,.026-.004.039-.004.011,0,.028.004.037-.004.008-.006.003-.016.017-.017.009-.001.018.004.028.003.014-.002.023-.009.038-.009.006,0,.018.001.022-.004.001-.001.003-.002.005-.001.009.002.027-.008.032-.011.018-.008.032.006.048.009.017.003.036-.003.051-.008.008-.003.02-.008.031-.012.013-.004.027.002.034.012.005.006.021.013.026.014.014.003.029.002.043.004.019.003.032.014.049.022.019.009.022.015.018.033-.004.016.005.029.007.045.003.016.014.029.021.044.003.006.006.013.01.019.003.005.01.008.014.013.006.009.001.033-.003.043-.003.007-.008.013-.016.017-.005.003-.014.004-.017.009-.007.011.012.027.022.032.01.006.03.01.042.006.011-.004.008-.022.022-.017.007.003.009.01.016.013.007.003.014.002.019.008.006.008.006.024.004.032-.003.012-.017.019-.019.031,0,.007.003.013.002.019,0,.006.002.012.001.017,0,.007-.005.01,0,.017.003.005.009.008.009.015,0,.013-.017.018-.025.027-.012.012-.005.028-.015.04-.006.006-.015.009-.022.014-.008.005-.014.012-.022.017,0,0-.002,0-.003.001-.009.005-.007.016.004.018.009.002.017.003.023.008.01.008.006.017.005.027-.002.01.003.014.007.023.002.004.001.008.002.012,0,.005.005.009.006.013.002.009-.005.008-.013.012-.009.005-.006.007-.002.014.005.008.005.011-.001.019-.007.009-.017.013-.014.025,0,.003.007.011.005.015,0,0,0,0,0,0-.006.006-.01.013-.007.02.002.004.003.008.004.012,0,.005,0,.009.003.013.003.004.009.006.012.011.009.014,0,.032.015.045.009.008.018.004.029.007.012.004.011.017.028.015.032-.004.012-.032.017-.047.004-.01.016-.017.021-.027.005-.011.005-.023.006-.035,0-.014.003-.028.001-.042-.002-.011-.009-.021-.015-.032-.007-.011-.014-.022-.017-.034-.004-.012,0-.022,0-.034,0-.018-.021-.031-.011-.05.006-.012.02-.019.031-.028.011-.009.015-.02.022-.031.007-.01.015-.014.027-.007.006.004.012.008.019.013.009.006.015.016.014.025,0,.003,0,.005.003.01.005.009.012.017.017.026.005.009.008.018.015.026.005.006.014.012.012.02,0,.004-.005.006-.007.009-.002.005.001.01.003.014.003.008.01.018.006.026-.003.007-.013.009-.012.017,0,.008.012.015.018.02.006.004.017.012.026.01.007-.002.009-.011.017-.013.007-.001.015.005.021.007.01.002.02,0,.03,0,.011.001.02.007.031.009.012.002.024,0,.035.005.01.004.017.01.029.012.011.001.022,0,.033-.003.022-.006.041-.02.053-.036.007-.009.012-.019.019-.029.005-.007.01-.012.008-.019,0-.003,0-.007.003-.009.006-.005-.003-.017-.005-.023-.003-.015.012-.02-.002-.035-.007-.007-.011-.014-.017-.021-.005-.006-.016-.01-.021-.017-.007-.011.009-.021-.001-.032-.005-.005-.015-.007-.018-.014-.003-.008.005-.014.009-.02.008-.01,0-.024.008-.033.012-.013.043-.011.059-.005.009.003.014.007.024.006.01-.001.017-.004.027-.003.024,0,.039.012.047.031.004.009-.003.015.004.023.002.003.005.005.008.007.005.004.003.011-.003.013h0c-.01.003-.019,0-.029-.003-.01-.002-.021-.004-.031-.002-.005.001-.009.003-.012.007-.004.006.002.009.003.014.002.012-.011.014.003.025.009.006.022.012.034.014.01.002.017-.002.026-.003.008-.001.015,0,.023,0,.042,0-.01-.041.021-.049.014-.003.027.007.04.008.016.001.029-.01.045-.001.008.004.013.009.021.013.009.003.018.005.026.01.008.004.013.01.022.013.009.003.018.002.027.005.016.006.027.017.043.022.018.005.038.005.057.008.033.006.068.026.103.018.016-.004.029-.015.046-.011.013.003.027.017.042.014.012-.003.006-.013.014-.019.009-.007.026-.003.037-.002.03.003.058-.014.088-.017.015-.002.019-.006.018-.018-.001-.014-.001-.023.014-.032.012-.007.034-.014.035-.028,0-.014-.02-.022-.023-.035-.004-.012.008-.023.006-.035-.003-.015-.012-.023-.007-.039.004-.015-.006-.025-.004-.04.001-.012.013-.022.029-.019.015.003.025.015.041.011.015-.003.02-.008.034,0,.02.013.033.027.061.018.033-.01,0-.037-.015-.047-.029-.02-.064-.03-.093-.048-.014-.009-.02-.022-.032-.032-.005-.004-.012-.007-.016-.012-.004-.006-.007-.015-.008-.022-.001-.004,0-.008,0-.012.003-.01.02-.012.027-.003.001.002.003.004.005.005.011.011.031.015.046.008.013-.005.028-.003.045,0,.014.003.028.007.043.009.008,0,.015,0,.023,0,.009,0,.013.01.005.014-.013.007-.03.012-.043.016-.026.008-.014.021-.001.037.006.007.011.015.022.018.012.003.024,0,.036.003.021.005.046.014.055.032.004.008.005.019,0,.027-.006.009-.015.007-.023.013-.016.013.018.033.024.044.008.012.006.033.007.047,0,.006.003.015-.002.021-.005.006-.016.005-.024.008-.021.006-.023.025-.021.04,0,.004.001.006-.001.01-.003.006-.009.005-.004.011.003.005.021.01.024.016.003.005.009.008.015.009.003,0,.007.001.01.002.008.003.013.009.02.012.015.007.032.002.047.007.015.005.036.029.053.021.01-.004.01-.016.018-.022.008-.006.027-.004.029-.014.003-.014-.017-.015-.002-.029.013-.012.005-.019.001-.034-.003-.012-.013-.024-.008-.035.003-.007.006-.009.004-.017-.001-.005-.006-.009-.002-.014.009-.013.04.002.052.005.031.009.061-.002.092-.005.016-.002.034-.003.051-.002.019,0,.024.009.031.022.013.025.036.047.067.058.035.013.079.013.117.018.017.002.034.006.051.007.006,0,.014,0,.019-.004.005-.004.004-.011.009-.014.011-.007.037.006.049.007.019.002.036-.006.054-.003.019.003.036.008.055.01.019.001.038,0,.056-.004.011-.002.032-.003.036-.013.004-.011-.003-.018.009-.028.01-.008.021-.021.034-.025.017-.005.035.002.052-.004.015-.005.027-.017.036-.028.01-.012.009-.029.019-.04.008-.009.027-.012.024-.026-.002-.012-.019-.021-.025-.033-.011-.025-.01-.059-.046-.071-.011-.004-.03-.001-.036-.012-.004-.008.002-.018-.004-.027-.012-.02-.041-.028-.056-.047,0,0,0,0,0,0-.01-.013.009-.028.025-.019.003.002.006.003.01.004.017.005.031-.005.048-.003.016.002.028.014.043.018.018.005.038.002.057.007.016.004.029.015.047.017.01,0,.019-.002.029,0,.009,0,.018.005.027.006.019.003.037,0,.056.006.019.006.036.01.055.013.036.005.067.018.093.039.013.01.026.02.036.032.01.013.01.028.023.04.012.011.013.026.026.036.014.011.028.022.041.034.013.012.024.026.037.039.013.012.023.015.041.018.028.004.062.019.068.044.003.013-.005.025.008.036.007.006.022.013.005.016-.002,0-.003,0-.005,0-.006,0-.009.006-.005.009.006.004.011.009.011.014,0,.001,0,.002,0,.003-.006.009.001.02.013.023.008.002.016.004.021.006.029.012.04.039.06.059.006.006.013.01.021.014.004.002.01.003.014.005.002,0,.005.002.006.003.002.002-.001.004-.002.006-.002.003.001.005.004.008.004.004.009.008.013.011.007.006.016.011.026.012.035.003.013-.029.022-.041.008-.011.023,0,.032.004.012.007.024.009.039.011.016.002.031.009.048.009.016,0,.025-.002.035.01.008.009.012.021.025.026.002,0,.009.002.013.002.004,0,.009,0,.012.003.009.007.019.014.029.02.013.007.027.014.035.025.012.016-.003.022-.018.027-.006.002-.009.008-.007.013.006.012-.014-.001-.025.006-.006.004.01.023.008.028-.001.003-.002.005,0,.007.005.004.011.008.015.013.005.007.008.015.016.021.009.006.02.003.029.006.01.004.01.012.016.019.007.008.02.008.03.013.011.005.018.013.026.019.008.006.018.012.03.013.012.001.021-.004.032-.006.019-.003.042.009.053.021.018.018-.018.013-.03.012-.012-.001-.023-.002-.034.001-.011.003-.022.012-.034.01-.012-.002-.014-.011-.019-.018-.006-.008-.015-.013-.024-.019-.018-.013-.035-.03-.058-.037-.012-.004-.026-.003-.038-.006-.011-.003-.019-.01-.03-.014-.013-.004-.024,0-.037-.002-.011-.001-.021-.006-.03-.011-.019-.011-.035-.021-.058-.027-.025-.007-.041-.015-.057-.032-.012-.013-.028-.035-.051-.036-.023,0-.038.016-.064.01-.022-.005-.039-.014-.063-.011-.046.005-.064.033-.078.065-.007.016-.022.023-.035.036-.01.009-.034.03-.029.043,0,.002.002.004.004.006.004.004,0,.01-.007.011-.006,0-.011.002-.014.006-.006.008,0,.015-.012.021-.01.006-.017.006-.016.019.001.011.011.022.019.03.017.017.042.029.069.03.016,0,.031-.003.046-.009.012-.005.023-.01.034-.001.008.007.01.013.024.009.012-.003.019-.009.033-.007.025.004.046.024.058.041.01.015.019.032.043.026.014-.003.024-.008.038-.005.016.003.03.012.045.015.029.007.05-.006.07-.021.016-.012.047-.029.03-.048-.007-.008-.025-.02-.006-.027.013-.004.031,0,.044,0,.026.003.05-.004.076-.003.029.001.041.016.051.036.011.023.031.034.05.051.018.017.02.04.033.059.007.01.015.02.027.025.011.005.022.008.032.016.011.009.02.021.026.033.006.011.004.014-.003.022-.033.041.045.084.084.096.007.002.023.006.022-.005.016-.003.028.011.036.02.01.012.017.023.034.029.021.008.04.011.056.027.014.015.024.031.041.045.017.014.04.021.058.034.017.013.031.029.043.045.025.034.039.069.044.108,0,.005.002.018.009.02.003,0,.008-.002.012-.002.005,0,.009.002.013.003.014.004.033.012.038-.006.004-.015-.008-.033-.009-.048,0-.019.013-.037.013-.056,0-.04-.028-.081-.045-.117-.02-.042-.04-.084-.06-.126-.04-.084-.081-.168-.124-.251-.043-.083-.088-.165-.134-.247-.046-.081-.095-.162-.145-.242-.05-.08-.102-.159-.155-.237-.053-.078-.109-.156-.166-.232-.057-.077-.116-.153-.176-.227-.06-.075-.122-.149-.186-.222-.063-.073-.129-.145-.195-.216-.066-.071-.134-.141-.204-.209-.07-.069-.141-.137-.213-.203-.073-.067-.147-.133-.222-.198-.076-.065-.153-.129-.232-.192-.021-.017-.042-.033-.064-.047ZM17.639,6.801s-.002-.002-.002-.003c-.022-.031-.034-.066-.051-.099-.033-.062-.035-.065-.035-.065-.016-.03-.033-.061-.044-.093-.008-.023-.01-.04.02-.02.037.025.077.043.108.073.021.02.035.045.045.07.019.045.041.085.068.127.023.036.048.074.062.113.011.031-.026.011-.04.002-.024-.014-.045-.031-.066-.048-.023-.018-.048-.034-.065-.056ZM17.821,5.069s-.024-.003-.052-.008c-.028-.005-.013-.015-.016-.02-.003-.005,0,0-.035-.008-.003,0-.006-.001-.009-.002-.01-.002-.019.002-.024.009-.004.006-.019,0-.015.01.003.007.009.012.015.016,0,0,0,0,.007.004.004.002,0,.005,0,.008.001.005.022.013.021.016-.002.004-.027,0-.031-.001-.027-.003-.019.001-.033-.004-.02-.007-.038-.017-.058-.024-.002,0-.006-.006-.008-.008-.003-.002-.008-.005-.009-.009,0-.004.012-.018.006-.023-.002-.002-.005-.005-.006-.008,0-.002.001-.004,0-.007-.002-.007-.011-.011-.019-.013-.008-.002-.018-.001-.024-.007-.008-.008-.018-.009-.028-.014-.004-.002-.007-.006-.011-.008-.009-.005-.02-.005-.03-.005-.015-.001-.029-.007-.042-.013-.01-.005-.007-.008.004-.008.007,0,.015.001.021.003.014.004.047.014.073.021l.004.002s.038.009.057.01c.018,0,.026.009.031.012.005.003.027.005.045.007.018.002.022.01.036.011.013.002.068.006.08.008.012.001.042.004.073,0,.031-.004.006.014.011.026.005.013-.01.008.002.017.021.017-.035.01-.04.01ZM18.525,6.699c-.011.018-.032.013-.051.021-.013.005-.028.013-.043.012-.018-.001-.036-.004-.054-.006-.013-.002-.034-.003-.021-.017.015-.016.01-.031-.002-.042-.009-.008-.024-.019-.038-.018-.008,0-.012.006-.019.007-.007,0-.016-.002-.02-.007-.006-.006.002-.01,0-.016,0-.007-.013-.011-.013-.019,0-.004.005-.009.003-.013-.002-.004-.009-.004-.012-.006-.013-.008-.028-.011-.035-.024-.004-.007-.013-.012-.016-.019-.002-.004.002-.012-.007-.012-.002-.007-.01-.013-.011-.02-.001-.008.017-.004.022-.003.011,0,.021.001.032-.002.006-.002.013-.006.019-.006.009,0,.007.009.011.014.003.004.01.008.011.013,0,.002,0,.006,0,.008.002.003.007.004.009.007.003.005-.001.01,0,.014,0,.004.01.01.009.014-.001.003.011.009.012.013,0,.003,0,.006,0,.008.009.012.032.003.044.008.005.002.005.007.009.01.005.003.012.003.017.007.005.004.006.009.01.013.005.004.012.005.018.006.009.001.008.001.013.007.006.007.024.005.024.015,0,.012.029.015.04.016.013,0,.023-.003.036,0,.014.003.005.012,0,.019Z"/>
    </g>
    <path class="cls-20" d="M14.299,7.974c-.007.037.016.085.023.12.009.046.019.107-.023.145-.047.043-.146.066-.141.136.004.057.038.125.002.18-.019.029-.035.049-.025.082.006.021-.004.041-.025.054-.02.012-.034.031-.038.051-.007.031-.009.063-.003.094.003.017.006.023-.01.035-.014.01-.029.019-.042.03-.018.016-.018.031-.018.052,0,.015-.006.028-.019.039-.011.011-.029.019-.023.036.007.019.028.032.033.052.006.027,0,.053-.006.08-.006.027.039.047.052.072.022.043-.044.1.012.135.027.017.08.016.1.038.026.029-.047.067-.087.068-.004,0-.006-.004-.003-.007.009-.005.017-.013.025-.02.006-.005.005-.014-.002-.019-.015-.01-.037-.003-.054.004-.022.009-.042.009-.066.007-.035-.002-.1-.004-.115-.037-.003-.007-.003-.016.001-.021.004-.003.004-.009,0-.012-.015-.015-.025-.032-.038-.048-.003-.003-.008-.008-.012-.01-.01-.006-.018-.006-.023-.017-.01-.019.015-.032.019-.05.006-.024-.013-.073-.045-.082-.009-.003-.01.001-.017.001-.023,0-.038-.016-.053-.029-.014-.011-.03-.023-.037-.038-.009-.018-.01-.039-.013-.058-.014-.076-.054-.146-.105-.21-.05-.063-.073-.132-.104-.201-.023-.053-.062-.106-.136-.114-.073-.008-.146.01-.22-.004-.016-.003-.032-.008-.047-.014-.016-.007-.025-.02-.04-.027-.011-.006-.023-.004-.035-.005-.017-.001-.027-.006-.041-.014-.035-.019-.072-.038-.112-.049-.029-.008-.062-.013-.084-.032-.016-.013-.007-.035-.013-.053-.008-.023-.031-.043-.045-.064-.027-.04-.027-.071-.021-.113.008-.058-.024-.123-.084-.158-.021-.012-.051-.023-.074-.008-.019.012-.028.034-.04.05-.038.055-.118.061-.189.054-.039-.004-.077-.014-.115-.023-.01-.002-.021-.006-.031-.007-.017-.002-.031.004-.048.008-.027.007-.055.014-.082.02-.029.006-.045.026-.077.028-.037.002-.073-.002-.11-.001-.032,0-.055.017-.077.037-.024.022-.032.047-.066.06-.036.014-.075.02-.112.032-.069.022-.132.052-.209.043-.061-.008-.112-.044-.171-.045-.041-.001-.081.007-.122.007-.036,0-.071-.005-.106-.011-.063-.009-.124-.027-.188-.015-.028.005-.063.014-.079.035.019-.008.067.014.082.025.016.011.022.029.037.041.017.014.039.012.061.01.053-.005.101-.014.155-.009.03.003.03.016.019.038-.009.018-.029.047-.052.054-.018.006-.049.008-.068.005-.019-.003-.033-.014-.051-.018-.046-.01-.097.034-.138.013-.016-.008-.026-.022-.043-.03-.021-.011-.014-.024-.024-.04-.012-.019-.039-.016-.061-.015-.029.001-.053-.005-.08-.012-.029-.008-.059-.015-.09-.011-.03.003-.059.014-.087.023-.028.009-.057.019-.087.02-.027,0-.05-.009-.075-.016-.047-.014-.093.001-.138-.012-.057-.017-.115-.035-.165-.063-.046-.025-.067-.049-.086-.09-.015-.032-.03-.059-.075-.065-.038-.005-.08-.018-.046-.053.007-.007.026-.018.026-.028,0-.015-.031-.019-.044-.021-.115-.013-.178.108-.292.103-.031-.001-.056-.013-.088-.01-.033.004-.066.011-.099.018-.034.007-.068.016-.102.019-.035.003-.071.001-.107.002-.039,0-.076.005-.113.014-.032.007-.074.014-.1.032-.011.008-.008.01-.01.021-.002.009-.007.017-.014.024-.027.024-.066.039-.101.054-.029.012-.062.022-.088.039-.022.014-.035.035-.048.054-.017.024-.038.045-.059.066-.04.04-.074.088-.127.118-.022.013-.049.019-.07.034-.021.015-.029.038-.029.06,0,.021.007.041.008.062.002.032-.011.048-.035.083-.007.01-.015.02-.024.03-.017.019-.019.017-.037.021-.042.01-.029.072.003.087.013.006.022.002.034.014.012.012.016.028.017.043.003.047-.007.095,0,.142.006.046.032.089.051.133.02.045.034.093.019.14-.015.048-.049.091-.067.138-.012.033-.013.069-.044.095-.039.034-.049-.013-.051-.039-.004-.047.003-.094.007-.141.004-.053-.007-.105-.006-.158,0-.022.001-.045.003-.067-.032-.028-.065-.005-.077.024-.011.025-.029.048-.045.071-.019.027-.039.056-.071.074-.015.008-.023.011-.041.014-.02.003-.042.009-.051.025-.016.029-.024.071-.068.082-.01.003-.021.002-.031-.002-.009-.003-.018-.015-.028-.013-.009.001-.019.019-.024.024-.051.055-.09-.015-.105-.054-.025-.068.018-.142.012-.211-.001-.015-.004-.027-.015-.039-.005-.006-.016-.012-.019-.018-.005-.01.001-.019.005-.029.017-.045.034-.089.051-.134.07-.175.147-.349.233-.519.085-.17.178-.337.278-.5.1-.163.207-.323.321-.48.057-.078.116-.155.176-.232.007-.009.013-.02.023-.027.01-.007.024-.009.035-.017.004-.003.006-.006.01-.009.018-.015.04-.028.059-.042.102-.072.197-.149.305-.215.05-.03.104-.062.163-.079.019-.005.041-.01.061-.007.047.008-.002.019-.012.035-.005.009-.003.007.009.006.013-.001.027-.008.038-.013.038-.018.063-.052.091-.079.031-.03.06-.061.102-.082.013-.007.025-.013.04-.017.022-.006.045-.006.066-.011.022-.005.022-.013.012-.028-.011-.017-.01-.016.002-.031,0,0-.002,0-.002,0,.015-.013.032-.025.049-.036.039-.027.079-.061.122-.082.06-.029.131-.049.195-.071.031-.011.047-.039.07-.059.036-.031.077-.06.122-.082.018-.009.036-.014.055-.02.016-.005.026-.016.039-.025.015-.012.056-.038.035-.058-.016-.015-.054-.013-.075-.014-.035,0-.07.001-.105.002-.02,0-.039.001-.059.001-.029,0-.027-.011-.015-.029.016-.026.03-.061.009-.087-.009-.011-.024-.018-.039-.023-.015-.004-.053,0-.061-.01-.009-.011.015-.031.023-.039.015-.018.03-.037.048-.053.032-.029.071-.051.113-.071.043-.02.086-.042.132-.058.015-.005.047-.018.038.005-.011.029-.049.048-.066.074-.011.019-.013.047-.016.068-.002.01-.004.02,0,.03.011.024.053.019.079.022.015.002.03.003.045.005.025.004.059.006.082.017-.023.015.021.019.031.02.014,0,.037.003.05-.004.009-.004.015-.014.024-.02.016-.01.034-.018.053-.025.013-.005.033-.01.046-.002.015.008.002.017.007.028.004.011.027.02.041.016.015-.005.02-.022.025-.033.007-.015.056-.081.038-.093-.014-.009-.063.004-.08.006-.021.003-.042.005-.063.007-.031.003-.06-.006-.091-.01-.025-.003-.038-.012-.06-.02-.013-.005-.032-.006-.043-.015-.021-.017.008-.06.022-.077.014-.017.04-.033.06-.047,0,0,0,0,.001,0,.007-.005.018-.003.022.004,0,.002.002.003.004.005.005.005.018.016.026.019.018.006.051-.002.07-.004.022-.002.055-.01.077-.004.011.003.02.011.031.014.023.006.036-.002.014-.016-.015-.01-.03-.006-.023-.024.002-.006.015-.018.01-.023-.006-.007-.034,0-.035-.014,0-.008.025-.019.032-.023.014-.009.016-.011.019-.024.003-.013.005-.027.018-.036.023-.015.064-.021.092-.026.015-.003.063-.015.068.002.006.019-.037.055-.05.069-.008.009-.018.016-.01.027.008.011.03.015.044.017.017.002.043.003.058-.006.012-.007.021-.022.03-.031.008-.009.036-.029.037-.041,0-.019-.034-.017,0-.025.013-.003.034-.012.043-.021.006-.006.005-.011.01-.018.015-.02.053-.026.078-.033.016-.004.032-.012.05-.011.016,0,.027.005.044.003.015-.002.032-.007.047-.006.015.001.031.013.046.01.022-.004.018-.028.021-.041.003-.016.023-.02.039-.028.034-.015.068-.035.109-.03.046.006-.005.039-.02.051-.008.006-.02.013-.025.022.025.01.075-.016.099-.024.033-.011.068-.022.102-.03.009-.002.019-.006.028-.004,0,0,0,0,0,0-.001.001-.002.003-.004.004.02-.007.045-.005.066,0,.007.001.021.003.025.008.005.005,0,.005.002.01.005.04.043.039.084.035.054-.005.109-.005.163-.014.013-.002.026-.005.038-.008.01-.003.023-.011.032-.012.02-.002.024.019.03.031.008.016.005.02-.008.034-.011.011-.022.023-.034.034-.01.01-.03.022-.037.033-.007.011.008.034-.015.038-.012.002-.029-.005-.041-.006-.011,0-.023,0-.035,0-.018,0-.039.004-.051-.007-.006-.006-.005-.015-.016-.016-.009,0-.026.011-.032.016-.03.026.027.045.052.046.015,0,.032-.004.045.001.008.003.016.012.022.017.01.008.028.017.035.027.01.015-.01.022-.023.029-.024.015-.051.032-.079.041-.019.006-.04.002-.061.003-.007,0-.014,0-.02.003.022.019.068-.009.095.014.03.026-.022.034-.045.04-.063.017-.129.024-.194.032-.05.006-.099.001-.147-.008-.028-.005-.049-.014-.077-.005-.016.005-.031.012-.046.018-.015.006-.03.001-.037.012-.007.011-.004.022-.016.033-.012.011-.03.015-.047.018-.014.003-.067.016-.064-.002.002-.012.025-.028.035-.036.012-.009.025-.015.038-.021.027-.012.051-.027.072-.045.024-.02.026-.027.029-.043.003-.015.01-.024.024-.035.014-.011.03-.021.042-.033.013-.013.021-.029.03-.044.01-.017.013-.027-.013-.031-.025-.004-.052-.006-.078-.006-.034,0-.057.02-.088.029-.027.008-.057.023-.085.014-.035-.011-.068-.02-.104-.009-.016.005-.033.012-.047.02-.013.007-.016.015-.025.023-.019.018-.046.025-.073.023-.026-.001-.048.015-.071.024-.011.004-.031.005-.033.018,0,.005,0,.006.006.005.019-.001.038-.013.057-.016.015-.003.034-.003.04.012.007.018.008.038.012.057.002.009.004.018.007.026.003.007.013.015.014.022.003.024-.044.051-.062.065-.028.021-.056.042-.086.061-.036.024-.088.044-.109.079-.009.015-.023.031-.026.048-.002.013.002.025-.001.037-.004.014-.009.027-.014.04-.009.026-.047.042-.071.059-.022.016-.046.032-.063.051-.014.014-.016.039-.025.057-.029.056-.063.111-.099.165-.006.01-.028.031-.018.042.006.007.021.005.03.005.035.001.071.005.106.003.036-.003.068-.009.104-.002.026.005.044.004.069-.003.035-.011.064-.029.098-.042.035-.014.075-.019.113-.025.069-.011.136-.019.202-.039.056-.017.102-.01.148.02.022.015.046.029.071.041.016.007.029.014.039-.002.013-.02.01-.04-.002-.059-.005-.007-.011-.016-.011-.024,0-.01.012-.02,0-.03-.012-.01-.044-.001-.034-.024.007-.015.033-.03.046-.042.032-.027.092-.083.039-.117-.038-.024-.094-.004-.135-.022-.023-.01-.011-.021.001-.035.019-.021.035-.035.022-.062-.011-.023-.025-.033-.049-.049-.021-.014-.032-.032-.009-.049.024-.018.052-.032.079-.046.035-.017.073-.038.112-.049.047-.013.104-.021.152-.014.04.005.074.001.113-.002.021-.002.045-.002.055.015.01.017,0,.045.023.056.016.008.041.001.057-.003.026-.007.051-.015.075-.025.043-.017.053-.012.061-.043.004-.018.009-.06.028-.073.011-.008.028-.001.042,0,.025.003.049.008.073.015.03.009.06.016.082.036.021.019.041.038.063.057.023.019.071.007.102.007.036,0,.073,0,.109.004.018.002.035.007.052.009.018.002.035.004.053.005.01.001.034,0,.042.006.019.013-.026.07-.036.085-.008.012-.026.023-.012.034.013.01.042.012.058.015.026.004.053.007.08.009.042.003.097-.006.111.037.004.012.005.02-.006.025-.012.005-.029.006-.042.011-.018.007-.037.012-.057.015-.033.005-.069.001-.101.01-.023.006-.045.02-.069.023-.065.01-.006-.08,0-.101.019-.072-.107.015-.127.028-.024.016-.046.035-.074.045-.042.015-.083.03-.123.048-.022.01-.044.021-.066.031-.009.004-.088.027-.049.043.02.008.056-.015.074-.019.014-.003.065-.01.068.006.003.013-.018.025-.017.04.001.015.014.023.03.028.033.011.069.004.102-.001.028-.005.077-.04.104-.017.035.031-.061.046-.083.052-.045.013-.1.026-.137.052-.007.005-.014.01-.021.015-.008.006-.018.01-.028.012-.009.002-.026.01-.029.011-.023.011-.047.023-.064.04-.025.025-.037.059-.051.088-.003.007-.005.016,0,.021.006.006.005.014-.002.019-.011.007-.025.013-.035.019-.028.015-.05.026-.062.053-.018.039-.017.083-.021.124-.002.024-.003.047-.007.07-.005.031.022.038.035.063.009.017-.018.036-.029.049-.01.011-.02.023-.03.035-.032.037-.079.094-.073.143.003.023.022.044.036.063.01.014.018.031.031.043.01.01.138.079.093.093-.026.008-.053-.003-.076-.009-.015-.004-.031-.002-.045-.008-.015-.006-.021-.017-.03-.028-.021-.025-.053-.036-.089-.025-.021.007-.024.03-.044.034-.017.004-.036,0-.054.006-.013.004-.028.011-.039.017-.019.01-.027.028-.048.036-.016.007-.022.01-.028.027-.008.025-.016.046-.045.061-.051.026-.098.037-.132.081-.013.017-.018.037-.031.055-.014.019-.043.045-.046.067-.003.023.026.038.046.049.033.017.06.045.079.073.009.013.015.026.019.04.002.008,0,.012.008.018.017.014.066.017.088.014.016-.002.025-.014.041-.005.014.008.015.013.036.011.028-.002.056-.021.079-.034.029-.016.058-.029.073-.054.008-.013.024-.028.016-.042-.009-.017-.025-.025-.02-.046.005-.021.02-.042.038-.058.013-.012.046-.034.067-.022.017.009.007.037.01.051.006.026.021.049.033.073.006.011.012.04.026.04.023.001.064-.033.079-.043.019-.01.044-.029.066-.033.034-.006.069.033.084.052.013.017.022.035.03.053.006.016.006.026.028.027.036.003.075.004.111.003.023-.001.034-.006.043-.022.012-.021.028-.04.047-.058.019-.018.02-.022.044-.023.018,0,.036-.002.051-.011.027-.017.018-.053.029-.077.013-.028.016-.074.055-.082.043-.01.056.028.094.037.012.003.023,0,.016-.009-.009-.012-.025-.022-.02-.038.008-.023.038-.039.065-.041.061-.004.122-.016.177-.036.048-.017.091-.051.145-.053.03-.001.061.012.09.02.034.009.065.017.1.019.065.004.123-.021.182-.038.025-.008.058-.004.084-.004.032,0,.065.02.091.036.017.011.053.019.062.034.011.019-.037.045.015.04.024-.002.047-.012.07-.013.029,0,.054-.012.082-.015.053-.005.111.028.162.014.023-.007.046-.014.069-.021.022-.007.048-.02.07-.012.03.01.052.03.086.028.027-.002.058-.008.085-.004.036.005.07.03.09.054.011.014.011.02,0,.033-.01.013-.021.027-.032.04-.041.049-.071.1-.091.157,0,.002-.001.005-.002.007Z"/>
    <g>
      <path class="cls-30" d="M13.04,4.412s0-.001,0,0t0,0Z"/>
      <path class="cls-44" d="M14.811,4.239c-.013-.009-.022-.004-.013-.012.009-.008-.015-.003-.037,0-.022.002-.03-.005-.039-.003-.009.001-.037.014-.076.014-.039,0-.073,0-.079.005,0,0-.007.004-.007.004-.031.005-.059.01-.063.012-.057.029-.094.015-.144.023-.029.005-.133.03-.143.057-.003.008-.022.013-.03.005-.008-.008-.013-.004-.009-.012.004-.008.026-.007.03-.01.004-.003-.004-.003.017-.01.02-.007.025-.013.037-.018.012-.005-.002-.011,0-.014.002-.002-.016-.013-.029-.011-.013.002-.023.004-.034,0-.011-.004-.006-.012-.023-.009l-.013.002s-.009,0-.011-.004c-.001-.003,0-.006.002-.008.001-.001,0-.003-.002-.003l-.023.004c-.032.006-.046.007-.047.004v-.003s.004-.007.008-.009c.003-.002.005-.004.006-.007.002-.005.009-.009-.003-.011-.012-.002-.017-.01-.023-.004-.006.006-.028.008-.049.011-.021.003-.006.002-.026.001-.012,0-.017,0-.019-.001,0,0-.001,0-.002,0-.013,0-.023.002-.034-.002-.003-.001-.005-.004-.003-.007.001-.002.004-.003.006-.005.002,0,.001-.003,0-.003-.047-.007-.115.017-.16.025-.058.01-.118.011-.176.023-.039.008-.078.022-.12.022-.019,0-.048.004-.077.011-.029.007-.03.007-.049.014-.046.015-.113.044-.163.049-.004,0-.006.003-.006.006.002.01.006.017.018.022.017.007-.044.016-.049.017,0,0,0,0,0,0-.024.005-.049.011-.074.014-.03.005-.038.003-.04-.003h0s-.003-.002-.006-.002l-.01-.003c-.027-.008-.035-.009-.043-.006-.008.003-.045-.005-.059.003-.014.008-.032.024-.058.035-.026.011.016.009-.028.023-.044.014-.021.017-.016.017.006,0,.04,0,.052-.004.011-.005.038-.013.04-.008,0,0,0,0,0,0,.003.005,0,.011-.006.012-.021.005-.051.012-.045.017.008.007.019.013.011.019-.008.006-.061.026-.063.023-.002-.003.004-.003-.016-.009-.039-.011-.091.002-.13.005-.016.001-.085-.005-.093.006l.003-.004c-.018.002-.038.005-.049.009-.004.001-.008.004-.01.007l-.005.007c-.009.011-.08.019-.049.022.031.003.023.002.032.007.009.005.032-.004.034,0,.002.004.041.005.01.014-.03.009-.048.01-.056.007,0,0-.008-.003-.008-.004,0-.001-.01,0-.021,0-.002,0-.004,0-.006.001-.043.015-.084.046-.133.043-.029-.002-.032-.019-.072-.012-.065.012-.119.051-.178.074-.077.03-.152.062-.227.095-.006.003-.007.009-.001.013h0s-.01.008-.033.015c-.023.007-.035.002-.052.013-.038.025-.088.032-.125.058-.001,0-.002.002-.002.004-.002.024-.092.052-.09.055.002.004.023,0,.017.009-.006.009-.001.007.014.009.015.002.034-.003.037-.004.004,0-.009.002.023-.013.032-.015.009-.012.03-.021.021-.008.045-.019.044-.012-.001.007-.007.015-.016.02-.009.005-.024.022-.031.025-.007.003-.031.008-.033.012-.002.005-.006.009-.029.012-.021.003-.075.027-.095.04-.005.003-.013.008-.018.011-.01.006-.021.012-.031.017-.026.014-.053.027-.079.041-.016.008-.032.016-.049.022-.007.002-.011.007-.017.011-.004.002-.009.004-.012.008-.002.003-.005.009-.002.012.004.004.016,0,.024.003.008.003.012-.002.03-.004.017-.003.012.001.033-.003.022-.004.02-.008.041-.009.022-.001.011.005.038-.003.027-.008.024-.003.03,0,.006.003.045-.009.022.003-.023.012-.028.005-.067.017-.029.009-.056.024-.086.032-.003,0-.005.003-.004.006,0,.002.001.005.002.008,0,.003.005.005.008.004.019-.006.044-.019.057-.009.002.001.005.002.007.001.012-.005.026-.01.039-.012.007-.001.012.005.008.01h0s.004.002.004.003c-.001,0-.003.002-.004.003-.005.004-.002.011.005.011.024,0,.059.005.072.005.087-.004.135-.056.209-.083.077-.028.175-.043.259-.053.025-.003.074-.013.097-.002.007.003-.021.036.012.039.028-.003.064-.02.096-.016.009.001-.005.017.005.016.019.006.045.007.048.024,0,.002.002.004.004.004.029.006.06-.005.087.012,0,0-.025.015-.028.017-.007.004-.021.01-.021.019,0,.003.01.005.012.007.011.006.011.016.007.025-.002.004.003.008.008.007.01-.003.021-.005.031-.007.02-.005.041-.008.06-.017.039-.017.067-.037.092.007.007.012-.089.014-.092.014-.022.004-.041.022-.056.034-.006.004-.015.013-.003.016.01.002.028-.002.038-.005.016-.004.031-.011.047-.013.021-.002.096-.022.123-.017.005,0,.007.007.002.009-.017.01-.046.024-.017.032.003,0,.005.004.004.007-.002.006-.007.012-.011.017-.009.01-.018.019-.028.028-.01.008-.02.017-.031.024-.004.003-.008.006-.013.008-.002.001-.005.002-.008.002-.003,0-.006,0-.008,0-.003,0-.003.002,0,.004.005.003.013.004.019.005.035.005.002.031-.022.046-.004.003-.003.008.002.009.011.003.023.009.029.015.002.002.002.005,0,.007-.01.007-.037.006-.035.015.01.012.068,0,.087.008.043.02.038.033.086.028.005,0,.009.004.006.007-.005.009-.014.018-.024.025-.003.002-.003.006,0,.008.019.011.013.03.04.034.017.003.029-.018.044-.014.024.007.02.033.04.043.027.013.069,0,.1.006.03.006.052.017.083.014.025-.002.045-.012.073-.012.055.001.127.028.17-.015.016-.016.008-.027.015-.044.003-.007.018-.018.023-.026.019-.034.023-.078.055-.106.029-.025.004-.07.026-.094.017-.019.042-.009.062-.02.015-.008.016-.022.031-.032.032-.021.08-.015.116-.027.044-.014.086-.027.119-.056.039-.036.078-.081.125-.11.048-.029.111-.027.166-.042.077-.021.151-.051.22-.085.027-.013.119-.037.057-.058-.028-.009-.087.006-.116.012-.017.004-.051.022-.068.013-.033-.018.064-.058.091-.072.002-.001.005-.001.007,0,.013.008.076.027.082.027.037.005.127.014.154-.016.004-.004.009-.013.014-.022.005-.009-.002-.02-.014-.022-.022-.004,0-.025-.027-.029-.067-.008-.134.009-.2,0-.005,0-.007-.012-.014-.013-.012-.002-.027.008-.038.005-.01-.002-.021-.007-.03-.013-.004-.002-.003-.007.001-.009.069-.028.143-.053.216-.038.006.001.007.008,0,.01-.019.006-.043.007-.064.009-.004,0-.005.004-.002.006.005.003.01.006.015.008.007.002.014.001.021,0,.01,0,.02,0,.03-.001.01,0,.019-.001.029-.002.012,0,.024,0,.035-.003.011-.002.017-.004.02-.004.004,0,.007-.002.009-.005.003-.003.005-.007.006-.011,0,0,0,0,0-.001,0-.001-.012-.004-.027-.002-.014.002-.032.007-.035.005-.002,0-.003-.001-.004-.002-.003-.002-.001-.006.002-.007.029-.006.089.004.108-.016.002-.002,0-.005-.003-.005-.008,0-.002-.004-.005-.006-.001,0-.002,0,0-.002,0-.001.003-.002.005-.003.005-.003.011-.005.016-.008.003-.002.005-.004.006-.007.002-.004-.002-.005-.007-.005-.003,0-.005,0-.008,0-.004,0-.009,0-.011-.003-.004-.004-.009-.003-.015-.003-.007,0-.014,0-.02-.001-.004,0-.014,0-.013-.005,0-.003.003-.005.005-.006.002-.001.005-.004.008-.004.003,0,.005.004.008.006.005.003.012.005.018.005.011,0,.035-.005.039-.006.005-.001.008-.001.029-.004.02-.003.02-.003.026-.003.005,0,.009-.002.012-.005.003-.002.005-.005.008-.008.002-.003,0-.007-.004-.006-.029.002-.067,0-.096-.002-.005,0-.007-.005-.004-.008.01-.009.024-.014.033-.023.007-.008-.003-.013-.011-.017-.003-.002-.008-.002-.011-.004-.004-.004.001-.007,0-.012-.002-.005-.013-.006-.018-.007-.009-.002-.031.005-.029-.002,0-.003.029-.012.034-.013.015-.003.039,0,.055-.003.037-.005.054-.012.056-.013.002,0-.007,0,.016-.004.023-.004.021-.006.025-.011.004-.005.01-.011.005-.015-.004-.003-.01-.004-.015-.006-.002,0-.004-.002-.006-.003-.003-.003-.001-.005-.007-.006-.013-.001-.024.007-.037.006-.006,0-.016,0-.021-.003-.006-.002,0-.005.005-.006.004-.002.014-.003.017-.006.003-.004-.002-.006-.003-.01,0-.006.011-.012-.001-.014-.004,0-.008,0-.012,0-.007.001-.015.004-.022.004-.004,0-.037,0-.038-.002,0-.003.003-.004,0-.006-.001-.001-.006-.002-.007-.002-.004,0-.031-.002-.024-.01.007-.008.016-.012.026-.016.008-.003.021-.007.024-.014.018-.032.126-.024.119-.073,0-.002.002-.005.004-.006.044-.017.097-.019.138-.039.002-.001.004-.004.003-.006-.008-.031.057-.026.082-.033.012-.003.022-.007.032-.008.01-.001.03-.005.018-.014Z"/>
    </g>
  </g>
  <g>
    <polygon class="cls-21" points="21.291 18.691 19.261 19.614 19.261 19.175 19.261 17.577 19.261 17.084 21.291 16.16 21.291 16.67 24.009 15.324 24.009 12.753 16.536 16.16 16.536 23.018 24.009 19.614 24.009 18.04 24.009 18.04 24.009 18.04 21.291 18.268 21.291 18.691"/>
    <polygon class="cls-23" points="15.893 16.16 15.893 23.018 13.143 21.763 12.15 20.082 11.17 20.865 8.465 19.635 8.414 19.614 8.414 12.753 11.138 13.995 11.138 18.691 12.15 17.887 13.169 19.614 13.169 14.918 15.537 15.999 15.588 16.024 15.638 16.045 15.893 16.16"/>
    <polygon class="cls-22" points="21.59 13.201 23.964 12.12 21.59 11.039 18.687 9.714 16.307 8.633 13.932 9.714 16.307 10.795 18.146 11.631 11.03 11.035 8.662 12.116 16.313 15.602 18.687 14.522 14.467 12.604 21.59 13.201"/>
  </g>
  <g id="Generative_Object" data-name="Generative Object" class="cls-8">
    <g>
      <path class="cls-11" d="M26.859,22.06c-2.33.977-4.66,1.955-6.99,2.932-.205-.286-1.006-1.373-1.004-1.639,3.033-1.321,6.067-2.641,9.1-3.962-.124.437-.287.921-.504,1.436-.194.46-.4.872-.602,1.233Z"/>
      <path class="cls-42" d="M19.705,25.587c-.047-.051-.087-.122-.132-.176.146-.065.33-.059.247-.223-.128-.254-.459-.596-.609-.867-.003-.005-.007-.091-.016-.108-.007-.014-.042,0-.049-.014-.036-.07-.133-.286-.165-.379-.002-.005-.038-.103,0-.095.326.585.72,1.141,1.12,1.693.025.034.209.194.156.223-.03.017-.125-.015-.132-.014-.006.001-.063.074-.082.081-.213.085-.204.024-.338-.122Z"/>
      <g>
        <path class="cls-12" d="M26.859,22.06c-.19.34-.415.705-.681,1.083-.238.338-.476.641-.705.91-1.602.66-3.203,1.321-4.805,1.981l-.074-.034c-.228-.343-.483-.673-.724-1.009,2.33-.977,4.66-1.955,6.99-2.932Z"/>
        <g>
          <path class="cls-2" d="M20.956,25.384c-.004-.089-.027-.203.123-.244.302-.083.435.314.132.352-.192.024-.163-.052-.255-.108Z"/>
          <path class="cls-37" d="M21.129,25.154c.24-.023.291.274.099.312-.297.058-.321-.29-.099-.312Z"/>
        </g>
        <g>
          <path class="cls-1" d="M20.956,25.384c.003.051.04.088.033.142-.013.1-.163.154-.272.142-.334-.037-.173-.534.239-.284Z"/>
          <path class="cls-51" d="M20.75,25.33c.238-.013.274.283.049.312-.286.037-.3-.298-.049-.312Z"/>
        </g>
      </g>
    </g>
    <g>
      <g>
        <path class="cls-40" d="M15.408,23.691c-.21.073-.847.2-.906.386.037.12-.094.32,0,.4-.005.011-.012.016-.016.027-.033.078-.291.52-.28.549.005.012.07.033.082.034l.016.041c-.019-.002-.052-.03-.082-.007.086.122.109.148.28.129.485.107.701-.371,1.013-.555.18-.106.454-.171.667-.217.348.181.774.527,1.128.745.349.215.738.407,1.078.623-.056.164.144.253,0,.427-.076.091-.198.08-.313.102-.214-.141-1.178-.695-1.391-.772-.033-.012-.061-.028-.058.014.005.06.754.546.864.61.178.102.327.198.535.244.032.007.031.013.033.014.016.11.038.204-.033.305-.115.164-.302.077-.477.088-.211-.162-1.036-.616-1.301-.731-.018-.008-.077-.023-.099-.02.321.265.723.555,1.111.752.054.027.156.077.222.068.011.005.022.009.033.014-.003.304-.206.415-.56.352-.016-.008-.029-.017-.049-.014-.03-.093-.781-.485-.922-.555-.015-.008-.174-.12-.165-.074.261.17.526.439.799.589.053.029.126.069.189.041.101.084.04.128.099.217-.058.262-.458.175-.659.095-.098-.039-.715-.435-.724-.494-.005-.031.105-.155.049-.298-.074-.19-.397-.2-.412-.217-.006-.007.043-.104.033-.163-.029-.174-.417-.33-.568-.183-.017-.22-.216-.392-.494-.352-.032.005-.124.069-.132.068-.023-.004-.108-.253-.313-.284-.262-.041-.299.083-.436.203-.023.021-.093.063-.099.068-.262-.093-.419-.357-.617-.488-.142-.094-.372-.144-.519-.244.011-.015.014-.037.016-.041.326-.459.652-.918.889-1.415.167.028.284.067.461.061-.011.023-.269.108-.123.122.232-.051.474-.066.708-.108.499-.091.967-.285,1.498-.217l-.058.068Z"/>
        <path class="cls-56" d="M17.96,23.867c.224.025.38.021.568-.095.017.005.12.236.14.271.104.361.615,1.073.445,1.429-.243.509-1.153.096-1.432-.176,0-.058.36-.233.428-.305.079-.084.133-.184.107-.298-.338.263-.784.078-1.136-.068-.329-.136-.522-.339-.897-.325-.061.002-.113.036-.173.027-.011-.002-.101-.066-.132-.068-.072-.003-.478.143-.543.135-.011-.001-.124-.082-.148-.095.167.19-.407.823-.576.853-.095.017-.211-.018-.305-.027l-.016-.041c.26.017.68-.506.198-.582.005-.011.012-.016.016-.027.038-.091.106-.399.14-.433.06-.06.778-.251.922-.298.394-.129.486-.303.955-.19.391.094,1.054.297,1.449.42.043.013.251.141.255.088l-.263-.196Z"/>
        <path class="cls-43" d="M19.573,25.411c.044.055.085.125.132.176l-1.037.447c-.022-.041-.227-.156-.28-.19-.341-.216-.729-.408-1.078-.623-.354-.218-.779-.564-1.128-.745-.12-.062-.2-.105-.354-.095-.034.002-.505.121-.527.135-.038.025-.127.233-.173.291-.146.185-.341.409-.626.44-.171.019-.193-.006-.28-.129.031-.023.064.005.082.007.094.009.21.044.305.027.169-.031.743-.663.576-.853.025.013.137.094.148.095.066.007.471-.139.543-.135.03.001.121.066.132.068.06.009.112-.025.173-.027.361.358.931.81,1.539.786.138-.006.259-.067.387-.095-.068.072-.429.247-.428.305.279.272,1.189.685,1.432.176.17-.356-.341-1.068-.445-1.429.267.47.555.936.906,1.368Z"/>
        <path class="cls-39" d="M16.247,27.606c-.215.192-.713.195-.955.041.466.071.668-.308.206-.474-.104.108-.192.236-.305.339-.176.16-.276.277-.56.19.145-.018.24-.061.346-.142.056-.043.503-.521.51-.555.039-.179-.194-.364-.42-.291-.131.042-.58.501-.617.623-.199.153-.512.159-.609-.081.137.121.282.138.453.054.05-.024.755-.655.782-.698.118-.186-.165-.4-.387-.345-.219.054-.672.612-.864.731-.175.109-.381.091-.494-.068.147.101.318.082.469,0,.061-.033.68-.564.7-.603.09-.177-.167-.395-.387-.359-.078.013-.774.579-.815.65-.022.006-.064.025-.082.027.081-.112.638-.518.659-.603.033-.141-.199-.315-.37-.291-.082.011-.166.125-.255.135.137-.12.174-.244.436-.203.205.032.289.28.313.284.008.001.1-.063.132-.068.278-.04.477.132.494.352.151-.147.539.009.568.183.01.059-.039.156-.033.163.015.017.338.027.412.217.056.143-.054.267-.049.298.01.06.626.455.724.494Z"/>
        <path class="cls-46" d="M13.152,25.953c-.036.033-.214.197-.231.217-.119-.09-.218-.195-.354-.271-.211-.118-.65-.207-.799-.298-.012-.007-.036-.018-.033-.034.103-.108.196-.227.28-.345.146.1.377.15.519.244.199.131.356.394.617.488Z"/>
        <path class="cls-32" d="M17.96,23.867l.263.196c-.004.053-.212-.075-.255-.088-.395-.123-1.058-.326-1.449-.42-.469-.113-.561.061-.955.19-.144.047-.862.238-.922.298-.034.034-.101.343-.14.433-.094-.08.037-.28,0-.4.058-.187.696-.313.906-.386.112-.039.228-.099.329-.135.084-.03.263-.123.321-.135.408-.09,1.384.39,1.902.447Z"/>
        <path class="cls-54" d="M18.667,26.034c.116.218-.145.488-.428.467.126.345-.182.575-.593.467-.024-.052-.053-.06-.099-.095.176-.011.362.076.477-.088.071-.101.049-.194.033-.305.057.01.109.038.165.02.007-.007-.135-.12-.148-.129.115-.021.237-.01.313-.102.144-.174-.056-.263,0-.427.053.033.258.148.28.19Z"/>
        <path class="cls-33" d="M15.737,23.556c-.101.037-.218.096-.329.135l.058-.068c-.532-.068-.999.126-1.498.217-.234.043-.476.058-.708.108-.145-.014.112-.099.123-.122.118-.004.343-.047.469-.068.629-.104,1.223-.386,1.885-.203Z"/>
        <path class="cls-10" d="M15.292,27.646c-.061-.039-.116-.044-.099-.135.113-.102.2-.23.305-.339.462.166.261.546-.206.474Z"/>
        <path class="cls-19" d="M17.548,26.874c.046.035.075.043.099.095.002.004-.001.009,0,.014-.044.003-.093-.013-.132-.027-.011-.004-.022-.009-.033-.014-.211-.088-.599-.345-.799-.474-.15-.097-.31-.207-.436-.325.265.116,1.09.57,1.301.731Z"/>
        <path class="cls-14" d="M17.647,26.983c.075.233-.158.452-.453.42-.072-.008-.174-.064-.239-.095.354.063.557-.048.56-.352.039.014.088.03.132.027Z"/>
        <path class="cls-3" d="M16.906,27.294c.006.02.005.192,0,.217-.059-.089.002-.132-.099-.217-.024-.02-.111-.047-.14-.068-.227-.163-.463-.318-.683-.488.141.07.892.463.922.555Z"/>
        <path class="cls-38" d="M16.181,24.477c-.213.046-.486.11-.667.217-.312.184-.528.663-1.013.555.285-.032.48-.255.626-.44.046-.058.134-.266.173-.291.022-.014.493-.133.527-.135.154-.011.234.032.354.095Z"/>
        <path class="cls-25" d="M14.288,25.086c-.012,0-.078-.022-.082-.034-.011-.028.247-.471.28-.549.483.076.062.599-.198.582Z"/>
        <path class="cls-55" d="M18.075,26.373c.013.009.155.122.148.129-.056.018-.107-.01-.165-.02-.002,0,0-.006-.033-.014l-1.399-.853c-.003-.042.024-.026.058-.014.214.077,1.177.631,1.391.772Z"/>
        <path class="cls-49" d="M18.025,26.468c-.208-.046-.357-.142-.535-.244-.11-.063-.86-.55-.864-.61l1.399.853Z"/>
        <path class="cls-35" d="M16.247,26.143c.127.118.286.228.436.325.2.129.588.386.799.474-.066.01-.168-.04-.222-.068-.388-.197-.791-.487-1.111-.752.022-.002.081.013.099.02Z"/>
        <path class="cls-29" d="M15.984,26.739c.22.169.456.324.683.488.029.021.116.048.14.068-.063.029-.136-.011-.189-.041-.272-.15-.537-.419-.799-.589-.009-.045.149.067.165.074Z"/>
        <path class="cls-24" d="M18.108,24.991c-.128.027-.249.089-.387.095-.609.024-1.179-.428-1.539-.786.376-.014.569.189.897.325.352.145.798.331,1.136.068.026.114-.028.214-.107.298Z"/>
        <g>
          <path class="cls-45" d="M13.843,27.254c-.045-.11-.03-.143-.016-.257.192-.12.645-.678.864-.731.222-.055.505.159.387.345-.027.042-.733.673-.782.698-.17.084-.316.067-.453-.054Z"/>
          <path class="cls-15" d="M14.708,26.319c.26-.044.405.306.099.433-.202.084-.406-.051-.354-.223.009-.028.226-.205.255-.21Z"/>
        </g>
        <g>
          <path class="cls-31" d="M13.333,26.928c-.065-.092-.09-.212-.033-.312.041-.071.737-.637.815-.65.22-.036.477.182.387.359-.02.038-.638.569-.7.603-.151.082-.322.101-.469,0Z"/>
          <path class="cls-16" d="M14.132,26.021c.083-.012.216.076.255.129.152.206-.317.478-.477.23-.084-.129.085-.338.222-.359Z"/>
        </g>
        <g>
          <path class="cls-13" d="M14.634,27.701c-.19-.058-.227-.214-.181-.366.037-.122.486-.581.617-.623.226-.072.459.112.42.291-.008.034-.454.512-.51.555-.105.081-.201.124-.346.142Z"/>
          <path class="cls-50" d="M15.119,26.739c.214-.03.363.249.099.366-.165.073-.35-.022-.321-.169.007-.037.182-.191.222-.196Z"/>
        </g>
        <g>
          <path class="cls-4" d="M13.218,26.644c-.381.042-.488-.243-.296-.474.016-.019.195-.184.231-.217.006-.005.075-.047.099-.068.089-.01.174-.124.255-.135.171-.024.404.15.37.291-.02.085-.578.491-.659.603Z"/>
          <path class="cls-9" d="M13.522,25.804c.052-.006.173.051.206.088.178.204-.298.436-.412.217-.055-.107.104-.293.206-.305Z"/>
        </g>
      </g>
      <g>
        <path class="cls-26" d="M12.592,23.366c-.074.41-.717,1.197-.988,1.585-2.129-.919-4.258-1.837-6.387-2.756-.184-.319-.369-.675-.547-1.066-.25-.552-.438-1.073-.579-1.543,2.833,1.26,5.667,2.52,8.5,3.779Z"/>
        <path class="cls-47" d="M12.032,25.181s-.006.026-.016.041c-.084.118-.177.237-.28.345-.003.016.021.026.033.034-.13.004-.119.167-.239.163-.125-.061-.2-.175-.346-.135.42-.623.879-1.245,1.284-1.883.063.013-.135.372-.156.413-.152.285-.371.595-.576.853l.296.169Z"/>
        <g>
          <path class="cls-5" d="M11.604,24.951c-.083.119-.693.928-.675.982.003.008.149-.013-.041.088-1.453-.638-2.906-1.277-4.359-1.915-.245-.316-.494-.658-.742-1.024-.206-.303-.395-.599-.569-.887,2.129.919,4.258,1.837,6.387,2.756Z"/>
          <g>
            <path class="cls-18" d="M10.295,25.086c.305-.027.341.326.115.366-.351.061-.373-.343-.115-.366Z"/>
            <path class="cls-48" d="M10.295,25.113c.26-.032.301.278.099.312-.289.048-.307-.286-.099-.312Z"/>
          </g>
          <g>
            <path class="cls-27" d="M10.723,25.276c.353-.03.366.359.082.379-.328.024-.382-.354-.082-.379Z"/>
            <path class="cls-41" d="M10.723,25.303c.302-.032.332.304.082.325-.276.023-.329-.299-.082-.325Z"/>
            <path class="cls-36" d="M10.707,25.384c.088,0-.027.071-.033.068-.032-.014.014-.058.033-.068Z"/>
            <polygon class="cls-17" points="10.723 25.466 10.748 25.472 10.723 25.493 10.715 25.486 10.723 25.466"/>
          </g>
        </g>
      </g>
    </g>
  </g>
</svg>
