<?xml version="1.0" encoding="UTF-8"?>
<svg id="Layer_1" data-name="Layer 1" xmlns="http://www.w3.org/2000/svg" xmlns:xlink="http://www.w3.org/1999/xlink" viewBox="0 0 199 199">
  <defs>
    <style>
      .cls-1 {
        fill: url(#linear-gradient-15);
      }

      .cls-2 {
        fill: url(#linear-gradient-13);
      }

      .cls-3 {
        fill: url(#linear-gradient-28);
      }

      .cls-4 {
        fill: url(#linear-gradient-42);
      }

      .cls-5 {
        fill: url(#linear-gradient-46);
      }

      .cls-6 {
        fill: url(#bottommm);
      }

      .cls-7 {
        fill: url(#linear-gradient-2);
      }

      .cls-8 {
        opacity: .87;
      }

      .cls-9 {
        fill: url(#linear-gradient-43);
      }

      .cls-10 {
        fill: url(#linear-gradient-25);
      }

      .cls-11 {
        fill: url(#linear-gradient-10);
      }

      .cls-12 {
        fill: url(#linear-gradient-12);
      }

      .cls-13 {
        fill: url(#linear-gradient-40);
      }

      .cls-14 {
        fill: url(#linear-gradient-27);
      }

      .cls-15 {
        fill: url(#linear-gradient-37);
      }

      .cls-16 {
        fill: url(#linear-gradient-39);
      }

      .cls-17 {
        fill: url(#linear-gradient-8);
      }

      .cls-17, .cls-18, .cls-19 {
        stroke: #fff;
        stroke-miterlimit: 10;
        stroke-width: .448px;
      }

      .cls-20 {
        fill: url(#linear-gradient-52);
      }

      .cls-21 {
        fill: url(#linear-gradient-47);
      }

      .cls-22 {
        fill: url(#linear-gradient-26);
      }

      .cls-23 {
        fill: url(#linear-gradient-4);
      }

      .cls-24 {
        fill: url(#linear-gradient-35);
      }

      .cls-25 {
        fill: url(#linear-gradient-30);
      }

      .cls-26 {
        fill: url(#linear-gradient-44);
      }

      .cls-27 {
        fill: url(#linear-gradient-49);
      }

      .cls-28 {
        fill: url(#linear-gradient-3);
      }

      .cls-29 {
        fill: url(#linear-gradient-34);
      }

      .cls-30 {
        fill: url(#linear-gradient-5);
      }

      .cls-31 {
        fill: url(#linear-gradient-38);
      }

      .cls-32 {
        fill: url(#linear-gradient-22);
      }

      .cls-33 {
        fill: url(#linear-gradient-24);
      }

      .cls-34 {
        fill: #231f20;
      }

      .cls-35 {
        fill: url(#linear-gradient-33);
      }

      .cls-36 {
        fill: url(#linear-gradient-51);
      }

      .cls-37 {
        fill: url(#linear-gradient-14);
      }

      .cls-38 {
        fill: url(#linear-gradient-29);
      }

      .cls-18 {
        fill: url(#linear-gradient-7);
      }

      .cls-39 {
        fill: url(#linear-gradient-20);
      }

      .cls-40 {
        fill: url(#linear-gradient-17);
      }

      .cls-41 {
        fill: url(#linear-gradient-50);
      }

      .cls-42 {
        fill: url(#linear-gradient-11);
      }

      .cls-43 {
        fill: url(#linear-gradient-19);
      }

      .cls-44 {
        fill: url(#linear-gradient-6);
      }

      .cls-45 {
        fill: url(#linear-gradient-36);
      }

      .cls-46 {
        fill: url(#linear-gradient-21);
      }

      .cls-47 {
        fill: url(#linear-gradient-45);
      }

      .cls-48 {
        fill: url(#linear-gradient-48);
      }

      .cls-49 {
        fill: url(#linear-gradient-32);
      }

      .cls-50 {
        fill: url(#linear-gradient-41);
      }

      .cls-51 {
        fill: url(#linear-gradient-16);
      }

      .cls-52 {
        fill: url(#linear-gradient);
      }

      .cls-53 {
        fill: url(#_Áåçûìÿííûé_ãðàäèåíò_68);
      }

      .cls-54 {
        fill: url(#linear-gradient-23);
      }

      .cls-55 {
        fill: url(#linear-gradient-31);
      }

      .cls-19 {
        fill: url(#linear-gradient-9);
      }

      .cls-56 {
        fill: url(#linear-gradient-18);
      }
    </style>
    <linearGradient id="bottommm" x1="13.316" y1="49.742" x2="185.684" y2="149.258" gradientUnits="userSpaceOnUse">
      <stop offset="0" stop-color="#8e5f2b"/>
      <stop offset=".1" stop-color="#b37129"/>
      <stop offset=".37" stop-color="#c48f2f"/>
      <stop offset=".48" stop-color="#fef7b4"/>
      <stop offset=".58" stop-color="#c48f2f"/>
      <stop offset=".82" stop-color="#7d461d"/>
      <stop offset="1" stop-color="#efbc48"/>
    </linearGradient>
    <linearGradient id="_Áåçûìÿííûé_ãðàäèåíò_68" data-name="Áåçûìÿííûé ãðàäèåíò 68" x1="16.413" y1="51.53" x2="182.587" y2="147.47" gradientUnits="userSpaceOnUse">
      <stop offset=".006" stop-color="#c0902f"/>
      <stop offset=".253" stop-color="#fdf7ce"/>
      <stop offset=".304" stop-color="#f6ebbc"/>
      <stop offset=".406" stop-color="#e5ce8f"/>
      <stop offset=".548" stop-color="#c9a048"/>
      <stop offset=".596" stop-color="#c0902f"/>
      <stop offset=".871" stop-color="#edd689"/>
      <stop offset="1" stop-color="#fdf7ce"/>
    </linearGradient>
    <linearGradient id="linear-gradient" x1="122.36" y1="59.13" x2="131.621" y2="59.13" gradientUnits="userSpaceOnUse">
      <stop offset=".122" stop-color="#875a1f"/>
      <stop offset=".131" stop-color="#956925"/>
      <stop offset=".15" stop-color="#ac802f"/>
      <stop offset=".17" stop-color="#bc9036"/>
      <stop offset=".192" stop-color="#c6993a"/>
      <stop offset=".221" stop-color="#c99d3c"/>
      <stop offset=".345" stop-color="#9e7927"/>
      <stop offset=".378" stop-color="#a6822e"/>
      <stop offset=".434" stop-color="#be9b42"/>
      <stop offset=".503" stop-color="#e3c462"/>
      <stop offset=".537" stop-color="#f9db74"/>
      <stop offset=".544" stop-color="#f9df86"/>
      <stop offset=".559" stop-color="#faebb6"/>
      <stop offset=".571" stop-color="#fcf6e3"/>
      <stop offset="1" stop-color="#c99d3c"/>
    </linearGradient>
    <linearGradient id="linear-gradient-2" x1="99.492" y1="34.428" x2="99.5" y2="34.428" xlink:href="#linear-gradient"/>
    <linearGradient id="linear-gradient-3" x1="92.539" y1="43.614" x2="152.771" y2="43.614" xlink:href="#linear-gradient"/>
    <linearGradient id="linear-gradient-4" x1="47.541" y1="47.799" x2="89.902" y2="47.799" xlink:href="#linear-gradient"/>
    <linearGradient id="linear-gradient-5" x1="81.423" y1="28.567" x2="81.43" y2="28.567" xlink:href="#linear-gradient"/>
    <linearGradient id="linear-gradient-6" x1="70.719" y1="31.717" x2="92.243" y2="31.717" xlink:href="#linear-gradient"/>
    <linearGradient id="linear-gradient-7" x1="102.729" y1="110.669" x2="148.268" y2="110.669" xlink:href="#linear-gradient"/>
    <linearGradient id="linear-gradient-8" x1="53.232" y1="110.669" x2="98.81" y2="110.669" xlink:href="#linear-gradient"/>
    <linearGradient id="linear-gradient-9" x1="54.743" y1="75.525" x2="147.994" y2="75.525" xlink:href="#linear-gradient"/>
    <linearGradient id="linear-gradient-10" x1="116.92" y1="136.908" x2="172.376" y2="136.908" xlink:href="#linear-gradient"/>
    <linearGradient id="linear-gradient-11" x1="117.518" y1="152.419" x2="125.456" y2="152.419" xlink:href="#linear-gradient"/>
    <linearGradient id="linear-gradient-12" x1="123.041" y1="148.219" x2="165.635" y2="148.219" xlink:href="#linear-gradient"/>
    <linearGradient id="linear-gradient-13" x1="129.639" y1="155.934" x2="132.265" y2="155.934" xlink:href="#linear-gradient"/>
    <linearGradient id="linear-gradient-14" x1="129.814" y1="155.929" x2="132.034" y2="155.929" xlink:href="#linear-gradient"/>
    <linearGradient id="linear-gradient-15" x1="127.111" y1="157.027" x2="129.868" y2="157.027" xlink:href="#linear-gradient"/>
    <linearGradient id="linear-gradient-16" x1="127.328" y1="156.994" x2="129.625" y2="156.994" xlink:href="#linear-gradient"/>
    <linearGradient id="linear-gradient-17" x1="75.183" y1="157.973" x2="114.335" y2="157.973" xlink:href="#linear-gradient"/>
    <linearGradient id="linear-gradient-18" x1="89.029" y1="151.687" x2="118.635" y2="151.687" xlink:href="#linear-gradient"/>
    <linearGradient id="linear-gradient-19" x1="88.627" y1="154.262" x2="122.037" y2="154.262" xlink:href="#linear-gradient"/>
    <linearGradient id="linear-gradient-20" x1="82.507" y1="164.479" x2="100.968" y2="164.479" xlink:href="#linear-gradient"/>
    <linearGradient id="linear-gradient-21" x1="73.476" y1="158.266" x2="82.106" y2="158.266" xlink:href="#linear-gradient"/>
    <linearGradient id="linear-gradient-22" x1="90.123" y1="147.584" x2="113.008" y2="147.584" xlink:href="#linear-gradient"/>
    <linearGradient id="linear-gradient-23" x1="108.894" y1="162.681" x2="115.889" y2="162.681" xlink:href="#linear-gradient"/>
    <linearGradient id="linear-gradient-24" x1="82.489" y1="146.237" x2="97.858" y2="146.237" xlink:href="#linear-gradient"/>
    <linearGradient id="linear-gradient-25" x1="94.528" y1="168.734" x2="97.996" y2="168.734" xlink:href="#linear-gradient"/>
    <linearGradient id="linear-gradient-26" x1="100.968" y1="163.549" x2="109.499" y2="163.549" xlink:href="#linear-gradient"/>
    <linearGradient id="linear-gradient-27" x1="105.282" y1="167.314" x2="109.583" y2="167.314" xlink:href="#linear-gradient"/>
    <linearGradient id="linear-gradient-28" x1="99.363" y1="166.974" x2="105.008" y2="166.974" xlink:href="#linear-gradient"/>
    <linearGradient id="linear-gradient-29" x1="90.333" y1="152.943" x2="100.567" y2="152.943" xlink:href="#linear-gradient"/>
    <linearGradient id="linear-gradient-30" x1="88.525" y1="152.778" x2="91.58" y2="152.778" xlink:href="#linear-gradient"/>
    <linearGradient id="linear-gradient-31" x1="103.274" y1="160.409" x2="113.009" y2="160.409" xlink:href="#linear-gradient"/>
    <linearGradient id="linear-gradient-32" x1="103.276" y1="160.371" x2="111.804" y2="160.371" xlink:href="#linear-gradient"/>
    <linearGradient id="linear-gradient-33" x1="100.366" y1="163.366" x2="108.493" y2="163.366" xlink:href="#linear-gradient"/>
    <linearGradient id="linear-gradient-34" x1="98.357" y1="166.084" x2="104.379" y2="166.084" xlink:href="#linear-gradient"/>
    <linearGradient id="linear-gradient-35" x1="100.567" y1="152.158" x2="112.997" y2="152.158" xlink:href="#linear-gradient"/>
    <linearGradient id="linear-gradient-36" x1="86.137" y1="165.043" x2="94.013" y2="165.043" xlink:href="#linear-gradient"/>
    <linearGradient id="linear-gradient-37" x1="89.981" y1="163.45" x2="93.239" y2="163.45" xlink:href="#linear-gradient"/>
    <linearGradient id="linear-gradient-38" x1="82.814" y1="163.045" x2="90.446" y2="163.045" xlink:href="#linear-gradient"/>
    <linearGradient id="linear-gradient-39" x1="86.585" y1="161.637" x2="89.813" y2="161.637" xlink:href="#linear-gradient"/>
    <linearGradient id="linear-gradient-40" x1="89.923" y1="167.42" x2="96.38" y2="167.42" xlink:href="#linear-gradient"/>
    <linearGradient id="linear-gradient-41" x1="92.723" y1="165.805" x2="95.56" y2="165.805" xlink:href="#linear-gradient"/>
    <linearGradient id="linear-gradient-42" x1="80.134" y1="161.326" x2="86.54" y2="161.326" xlink:href="#linear-gradient"/>
    <linearGradient id="linear-gradient-43" x1="83.041" y1="160.123" x2="85.857" y2="160.123" xlink:href="#linear-gradient"/>
    <linearGradient id="linear-gradient-44" x1="26.896" y1="137.382" x2="78.695" y2="137.382" xlink:href="#linear-gradient"/>
    <linearGradient id="linear-gradient-45" x1="70.117" y1="152.529" x2="78.017" y2="152.529" xlink:href="#linear-gradient"/>
    <linearGradient id="linear-gradient-46" x1="33.757" y1="148.59" x2="72.675" y2="148.59" xlink:href="#linear-gradient"/>
    <linearGradient id="linear-gradient-47" x1="63.64" y1="155.68" x2="66.288" y2="155.68" xlink:href="#linear-gradient"/>
    <linearGradient id="linear-gradient-48" x1="63.848" y1="155.673" x2="66.081" y2="155.673" xlink:href="#linear-gradient"/>
    <linearGradient id="linear-gradient-49" x1="66.107" y1="156.861" x2="69.021" y2="156.861" xlink:href="#linear-gradient"/>
    <linearGradient id="linear-gradient-50" x1="66.343" y1="156.86" x2="68.831" y2="156.86" xlink:href="#linear-gradient"/>
    <linearGradient id="linear-gradient-51" x1="66.939" y1="156.574" x2="67.408" y2="156.574" xlink:href="#linear-gradient"/>
    <linearGradient id="linear-gradient-52" x1="67.257" y1="156.945" x2="67.458" y2="156.945" xlink:href="#linear-gradient"/>
  </defs>
  <g>
    <circle class="cls-34" cx="99.5" cy="99.5" r="77.32"/>
    <path class="cls-6" d="M99.5,0C44.548,0,0,44.548,0,99.5s44.548,99.5,99.5,99.5,99.5-44.548,99.5-99.5S154.452,0,99.5,0ZM99.5,195.424c-52.977,0-95.924-42.947-95.924-95.924S46.523,3.576,99.5,3.576s95.924,42.947,95.924,95.924-42.947,95.924-95.924,95.924ZM99.5,6.841C48.326,6.841,6.841,48.326,6.841,99.5s41.485,92.659,92.659,92.659,92.659-41.485,92.659-92.659S150.674,6.841,99.5,6.841ZM99.5,176.82c-42.703,0-77.32-34.617-77.32-77.32S56.797,22.18,99.5,22.18s77.32,34.617,77.32,77.32-34.617,77.32-77.32,77.32Z"/>
    <path class="cls-53" d="M99.5,3.576C46.523,3.576,3.576,46.523,3.576,99.5s42.947,95.924,95.924,95.924,95.924-42.947,95.924-95.924S152.477,3.576,99.5,3.576ZM99.5,192.159c-51.174,0-92.659-41.485-92.659-92.659S48.326,6.841,99.5,6.841s92.659,41.485,92.659,92.659-41.485,92.659-92.659,92.659ZM180.558,99.499l.097-.002-.104-4.054,1.799-.092-.342-4.428c-.062-.479-.122-.959-.182-1.439-.115-.919-.234-1.869-.366-2.801l-.022-.156-1.862.289.084-.015-.649-3.631-.082-.359,1.755-.37-.516-2.238c-.046-.194-.091-.389-.135-.583-.112-.494-.228-1.005-.38-1.497l-.876-3.083c-.062-.226-.139-.448-.213-.663-.041-.119-.082-.238-.121-.358l-.048-.148-1.761.568.052-.017-.675-1.994c-.041-.117-.081-.236-.12-.354-.072-.217-.144-.433-.228-.645l-.328-.833,1.674-.642-.058-.146c-.112-.282-.223-.564-.334-.847-.403-1.029-.82-2.093-1.305-3.108l-.879-1.945c-.121-.281-.262-.556-.398-.821l-.633-1.237-1.599.812-.963-1.877-.971-1.689,1.553-.898-.079-.135c-.127-.216-.25-.433-.374-.651-.225-.396-.458-.805-.708-1.199l-1.152-1.797c-.605-.987-1.287-1.942-1.947-2.866-.158-.222-.317-.444-.475-.667l-.091-.128-1.452,1.053-.612-.861-1.855-2.361,1.391-1.127-.09-.12c-.347-.46-.729-.9-1.099-1.325l-1.676-1.934c-.241-.288-.503-.562-.728-.796l-2.322-2.435-1.343,1.338.071-.075c-.36-.34-.718-.683-1.076-1.026-.608-.582-1.236-1.182-1.868-1.762l1.205-1.336-1.736-1.504c-.166-.141-.331-.285-.495-.429-.367-.321-.747-.653-1.144-.951l-2.521-1.981c-.184-.142-.375-.276-.565-.411-.102-.072-.204-.144-.305-.217l-.125-.091-1.099,1.504.04-.056c-.304-.213-.605-.429-.907-.645-.784-.561-1.594-1.138-2.431-1.658l.978-1.502-1.929-1.236c-.31-.206-.626-.388-.924-.557l-2.782-1.6c-.408-.222-.821-.432-1.235-.643-.222-.113-.444-.226-.665-.341l-.139-.072-.819,1.596c-.222-.111-.442-.225-.663-.339-.396-.205-.806-.417-1.22-.611l-1.776-.803.731-1.637-1.608-.726-2.482-.98c-.978-.41-1.997-.751-2.982-1.081-.352-.118-.703-.236-1.053-.357l-.149-.052-.557,1.705-1.001-.336-2.888-.82.463-1.729-.143-.044c-.592-.181-1.201-.32-1.79-.455l-2.372-.547c-.488-.124-.989-.212-1.474-.296-.211-.037-.423-.074-.635-.114l-2.26-.403-.282,1.771c-.897-.136-1.812-.25-2.697-.36-.442-.055-.884-.111-1.326-.169l.187-1.789-.157-.014c-.933-.086-1.884-.157-2.802-.225-.487-.036-.973-.072-1.466-.111-.944-.036-1.89-.058-2.835-.081-.479-.011-.959-.023-1.438-.036l-.159-.004-.003,1.89-.002-.097-4.054.104-.092-1.799-4.428.342c-.479.062-.959.122-1.439.182-.919.115-1.869.234-2.801.366l-.156.022.289,1.862-.015-.085-3.631.649-.359.082-.37-1.755-2.238.516c-.193.046-.387.09-.581.134-.495.112-1.006.229-1.499.38l-3.083.876c-.226.063-.45.14-.666.214-.119.041-.237.082-.356.12l-.148.048.566,1.756-.016-.047-1.994.675c-.116.041-.233.08-.35.118-.218.072-.435.145-.648.229l-.833.328-.642-1.675-.146.058c-.282.112-.565.223-.847.334-1.029.403-2.093.82-3.108,1.304l-1.945.88c-.282.121-.556.262-.822.398l-1.237.633.812,1.599-1.877.963-1.689.971-.898-1.554-.135.079c-.215.126-.432.25-.65.374-.396.225-.806.459-1.2.708l-1.797,1.151c-.987.605-1.943,1.288-2.866,1.947-.222.158-.444.317-.666.474l-.128.091,1.052,1.452-.861.612-2.361,1.855-1.127-1.391-.12.091c-.459.346-.897.727-1.321,1.096l-1.938,1.68c-.288.241-.562.502-.796.728l-2.435,2.321,1.338,1.343-.074-.07c-.342.362-.686.721-1.03,1.08-.581.607-1.18,1.233-1.759,1.864l-1.336-1.204-1.504,1.736c-.142.167-.286.332-.431.498-.32.366-.651.745-.949,1.141l-1.981,2.522c-.142.185-.277.375-.411.566-.072.102-.144.204-.217.305l-.091.125,1.504,1.099-.056-.04c-.213.304-.429.606-.645.907-.561.784-1.138,1.594-1.658,2.431l-1.502-.978-1.236,1.929c-.206.309-.388.626-.557.924l-1.6,2.782c-.222.408-.432.822-.643,1.235-.113.222-.226.444-.341.665l-.072.138,1.596.819c-.111.221-.224.44-.338.66-.205.397-.418.808-.613,1.223l-.803,1.776-1.637-.731-.726,1.608-.98,2.482c-.41.978-.751,1.996-1.081,2.981-.118.352-.236.703-.357,1.054l-.051.149,1.705.557-.336,1.001-.82,2.888-1.729-.463-.044.143c-.181.591-.32,1.201-.455,1.79l-.547,2.372c-.124.488-.212.989-.296,1.474-.037.211-.074.423-.114.635l-.403,2.26,1.771.282c-.136.897-.25,1.812-.36,2.697-.055.442-.111.884-.168,1.326l-1.789-.187-.014.157c-.086.933-.157,1.884-.225,2.802-.036.487-.072.973-.111,1.466-.036.945-.058,1.89-.081,2.835-.011.479-.023.959-.036,1.438l-.004.159,1.89.003-.097.002.104,4.054-1.799.092.342,4.428c.062.48.122.96.183,1.44.115.918.234,1.868.366,2.8l.022.156,1.875-.291-.098.017.649,3.631.082.359-1.755.37.516,2.238c.046.194.091.388.135.582.112.494.229,1.006.38,1.498l.876,3.083c.063.227.14.45.214.666.041.118.082.237.12.356l.048.148,1.741-.562-.033.011.675,1.994c.041.117.08.233.118.351.072.217.145.435.229.648l.328.832-1.674.642.058.146c.113.283.224.567.335.851.403,1.028.819,2.091,1.303,3.104l.879,1.945c.121.283.263.558.4.824l.632,1.234,1.598-.812.964,1.877.971,1.689-1.554.898.079.135c.126.216.25.433.374.65.226.396.459.806.708,1.2l1.151,1.797c.606.988,1.289,1.944,1.949,2.868.158.221.316.442.473.664l.091.128,1.452-1.052.613.861,1.855,2.361-1.391,1.127.091.12c.347.459.728.899,1.098,1.324l1.677,1.935c.22.263.45.508.728.796l2.321,2.435,1.343-1.338-.07.074c.361.341.72.685,1.079,1.029.607.581,1.234,1.18,1.865,1.759l-1.205,1.336,1.736,1.504c.167.142.333.287.498.431.366.32.745.651,1.14.948l2.522,1.981c.184.142.375.276.565.411.102.072.204.144.305.217l.125.091,1.099-1.504-.04.057c.304.213.606.429.908.645.784.561,1.594,1.138,2.431,1.658l-.978,1.502,1.929,1.236c.31.207.64.396.924.557l2.782,1.6c.407.221.821.432,1.234.642.222.113.445.226.666.342l.139.072.819-1.596c.223.112.446.227.668.342.395.204.803.415,1.215.608l1.776.803-.731,1.637,1.609.726,2.482.98c.978.41,1.998.752,2.984,1.082.351.118.702.235,1.051.356l.149.052.557-1.705,1.001.336,2.888.82-.463,1.729.143.044c.591.181,1.2.32,1.79.455l2.373.547c.488.124.989.212,1.474.296.211.037.423.074.635.114l2.26.403.282-1.771c.894.136,1.805.249,2.686.359.446.055.892.112,1.337.17l-.187,1.788.156.015c.935.086,1.886.157,2.806.225.485.036.971.072,1.462.111.94.036,1.88.058,2.82.08.484.012.968.023,1.452.036l.159.004.003-1.89.002.097,4.054-.104.092,1.799,4.428-.342c.48-.062.96-.123,1.44-.183.918-.115,1.868-.234,2.8-.366l.156-.022-.291-1.875.017.097,3.631-.649.359-.082.37,1.755,2.238-.516c.194-.046.389-.091.584-.135.494-.112,1.004-.228,1.496-.38l3.083-.876c.226-.062.448-.139.663-.213.119-.041.238-.082.359-.121l.148-.048-.562-1.742.011.033,1.994-.675c.118-.041.236-.081.354-.12.217-.072.433-.144.645-.228l.832-.328.642,1.674.146-.058c.283-.113.567-.224.85-.335,1.028-.403,2.091-.82,3.105-1.304l1.945-.879c.282-.121.558-.263.824-.4l1.234-.632-.812-1.598,1.877-.963,1.689-.971.898,1.554.135-.08c.216-.127.435-.251.652-.375.395-.225.804-.457,1.197-.707l1.796-1.152c.988-.606,1.945-1.288,2.869-1.949.221-.158.442-.316.664-.472l.128-.091-1.053-1.452.861-.612,2.361-1.855,1.127,1.391.12-.09c.46-.347.9-.729,1.325-1.099l1.935-1.676c.263-.22.508-.45.796-.728l2.435-2.322-1.338-1.343.075.071c.34-.36.683-.718,1.026-1.076.582-.608,1.182-1.236,1.762-1.868l1.336,1.205,1.504-1.736c.142-.167.286-.332.43-.497.32-.367.652-.746.949-1.142l1.981-2.522c.142-.184.276-.374.41-.564.072-.102.145-.205.218-.306l.091-.125-1.499-1.096.052.036c.213-.303.428-.605.644-.906.561-.784,1.139-1.595,1.659-2.433l1.502.978,1.236-1.929c.207-.311.396-.64.557-.924l1.6-2.782c.221-.407.432-.821.642-1.234.113-.223.227-.445.342-.667l.072-.139-1.596-.819c.112-.223.227-.445.341-.667.204-.395.415-.803.609-1.216l.803-1.776,1.638.731.726-1.608.98-2.482c.411-.979.752-1.999,1.083-2.986.118-.35.235-.7.355-1.05l.052-.149-1.705-.557.335-1.001.82-2.888,1.729.463.044-.144c.181-.591.32-1.2.455-1.789l.547-2.373c.124-.488.212-.989.296-1.474.037-.211.074-.423.114-.635l.403-2.26-1.77-.281c.136-.893.249-1.804.359-2.685.055-.446.112-.892.17-1.338l1.788.187.015-.157c.086-.935.157-1.886.225-2.806.036-.486.072-.971.111-1.463.036-.939.058-1.88.08-2.82.012-.484.023-.968.036-1.452l.004-.159-1.89-.003ZM18.609,103.705h0s0,0,0,0ZM97.817,178.508c-.85-.021-1.7-.041-2.543-.072-.5-.04-.999-.077-1.499-.114-.845-.063-1.719-.127-2.576-.206l-.153-.014-.185,1.778c-.443-.058-.887-.114-1.331-.169-.878-.109-1.787-.222-2.676-.357l.282-1.77-2.161-.387c-.205-.039-.41-.074-.615-.11-.456-.079-.928-.161-1.385-.278l-2.282-.526c-.556-.127-1.13-.258-1.682-.427l-.154-.047-.465,1.735-2.876-.817-.997-.334.557-1.703-.144-.05c-.347-.12-.696-.237-1.044-.354-.926-.31-1.883-.63-2.8-1.016l-2.37-.935-1.539-.697-.731,1.637-1.772-.801c-.405-.19-.81-.4-1.202-.603-.222-.115-.445-.23-.669-.342l.818-1.595-.137-.071c-.217-.113-.435-.224-.653-.335-.388-.197-.777-.395-1.157-.601l-2.659-1.529c-.283-.16-.582-.332-.868-.523l-1.851-1.187-.979,1.503c-.83-.515-1.638-1.091-2.419-1.65-.301-.216-.603-.431-.906-.644l1.057-1.447-.126-.092c-.098-.071-.197-.141-.297-.211-.178-.125-.356-.251-.528-.383l-2.414-1.897c-.37-.277-.725-.588-1.069-.889-.162-.142-.324-.283-.486-.421l-1.661-1.438-1.197,1.327c-.628-.576-1.253-1.173-1.858-1.752-.358-.343-.716-.686-1.076-1.027l1.27-1.265-2.222-2.331c-.213-.22-.459-.478-.684-.748l-1.613-1.862c-.348-.4-.708-.814-1.031-1.243l-.097-.129-1.396,1.131-1.847-2.351-.61-.857,1.451-1.052-.089-.125c-.159-.224-.319-.448-.479-.672-.62-.868-1.262-1.767-1.829-2.694l-1.103-1.72c-.233-.367-.452-.752-.664-1.125-.121-.212-.241-.425-.365-.635l-.078-.133-1.551.896-.967-1.682-.959-1.869,1.598-.812-.61-1.19c-.128-.249-.261-.506-.373-.769l-.843-1.866c-.455-.951-.847-1.952-1.226-2.92-.111-.283-.221-.565-.334-.847l-.057-.143-1.674.642-.329-.835c-.082-.208-.152-.42-.223-.632-.04-.119-.079-.238-.12-.354l-.673-1.989,1.704-.55-.048-.148c-.038-.116-.078-.232-.118-.348-.07-.201-.142-.41-.199-.618l-.838-2.953c-.143-.46-.251-.941-.357-1.405-.043-.19-.086-.38-.131-.568l-.494-2.14-1.754.37-.081-.357-.646-3.619,1.766-.274-.021-.152c-.119-.848-.226-1.698-.333-2.548-.063-.502-.126-1.004-.191-1.498l-.326-4.229-1.783.091-.104-4.04,1.792.003.004-.151c.014-.505.027-1.011.039-1.517.021-.857.041-1.714.072-2.564.04-.5.077-.999.114-1.499.063-.845.128-1.719.206-2.576l.014-.153-1.778-.185c.058-.44.113-.88.168-1.32.11-.882.223-1.794.359-2.687l1.771.282.386-2.161c.039-.205.074-.411.11-.616.079-.456.161-.927.278-1.384l.526-2.282c.127-.556.258-1.13.428-1.682l.047-.154-1.735-.465.816-2.876.334-.997,1.703.557.05-.144c.12-.348.237-.696.354-1.045.31-.926.63-1.883,1.016-2.799l.935-2.37.697-1.539-1.637-.731.801-1.772c.191-.408.402-.816.606-1.21.114-.22.227-.44.339-.661l1.594.818.071-.137c.113-.218.224-.436.335-.655.197-.388.395-.776.601-1.155l1.529-2.659c.159-.281.33-.58.523-.868l1.187-1.851-1.503-.979c.516-.83,1.091-1.638,1.65-2.42.216-.301.431-.603.644-.906l1.447,1.057.092-.126c.071-.098.141-.198.211-.297.125-.178.251-.356.383-.527l1.897-2.414c.278-.371.59-.728.892-1.073.14-.161.281-.321.418-.482l1.438-1.661-1.327-1.197c.576-.628,1.173-1.253,1.752-1.857.343-.358.686-.716,1.027-1.077l1.265,1.27,2.331-2.222c.221-.214.479-.46.748-.684l1.863-1.614c.4-.348.813-.708,1.242-1.03l.129-.097-1.131-1.396,2.351-1.847.857-.609,1.052,1.452.125-.089c.224-.159.448-.318.672-.478.869-.62,1.767-1.262,2.694-1.829l1.72-1.103c.366-.233.752-.452,1.125-.664.212-.121.425-.241.635-.365l.133-.078-.896-1.551,1.682-.967,1.87-.959.812,1.598,1.195-.612c.248-.128.504-.259.765-.371l1.866-.843c.952-.455,1.952-.847,2.92-1.226.282-.11.565-.221.847-.333l.143-.057-.642-1.674.835-.329c.208-.082.42-.153.632-.223.119-.039.237-.079.354-.12l1.989-.673.55,1.704.148-.048c.117-.038.233-.078.348-.118.201-.07.409-.142.617-.199l2.953-.839c.46-.143.94-.251,1.405-.356.19-.043.38-.086.568-.131l2.14-.494-.37-1.754.356-.081,3.619-.646.274,1.766.152-.021c.848-.119,1.699-.226,2.549-.333.502-.063,1.003-.126,1.496-.191l4.229-.326-.091-1.783,4.04-.104-.003,1.792.151.004c.506.014,1.011.027,1.517.039.857.021,1.714.041,2.564.072.499.04.999.077,1.499.114.845.063,1.719.128,2.577.206l.153.014.185-1.778c.44.058.88.113,1.32.168.882.11,1.794.223,2.686.359l-.281,1.771,2.161.386c.205.039.411.074.616.11.456.079.927.161,1.384.278l2.281.526c.556.127,1.13.258,1.682.428l.154.047.465-1.735,2.876.817.997.334-.557,1.703.145.05c.348.12.697.237,1.046.354.925.31,1.882.63,2.798,1.016l2.37.935,1.539.696.731-1.637,1.772.801c.407.191.813.401,1.207.605.221.114.442.228.664.34l-.818,1.594.137.071c.218.113.436.224.655.335.388.197.776.395,1.155.601l2.659,1.529c.281.159.579.33.868.523l1.851,1.187.979-1.503c.83.515,1.638,1.091,2.42,1.65.301.216.603.431.906.644l-1.057,1.447.126.092c.098.071.197.141.296.211.178.125.356.251.528.383l2.414,1.897c.371.278.728.591,1.074.893.16.14.32.28.481.417l1.661,1.438,1.197-1.327c.629.577,1.255,1.175,1.861,1.756.357.342.714.684,1.073,1.023l-1.27,1.265,2.222,2.331c.213.22.46.478.684.748l1.614,1.863c.348.4.708.813,1.031,1.242l.097.129,1.396-1.131,1.847,2.351.609.857.003-.002-1.455,1.054.089.125c.158.223.317.446.476.668.621.87,1.264,1.769,1.832,2.698l1.103,1.72c.233.366.451.751.663,1.124.121.213.242.425.366.636l.078.133,1.551-.896.967,1.682.959,1.869-1.599.812.613,1.195c.127.247.259.503.371.764l.843,1.866c.455.95.846,1.949,1.224,2.915.111.284.223.569.336.852l.057.143,1.673-.642.329.835c.082.207.152.418.222.628.04.12.08.24.121.357l.673,1.989-1.704.55.048.148c.038.116.078.232.118.347.07.202.142.41.2.618l.838,2.953c.143.462.252.943.358,1.409.043.188.085.377.13.564l.494,2.14,1.754-.37.081.356.646,3.619-1.766.274.021.152c.12.85.226,1.702.334,2.553.063.5.125,1,.19,1.492l.326,4.228,1.783-.091.104,4.04-1.792-.003-.005.151c-.015.512-.027,1.025-.039,1.537-.021.85-.041,1.7-.072,2.543-.04.499-.077.999-.114,1.499-.063.845-.128,1.719-.207,2.576l-.014.153,1.778.185c-.058.444-.114.888-.169,1.332-.109.878-.222,1.786-.357,2.675l-1.77-.281-.387,2.161c-.039.205-.074.41-.11.615-.079.456-.161.928-.278,1.385l-.526,2.281c-.127.556-.258,1.13-.428,1.682l-.047.154,1.735.465-.817,2.876-.334.997-1.703-.557-.05.145c-.12.347-.237.696-.354,1.045-.31.926-.63,1.883-1.016,2.799l-.935,2.37-.697,1.54,1.637.731-.801,1.772c-.19.405-.4.811-.603,1.203-.115.222-.23.444-.342.668l-1.595-.818-.071.137c-.112.217-.223.434-.334.652-.198.389-.396.778-.602,1.158l-1.529,2.659c-.16.282-.332.581-.523.868l-1.187,1.851,1.503.979c-.516.831-1.092,1.639-1.652,2.421-.215.301-.43.602-.643.904l-1.447-1.057-.092.127c-.071.098-.141.197-.21.296-.125.178-.251.356-.383.528l-1.898,2.414c-.277.371-.589.727-.891,1.072-.141.161-.282.322-.419.483l-1.438,1.661,1.327,1.197c-.577.629-1.175,1.255-1.756,1.861-.342.357-.684.714-1.023,1.073l-1.265-1.27-2.331,2.222c-.22.213-.477.459-.748.684l-1.862,1.613c-.4.348-.814.708-1.243,1.031l-.129.097,1.131,1.396-2.351,1.847-.857.609.003.004-1.055-1.456-.125.089c-.223.158-.444.316-.667.475-.87.622-1.77,1.265-2.699,1.833l-1.72,1.103c-.366.233-.752.451-1.124.663-.213.121-.425.242-.636.366l-.133.078.896,1.551-1.682.967-1.869.959-.812-1.598-1.197.613c-.247.127-.502.259-.763.37l-1.866.843c-.95.455-1.948.846-2.914,1.224-.285.111-.569.223-.853.336l-.142.057.642,1.673-.835.329c-.207.082-.418.152-.628.222-.12.04-.24.08-.358.121l-1.989.673-.55-1.704-.148.048c-.116.038-.231.077-.347.118-.202.07-.411.142-.619.2l-2.953.838c-.462.143-.944.252-1.409.358-.189.043-.377.085-.564.13l-2.14.494.37,1.754-.356.081-3.619.646-.274-1.766-.152.021c-.85.12-1.701.226-2.552.333-.5.063-1.001.126-1.493.19l-4.229.326.091,1.783-4.04.104.003-1.792-.151-.005c-.512-.015-1.025-.027-1.537-.039ZM103.705,180.391h0,0Z"/>
  </g>
  <g class="cls-8">
    <path class="cls-52" d="M122.466,57.524c-.064-.005-.116.042-.104.093.031.139.097.261.238.351.094.06.176.127.291.156.08.021.163.033.247.038.084.005.174-.011.254.016.249.085.278.461.626.406.16-.025.279-.094.433-.009.138.076.248.184.383.264.096.057.21.129.332.136.088.005.149.029.228.072.067.037.206.102.236.169.016.037-.005.043-.015.083-.016.064.005.091.054.136.049.046.132.115.131.18,0,.063-.082.073-.122.118-.035.04-.049.093-.033.141.008.024.03.031.021.058-.008.025-.058.049-.079.063-.051.032-.061.033-.123.022-.041-.007-.081-.028-.095.012-.017.049.171.257.226.222.024-.015.018-.072.054-.095.065-.042.167-.02.242-.018.13.004.245.01.149.132-.07.089-.171.015-.267.029-.058.008-.166.068-.146.122.017.046.119.067.165.078.008.058.006.179-.107.135-.105-.04-.132-.177-.205-.244-.101-.093-.155.036-.114.113.033.062.096.107.164.143.057.031.07.015.135.018.086.004.117.041.076.104-.011.018-.025.024-.034.041-.018.034-.008.058-.056.078-.053.022-.105.001-.151.031-.061.039-.027.108-.082.141-.049.03-.086,0-.073.05.004.017.028.021.029.049,0,.028-.021.05-.013.081.022.08.13.096.176.155.029.036,0,.024-.003.061-.002.029.02.038.023.066.006.055-.041.075.01.133.044.05.104.072.168.099.076.033.045.004.12-.008.057-.009.108.063.087.107-.005.01-.026.012-.037.011-.03.067-.016.082.007.145.029.079.048.06.141.083.025.006.051.025.074.034.037.015.086.018.12.033.026.011.034.039.057.048.03.012.076-.002.111.004.042.007.075.028.114.04.008.002.058.01.058.01.055.033.054.099.132.131.09.037.156.003.229-.04.076-.045.162-.022.251-.054.039-.014.088-.04.132-.028.042.012.062.045.114.051.129.015.164-.039.253-.096.095-.06.197-.002.302-.018.054-.008.095-.034.151-.023.051.009.089.045.136.063.089.034.14-.012.228-.009.062.002.119.014.187.011.11-.005.181-.048.283-.071.06-.013.112.008.171.006.057-.002.089-.025.132-.052.117-.074.302-.088.438-.144.146-.06.269-.18.379-.278-.003-.006-.007-.008-.015-.008,0,.007.006.019.005.024.041-.062.096-.119.128-.185.036-.075-.011-.129.004-.202.01-.049.083-.114.126-.147.062-.047.072-.106.09-.17.008-.027.002-.053.015-.08.02-.041.041-.057.043-.103.002-.05-.002-.092.049-.129.049-.035.103-.047.107-.108.003-.051-.02-.095-.009-.149.019-.091.047-.153-.004-.239-.035-.059-.111-.143-.062-.21.011-.015.092-.04.11-.048.091-.039.182-.078.274-.116.073-.031.053-.161.063-.211.013-.068.084-.074.154-.092.059-.016.134-.051.148-.105.019-.067-.062-.118-.093-.173-.047-.082-.008-.19.078-.246.049-.031.082-.075.127-.108.069-.051.124-.082.165-.153.051-.088-.067-.185-.152-.225-.163-.077-.301.112-.424.164-.092.039-.191.007-.278.062-.073.045-.135.103-.217.137-.077.032-.172.028-.236.079-.091.072-.153-.008-.252-.005-.071.002-.134-.041-.2-.027-.014.003-.015.02-.033.021-.06.003-.119-.091-.106-.132.007-.022.036-.028.042-.051.012-.043-.016-.06.013-.101.022-.03.043-.032.03-.068-.011-.03-.065-.049-.083-.077-.022-.034-.008-.064-.013-.1-.014-.096-.332-.365-.177-.444.067-.034.223-.01.301-.017.192-.017.546.014.503-.217-.027-.144-.054-.343-.161-.464-.111-.125-.316-.217-.497-.255-.088-.018-.147-.046-.16-.123-.007-.044.018-.2-.091-.147-.04.019.003.08-.017.106-.024.033-.108.038-.147.04-.143.009-.287-.003-.429.018-.071.011-.141.029-.201.063-.053.029-.105.092-.178.063-.033-.013-.084-.063-.104-.088-.03-.037-.022-.056-.015-.105.01-.081-.01-.164-.078-.226-.049-.044-.179-.132-.254-.13-.048.001-.046.014-.098,0-.044-.011-.096-.03-.145-.035-.051-.006-.11.016-.159.003-.035-.009-.065-.036-.104-.018-.072.032.027.13-.06.162-.027.009-.102-.136-.111-.151-.019-.031-.037-.072-.066-.098-.039-.034-.083,0-.128-.01-.045-.01-.08-.048-.13-.06-.064-.015-.132-.016-.198-.017-.044,0-.087.006-.131.009-.012,0-.016.013-.007.019.03.021.053.058.053.083,0,.004-.01.02-.022.038-.022.034-.072.047-.114.03-.015-.006-.03-.011-.045-.009-.033.003-.028.02-.052.026-.082.023-.109-.057-.181-.053-.036.002-.066.037-.109.04-.046.003-.079-.01-.115-.031-.049-.029-.094-.067-.135-.107-.055-.054-.127-.096-.209-.116-.083-.021-.16-.098-.245-.111-.031-.005-.05.01-.079-.003-.05-.023-.044-.043-.108-.028-.064.016-.072.012-.13-.019-.038-.02-.076-.039-.112-.059-.042-.024-.168-.053-.205-.016-.026-.018-.054-.036-.09-.038-.035-.001-.053.022-.091.015-.035-.006-.061-.031-.093-.042-.039-.014-.077-.002-.115-.011-.05-.012-.065-.056-.122-.033-.072.028-.119.073-.201.083-.074.009-.138.01-.178.07-.034.052-.032.114-.057.169-.03.064-.015.111-.121.111-.042,0-.07.005-.111.009-.063.006-.077-.01-.111.041-.025.038-.025.084-.051.121-.028.041-.076.059-.101.104-.015.027-.041.063-.039.091.002.028.029.071.035.1.008.035.046.06.059.093.02.05-.029.049-.069.075-.038.024-.06.061-.083.094-.042.059-.108.085-.183.108-.041.013-.097.028-.124.059-.024.029.009.062.008.092-.004.103-.225.195-.323.227-.068.022-.146.024-.221.018Z"/>
    <g>
      <path class="cls-7" d="M99.5,34.427c-.009,0-.013.004,0,0t0,0Z"/>
      <path class="cls-28" d="M138.626,38.037c-.101-.062-.21-.114-.333-.153-.145-.045-.233-.104-.321-.209-.079-.095-.155-.188-.253-.271-.433-.366-.974-.07-1.552-.172-.31-.054-.765-.455-1.08-.488-.093-.01-.254-.018-.244-.126.01-.103.179-.164.285-.172.144-.011.301.033.434.074.131.041.239.138.371.167.071.015.145.006.215.026.06.017.111.05.171.068.134.041.24-.034.368.036.121.066-.014.134.116.184.113.043.66.178.614.1-.117-.157-.332-.271-.504-.385-.207-.138-.406-.282-.61-.423-.419-.289-.843-.573-1.271-.854-.423-.278-.858-.543-1.28-.821-.08-.053-.158-.123-.248-.165-.119-.054-.156.023-.264.042-.113.02-.252-.065-.344-.109-.108-.051-.211-.107-.313-.166-.194-.113-.376-.247-.596-.326-.114-.041-.232-.055-.353-.077-.13-.023-.249-.068-.376-.096-.1-.022-.2-.044-.296-.075-.132-.042-.272-.041-.406-.077-.102-.028-.232-.1-.341-.099-.046,0-.078.017-.126.009-.05-.009-.095-.035-.14-.055-.218-.096-.464-.132-.709-.149-.133-.01-.244-.031-.37-.062-.113-.028-.228-.011-.328.039-.089.044-.141.103-.11.19.017.048.151.157.135.199-.018.047-.131.023-.167.005-.078-.038-.086-.122-.143-.175-.07-.066-.179-.075-.278-.085-.13-.014-.259-.034-.388-.053-.254-.036-.492-.108-.724-.2-.1-.04-.197-.098-.306-.121-.115-.024-.217.013-.333-.018-.107-.028-.146.047-.219.102-.059.045-.134.116-.065.173.046.038.1.056.106.088.008.038.03.074.072.091.119.049.191.168.302.227.145.078.338.077.468.178.084.066.079.127.026.205-.048.072-.064.157-.122.223-.045.052-.12.109-.201.113-.068.003-.055-.015-.061-.06-.005-.036-.024-.065-.042-.098-.037-.065-.154-.103-.082-.173.076-.073.196-.019.264-.073.001-.061.102-.097.029-.159-.047-.04-.123-.054-.186-.068-.056-.013-.135-.024-.178-.059-.038-.03-.039-.067-.089-.09-.054-.025-.131-.024-.189-.044-.033-.011-.036-.05-.005-.065.04-.019.026-.049-.056-.07-.051-.013-.106-.007-.154-.029-.039-.018-.075-.048-.11-.076-.019-.015-.026-.036-.025-.057.004-.071-.124-.137-.184-.171-.126-.07-.28-.091-.423-.127-.068-.017-.123-.028-.176.016-.041.034-.054.069-.118.078-.113.017-.229-.052-.332-.08-.035-.01-.127-.016-.133-.056-.003-.017.008-.028.024-.036.043-.02.042-.07,0-.091h-.001c-.027-.014-.067-.015-.087-.036-.045-.047.004-.09-.065-.132-.075-.046-.318-.13-.373-.042-.027.043.002.06-.072.071-.087.013-.175.003-.263.021-.089.019-.17.054-.259.072-.07.014-.136.019-.177.074-.054.073.002.111.071.142.037.016.05.051.041.085-.003.012.004.026.017.048.039.061.053.1.008.165-.048.071-.294.258-.152.339.022.013.106.015.115.041.009.024.02.048.045.062.189.11.482.075.687.15.141.052.292.134.404.221.032.025.092.07.026.091-.059.018-.177-.055-.222-.079-.217-.112-.432-.224-.701-.219-.155.003-.231.062-.301.168-.046.07-.102.108-.178.124-.059.013-.115.036-.155.073-.155.141-.709-.029-.858-.033-.047-.001-.339.014-.286-.08.033-.057.23-.029.289-.023.106.01.204.044.308.06.034.005.096.022.129.015.018-.004.034-.012.041-.023.019-.026.049-.043.086-.045.082-.005.164-.022.243-.046.05-.015.095-.041.119-.08.017-.027.075-.049.1-.058h.003c.122-.045.132-.181.019-.238-.067-.034-.118-.076-.102-.132.009-.035-.01-.07-.049-.085-.032-.012-.06-.028-.06-.051,0-.018.009-.028.023-.033.043-.014.06-.057.045-.093-.003-.006-.004-.012-.005-.019-.012-.072.058-.061.107-.094.065-.044.018-.135.01-.195-.01-.071-.086-.096-.11-.16-.047-.125.092-.101.183-.103.045,0,.092-.005.093-.05,0-.023-.032-.032-.026-.061.006-.028.049-.038.048-.07-.002-.046-.093-.097-.13-.126-.027-.022-.042-.04-.081-.049-.034-.007-.074.012-.101-.014-.021-.019-.006-.06-.021-.083-.018-.026-.056-.043-.088-.055-.071-.027-.151-.033-.227-.043-.211-.028-.41-.094-.617-.132-.058-.011-.173-.05-.228-.023-.039.019-.027.055-.055.079-.03.026-.073.017-.093.055-.037.069.051.132-.072.168-.074.021-.167.012-.242.003-.189-.022-.378-.074-.562-.043-.053.009-.079.063-.044.097.007.006.011.014.013.022.003.015-.002.026-.011.033-.027.022-.036.056-.013.081.046.051.073.111-.02.132-.039.009-.084-.024-.121.004-.02.015-.011.035-.031.052-.002.001-.004.003-.006.004-.031.016-.035.052-.005.069.023.013.05.021.079.033.071.028.074.072.128.11.104.074.262.077.323.196.058.113-.067.142-.147.055-.032-.035-.048-.08-.097-.103-.06-.028-.143-.014-.209-.031-.079-.021-.194-.061-.286-.109-.046-.024-.077-.063-.09-.107-.01-.032-.115-.057-.14-.065-.123-.039-.22-.115-.352-.139-.132-.024-.206-.111-.342-.125-.082-.008-.163-.009-.243-.029-.078-.02-.152-.053-.235-.06-.145-.013-.288.023-.409-.039-.042-.022-.05-.069-.02-.101h0c.005-.006.003-.014-.004-.017-.073-.036-.147-.022-.2-.098.072-.024-.035-.064-.064-.073-.081-.026-.17-.022-.253-.038-.102-.019-.172-.081-.269-.104-.067-.016-.1.005-.131.033-.037.033-.019.086.033.099.003,0,.005.001.008.002.031.008.047.033.047.06,0,.025.053.052.087.057.034.005.069-.014.1-.008.055.011.032.032.052.065.039.062.123.069.205.079.085.01.13.094.075.147-.014.013-.034.022-.068.018-.054-.006-.102-.046-.155-.06-.055-.014-.114-.015-.168-.032-.112-.035-.144-.061-.266-.033-.116.026-.238.011-.355.002-.136-.01-.261-.041-.392-.071-.067-.016-.135-.031-.204-.033-.061-.002-.126.018-.186.01-.13-.017-.046-.093-.074-.159-.032-.075-.175-.085-.255-.092-.132-.012-.275-.031-.404.006-.067.019-.117.039-.189.039-.036,0-.071-.007-.105-.014-.036-.007-.077-.006-.106.014-.028.019-.136-.013-.16-.017-.033-.006-.125-.023-.169-.006-.048.019-.105.013-.153-.007-.037-.016-.075-.032-.115-.041-.11-.022-.118.052-.208.059-.043.003-.091-.015-.134-.018-.049-.003-.101-.002-.151-.002-.113,0-.182.04-.286.059-.043.008-.091-.007-.131.003-.037.009-.05.034-.08.051-.055.03-.119.009-.161.051-.043.044-.006.086-.077.097-.05.008-.116-.012-.164-.023-.071-.016-.224-.029-.238-.104-.025-.129.17-.061.248-.064.025-.001.242-.005.264-.046.012-.022.058-.049.041-.075-.019-.029-.1-.028-.134-.036-.057-.013-.111-.035-.122-.087-.018-.084.155-.039.207-.029.156.031.302.059.463.067.092.005.215.028.307.011.11-.021.082-.097.004-.139-.104-.056-.235-.056-.354-.063-.072-.005-.139-.014-.209-.029-.038-.008-.087-.024-.127-.015-.118.028.004.137-.139.131-.124-.005-.242-.038-.367-.037-.032,0-.125.003-.15-.025-.025-.027-.059-.048-.101-.049-.058,0-.117.004-.174.005-.063.001-.198.014-.251-.022-.041-.028-.003-.07-.04-.093-.052-.032-.199.006-.257.011-.085.008-.265-.051-.223.064.016.042.048.109.09.136.025.016.058.016.083.031.037.022.048.055.068.087.016.026.048.056.053.085.004.025-.019.051-.015.078.003.017.01.031.021.042.04.043.011.105-.055.11-.07.006-.142-.004-.211-.02-.115-.026-.21-.032-.325-.005-.05.012-.183.058-.228.017-.059-.055.072-.056.107-.068.042-.015.053-.02.044-.06-.004-.017-.022-.031-.025-.049-.004-.02.007-.04.004-.059-.008-.051-.054-.077-.099-.11-.043-.032-.061-.061-.09-.101-.028-.039-.037-.047-.091-.055-.068-.011-.103-.018-.163-.05-.095-.051-.241-.053-.312-.127-.044-.046-.061-.064-.135-.081-.055-.013-.112-.023-.168-.033-.047-.008-.096-.012-.142-.023-.039-.01-.088-.025-.101-.06-.013-.034-.028-.047-.075-.042-.064.006-.133.051-.198.038-.085-.016-.124-.101-.2-.134-.114-.05-.197-.016-.314-.013-.061.001-.107-.026-.161-.043-.06-.019-.124-.027-.188-.036-.247-.034-.481-.108-.69-.218-.171-.09-.38-.027-.57-.01-.134.012-.398.03-.441-.115.089-.044.34.098.358-.05.017-.144-.293-.101-.392-.105-.058-.002-.235.01-.278-.025-.049-.04.019-.081-.082-.109-.173-.049-.398-.066-.58-.058-.214.01-.409.026-.624.006-.206-.02-.386.043-.587.07-.189.026-.372.057-.561.021-.148-.028-.33-.058-.461.019-.084.05-.168.095-.275.103-.11.008-.211-.034-.323-.022-.105.012-.207.037-.313.048-.095.01-.213.014-.296.056.035.081-.037.098-.117.116-.113.025-.21.076-.32.106-.023.006-.058.019-.083.016-.045-.005-.026,0-.046-.03-.018-.026-.011-.049-.045-.069-.084-.048-.255-.009-.348-.001-.071.006-.184,0-.242.04-.093.063.001.139.092.142.114.003.217-.055.328-.067.066-.007.26.026.138.098-.073.043-.209.01-.293.016-.103.007-.182.048-.234.123.035.012.152.016.154.061.002.064-.128.02-.167.038-.044.019-.026.057-.052.085-.037.039-.088.018-.138.027-.073.013-.15.079-.179.134-.026.049.026.118-.019.155-.068.054-.191-.025-.269-.007-.087.021-.1.111-.165.153-.085.055-.221.052-.32.085-.066.022-.235.085-.108.141.074.033.211.004.248.083-.069.057-.193.028-.278.018-.105-.013-.2-.012-.293.033-.089.043-.159.112-.27.116-.104.004-.235-.067-.336-.029-.086.034-.008.111-.067.165-.052.048-.174.079-.246.097-.072.018-.152.017-.221.044-.042.016-.053.043-.069.076-.02.04-.044.049-.084.073-.016.01-.031.022-.044.035-.077.074-.134.108-.245.122-.075.01-.354.044-.267.154.032.041.191.062.122.13-.04.04-.237.078-.14.142.036.024.091.015.128.038.015.009.028.024.034.039.011.028.038.05.073.058.009.002.017.005.025.01.042.025.029.068.062.096.032.027.153.024.145.075-.008.046-.125.043-.159.071-.026.021-.036.055-.036.091,0,.052.047.096.11.104.052.006.099.03.148.054.094.046.165.046.271.058.131.015.221.025.351-.004.085-.019.158-.005.242-.014.063-.006.081-.027.087-.059.006-.033.048-.053.085-.039.048.019.083.04.153-.004.087-.054.142-.109.254-.126.045-.007.099-.008.137-.032.017-.01.038-.056.055-.059.058-.011.089.133.134.158.039.022.08.015.106.052.016.023.007.053.025.075.026.033.081.03.111.056.035.03.023.076.063.105.035.025.086.033.124.059.039.027.061.043.113.052.096.015.16.03.124.128-.06.161-.217.153-.361.187-.051.012-.048.072.003.082.025.005.049.011.072.021.054.023.096.061.161.038.015-.005.027-.012.038-.021.058-.047.146-.051.207-.007.045.032.098.054.147.056.083.003.152-.048.237-.048.081,0,.157.02.202-.048.036-.056.03-.094.125-.097.074-.003.16.033.204-.029.015-.021-.003-.035.028-.054.023-.015.064-.013.092-.015.07-.004.128-.003.193-.03.057-.023.106-.058.149-.098.089-.082.068-.203-.026-.281-.019-.015-.025-.036-.007-.064.027-.044.111-.042.157-.064.061-.03.095-.084.167-.101.062-.015.248.005.18-.094-.023-.034-.119-.06-.08-.108.026-.032.108-.023.148-.023.063,0,.15.004.169-.059.009-.029-.022-.077-.005-.104.027-.043.024-.095-.021-.127-.056-.039-.144-.053-.219-.065-.055-.009-.151-.009-.196-.036-.03-.018-.036-.04-.033-.063.008-.052-.041-.098-.104-.104h-.002c-.046-.005-.061-.052-.024-.075.076-.048.175-.086.221-.15.024-.033-.008-.06.025-.088.033-.027.125-.019.169-.03.068-.017.129-.043.201-.05.049-.005.165.011.204-.013.023-.014.033-.057.064-.076.035-.022.079-.035.121-.046.086-.023.176-.034.259-.064.113-.041.167-.107.237-.187.069-.079.149-.177.247-.234.089-.052.205-.063.309-.081.105-.018.25-.051.335.02.066.055.088.085.176.117.101.036.043.085-.04.113-.106.036-.219.109-.334.11-.056,0-.103-.007-.155.015-.052.022-.087.058-.146.073-.105.026-.21.005-.286.082-.027.027-.043.061-.079.083-.044.026-.1.021-.145.043-.112.054-.089.199-.142.284-.068.108-.051.172.002.284.018.038.026.101.058.133.026.025.057.023.091.035.091.033.142.113.233.149.119.047.272.044.401.052.146.008.293.022.439.015.131-.006.232-.055.357-.078.131-.025.276-.006.41-.019.149-.015.268.017.413.037.058.008.353.019.363.084.008.052-.28.067-.324.072-.312.037-.588.006-.896-.032-.141-.017-.275-.032-.406.02-.113.045-.23-.01-.321.063-.039.031-.055.041-.109.048-.029.004-.072-.004-.088.023-.018.03.026.048.015.075-.017.04-.11.043-.151.045-.05.003-.267-.016-.275.055-.004.039.094.045.125.05.068.009.134.014.202.026.05.008.105.02.153-.001.04-.018.049-.067.089-.078.063-.018.201.105.225.148.059.105-.083.127-.172.091-.117-.047-.201-.083-.334-.092-.118-.007-.235-.052-.321.025-.041.037-.064.059-.129.063-.022.001-.044,0-.067-.002-.019-.001-.034.008-.04.02-.016.031-.039.059-.074.077-.091.046-.195.114-.095.161.047.023.102.021.105.077.001.027-.019.05-.03.074-.017.04-.053.073-.102.087-.02.006-.04.013-.057.025-.05.033-.064.087-.106.126-.091.085-.131-.026-.22-.051-.062-.018-.135-.014-.2-.023-.076-.01-.152-.028-.23-.025-.131.006-.24.075-.369.088-.071.007-.146-.01-.213.015-.052.02-.086.062-.135.086-.114.055-.255.03-.379.022-.311-.021-.604-.063-.907-.12-.153-.029-.317.027-.467-.016-.043-.012-.111-.041-.071-.086.011-.012.028-.017.047-.019.026-.003.031-.032.007-.04h-.002c-.059-.021-.047-.092.017-.098.032-.003.065-.005.094-.012.036-.009.043-.048.009-.063-.024-.011-.039-.025-.023-.051.035-.058.126-.002.178-.014.15-.036-.209-.161-.257-.171-.207-.043-.366.002-.566.036-.096.016-.17-.008-.263-.019-.035-.004-.199-.002-.199.047,0,.027.089.029.111.039.055.024.056.049.031.071-.026.024-.036.056-.036.088.001.072-.1.165-.099.23.003.13.198.094.277.168.113.106-.191.129-.256.133-.07.004-.14.004-.208.018-.12.026-.228.074-.351.092-.121.018-.262.017-.374.062-.096.038-.181.109-.265.162-.092.058-.159.132-.245.194-.07.05-.173.045-.219.112-.024.035-.018.051-.071.068-.054.018-.104.018-.154.047-.09.052-.158.127-.252.176-.223.115-.463.176-.719.214-.12.018-.233.051-.338.102-.099.048-.189.109-.305.125-.118.017-.234.003-.352.028-.067.014-.178.025-.218.077,0,0,0,0,0,0-.025.034.005.079.054.081.026,0,.049.021.05.041.001.041.035.076.079.096.043.019.091.03.133.021.017-.004.032-.01.046-.017.058-.031.132-.022.177.021.009.008.021.014.041.017.068.011.103-.027.173.004.108.047.219.072.328.122.051.023.112.045.15.082.05.049.016.077.018.132.002.064.062.049.094.093.033.047-.03.083-.059.118-.043.052-.06.118-.086.177-.018.043-.027.109-.078.133-.056.026-.159.021-.221.028-.088.01-.177.021-.266.029-.353.034-.697.025-1.051.021-.241-.002-.511.026-.732.122-.08.034-.117.105-.116.178,0,.003,0,.006,0,.01-.007.036-.055.04-.073.068-.041.063.069.211.108.269.069.1.121.181.059.295-.042.077-.164.166-.092.255.045.057.129.075.158.123.022.037.055.067.102.082.007.002.013.006.019.012.037.037-.023.089.033.123.04.025.117.003.162,0,.07-.004.14-.002.209.002.139.008.291.014.428.037.07.012.126.053.192.066.035.007.069.018.102.031.101.041.396-.052.472-.065.186-.032.371-.048.547-.114.168-.063.319-.152.481-.225.139-.062.28-.118.33-.249.045-.118.094-.227.098-.349.002-.069.046-.096.118-.127.058-.025.121-.069.186-.079.127-.02.244-.002.369-.047.077-.028.098-.069.155-.115.074-.061.123-.06.111-.158-.008-.07.006-.097.07-.142.005-.004.01-.007.015-.01.097-.066.226-.086.348-.058.007.002.014.003.02.004.131.021.271.026.404.026.26,0,.451-.115.656-.229.098-.054.224-.103.341-.057.107.042.146.153.242.206.029.016.054.037.076.06.054.058.116.063.182.092.052.023.084.069.137.089.052.02.109-.005.16.014.046.017.039.046.069.074.037.034.079.028.13.029.149.005.297.055.432.099.1.032.198.07.295.109.096.038.22.064.3.127.152.12-.022.265.058.392.129.206.456-.041.536-.15.05-.069.031-.12.052-.191.025-.083.091-.049.168-.036.087.015.174-.055.12-.125-.047-.06-.178-.095-.252-.123-.233-.089-.448-.183-.692-.25-.227-.062-.435-.161-.604-.3-.085-.071-.173-.13-.271-.189-.064-.038-.168-.113-.109-.187.045-.056.128-.019.187,0,.058.017.117.017.175.031.058.014.088.045.134.074.077.051.188.052.258.11.073.06.097.101.203.125.111.025.176.077.274.121.111.05.245.054.364.086.122.033.236.076.34.139.043.025.084.053.132.071.047.018.114.013.156.035.069.036.029.116.04.172.009.048.043.086.067.13.025.047.032.1.072.141.03.031.074.048.111.072.043.029.059.064.091.1.069.076.213.066.313.104.117.045.219.096.349.112.127.016.258.026.386.037.058.005.125.012.183.003.05-.008.035-.003.056-.034h0c.025-.038-.001-.084-.052-.094-.051-.01-.103-.018-.134-.058-.025-.032-.02-.073-.036-.108-.017-.036-.046-.063-.079-.09-.03-.024-.105-.059-.055-.09.062-.039.192.036.271.009.063-.021.093-.074.148-.103.075-.04.142-.004.219.015.099.025.205.034.308.046.11.012.207-.012.317.012.127.029.212-.022.337-.036.081-.009.174-.002.258-.013.048-.006.061-.057.023-.081-.003-.002-.007-.004-.01-.007-.038-.029-.06-.067-.093-.099-.028-.026-.061-.05-.099-.066-.032-.014-.077-.015-.099-.04-.052-.058.049-.115.096-.15.033-.024.066-.044.08-.08.012-.032-.003-.064.022-.095.037-.046.129-.06.183-.091.04-.023.067-.036.113-.048.018-.005.092-.014.095-.037.003-.026-.071-.035-.075-.067-.007-.052.08-.053.121-.063.084-.02.115-.068.175-.115.044-.034.078-.05.082-.066.007-.031.036-.054.074-.049.03.004.06.004.089-.008.055-.023.073-.074.146-.068.103.008.151.093.264.09.044-.001.212-.021.192.048-.021.072-.208.031-.268.032-.134.003-.154.103-.046.164.041.024.096.03.135.056.051.035.039.08.066.125.073.121.3.149.442.132.091-.011.177-.037.266-.052.091-.015.18-.008.272-.011.066-.003.178-.012.192-.08.012-.059-.058-.086-.092-.124-.009-.01.007-.023-.012-.037-.015-.011-.044-.011-.062-.013-.003,0-.006,0-.008,0-.042-.003-.084-.013-.119-.032-.02-.011-.055-.019-.069-.027-.031-.016-.052-.042-.087-.052-.04-.012-.087.006-.12-.02.078-.041.197-.015.285-.019.105-.005.214-.024.318-.038.049-.007.092-.016.135-.037.032-.016.068-.057.105-.064.011-.002.024,0,.039.007.118.048.126.183.021.248-.066.04-.135.077-.196.122-.089.065-.014.13.039.194.034.041.066.082.118.11.054.029.124.032.176.062.047.027.064.069.121.086.069.02.147.004.218.024.12.035.2.104.329.126.123.022.141.113.237.166.057.031.181.072.155.143-.026.07-.159.134-.238.14-.153.013-.304-.038-.457-.035-.064,0-.121.01-.181-.013-.061-.024-.106-.056-.175-.068-.075-.012-.152-.004-.227-.02-.071-.016-.131-.051-.201-.069-.07-.018-.137-.026-.203-.054-.069-.03-.133-.069-.208-.089-.138-.036-.288-.013-.429-.039-.066-.012-.13-.029-.191.003-.058.031-.069.061-.147.061-.147,0-.297-.038-.444-.024-.062.006-.109.039-.168.05-.068.012-.14-.008-.207-.014-.106-.01-.23-.014-.305.059-.029.028-.038.057-.079.074-.055.023-.125.029-.184.051-.137.052-.283-.017-.413.031-.05.018-.079.059-.132.073-.064.017-.14.001-.206.007-.009,0-.018.002-.027.002-.07.007-.112.068-.083.121h0c.031.059-.037.105-.014.16.01.024.041.037.055.059.017.028.008.053.016.081.018.06.06.064.121.087.019.007.045.013.058.027.024.027-.006.043-.003.051.013.034.068.041.109.055.154.052.26.136.43.163.183.03.375.056.562.041.147-.012.312-.076.459-.038.077.02.106.073.165.112.065.044.151.056.234.059.178.006.361-.028.54-.033.128-.004.292-.088.372.035.073.112-.087.219-.17.295-.048.043-.122.071-.164.117-.053.057.007.11-.023.168-.028.054-.103.054-.126.117-.022.062-.022.1-.086.145-.099.069-.244.118-.373.089-.156-.035-.286-.127-.438-.172-.169-.051-.317-.059-.482.004-.172.067-.306.073-.487.019-.171-.051-.339-.114-.524-.12-.086-.003-.253.048-.315-.017-.047-.05-.009-.098-.111-.105-.051-.004-.107.008-.158.014-.102.012-.241.046-.341.012-.036-.012-.053-.027-.053-.044,0-.036-.025-.068-.068-.073l-.016-.002c-.05-.006-.066-.008-.094-.031-.041-.033-.06-.059-.119-.079-.136-.045-.217-.027-.345.014-.082.027-.166,0-.251.009-.105.01-.14.069-.225.104-.093.038-.117.045-.13.134-.009.059-.021.111-.098.132-.122.033-.275-.037-.399-.04-.189-.005-.377-.025-.54-.11-.06-.031-.031-.035-.051-.079-.014-.032-.043-.055-.082-.066-.042-.012-.084,0-.123-.02-.038-.02-.055-.05-.099-.066-.083-.03-.179-.027-.264-.056-.088-.031-.147-.042-.24-.023-.082.016-.165.038-.224-.027-.063-.07-.065-.112-.191-.082-.123.029-.183.003-.303-.02-.005,0-.01-.002-.015-.002-.048-.006-.066-.058-.027-.082.01-.006.019-.015.025-.028.033-.068-.084-.111-.076-.177.006-.049.127-.118.058-.166-.053-.037-.162.051-.196-.014-.005-.01-.005-.021,0-.031.025-.055.012-.117-.043-.155-.003-.002-.005-.004-.007-.006-.014-.018-.028-.036-.05-.048-.03-.017-.058-.036-.095-.043-.08-.016-.161-.025-.243-.043-.08-.018-.171-.031-.251-.007-.08.024-.139.067-.225.082-.198.034-.401.033-.602.029-.198-.004-.392.02-.588.039-.101.01-.202.016-.304.014-.105-.003-.198.02-.3.032-.094.011-.168-.023-.259-.026-.091-.003-.169.042-.253.062-.091.021-.18.036-.265.073-.078.034-.144.086-.225.116-.035.013-.079.016-.111.032-.036.018-.048.05-.078.073-.059.044-.141.035-.214.038-.254.013-.504.062-.758.074-.09.004-.181.012-.269.027h-.002c-.179.03-.341.112-.443.236-.016.019-.033.038-.053.054-.031.026-.057.031-.092.035-.063.007-.159.036-.212.065-.109.06-.199.14-.308.199-.015.008-.03.016-.046.023-.127.062-.203.175-.198.295,0,.021.002.041.007.061.02.075-.037.112.054.168.079.048.124.09.035.159-.075.059-.141.07-.184.156-.044.09-.129.123-.241.145-.179.034-.247.075-.467.231-.023.016-.042.036-.062.055-.06.058-.18.069-.201.145-.024.09-.048.138-.152.188-.034.016-.076.029-.101.054-.039.04-.005.06-.017.102-.011.038-.049.038-.079.062-.032.026-.039.06-.042.095-.007.076.021.155-.044.219-.053.052-.148.064-.196.12-.061.07.035.13.003.201-.028.064-.136.069-.163.135-.031.073.058.12.112.165.034.029.062.064.1.089.039.026.09.032.129.057.081.052.074.146.093.22.023.09.087.164.125.25.042.093.016.178-.044.261-.046.064-.137.124-.153.2-.018.087.079.109.12.174.037.06-.029.143.073.157.053.007.063-.008.097.03.023.026.015.05.061.064.045.013.098-.013.145-.011.051.002.109.021.145.052.034.029.046.07.081.099.038.032.093.056.141.075.106.042.222.058.321.112.092.049.164.116.241.18.153.127.309.226.528.259.213.033.377.133.581.187.179.047.225.216.417.252.229.043.479-.018.688-.092.207-.074.406-.178.635-.197.231-.019.463.061.693.019.039-.007.101-.023.135-.05.045-.036.104-.057.165-.066.085-.012.168-.047.246-.072.162-.052.325-.105.491-.149.154-.04.325-.07.482-.025.142.04.23.135.339.212.277.194.559.037.874.069.229.024.374.196.338.38-.021.11-.111.195-.175.29-.072.108-.102.23-.077.352.056.27.409.311.625.471.245.181.421.417.475.684.027.132.055.258.116.383.051.103.118.212.029.316-.084.097-.234.143-.321.24-.097.108-.157.246-.18.377-.046.259.101.489.281.693.099.112.2.223.273.348.036.061.067.125.071.193.003.067-.025.133-.019.2.012.117.124.21.154.324.034.131.021.258.116.375.083.101.195.181.265.29.075.116.123.248.14.379.017.129.002.265.089.38.041.054.09.101.123.159.031.056.053.118.105.165.187.169.478-.035.66-.104.282-.107.558-.093.859-.073.124.008.246-.001.319-.093.052-.065.069-.148.18-.155.065-.004.124.023.188.003.071-.022.132-.085.186-.127.101-.077.174-.179.3-.233.146-.063.305-.091.439-.174.129-.08.221-.182.29-.3.058-.1.094-.207.241-.233.08-.014.163-.005.243-.019.054-.009.149-.037.08-.09.265-.048.375-.232.391-.443.01-.132-.079-.258-.022-.389.051-.116.171-.194.306-.241.153-.054.32-.073.484-.089.143-.014.322-.01.448-.075.12-.061.194-.181.288-.264.11-.098.202-.196.251-.325.045-.118.058-.244.04-.367-.018-.127-.094-.237-.119-.361-.027-.133.047-.255.035-.387-.01-.107-.108-.207-.093-.314.022-.164.288-.222.433-.296.255-.131.446-.323.737-.411.3-.09.628-.097.889-.264.132-.084.248-.175.405-.229.159-.055.326-.094.474-.169.262-.133.438-.348.68-.5.16-.101.413-.222.393-.414-.029-.284-.512-.236-.756-.235-.19,0-.38.009-.57.018-.174.008-.361.031-.53-.013-.121-.032-.285-.089-.364-.174-.085-.091-.045-.215.074-.27.259-.12.561.062.819.093.169.02.321-.038.483-.066.177-.03.36-.018.539-.026.38-.016.754-.048,1.132-.085.184-.018.371-.004.553-.025.177-.021.339-.082.498-.146.165-.067.328-.131.505-.176.116-.03.231-.057.338-.104.121-.052.395-.174.356-.315-.027-.096-.183-.111-.244-.188-.041-.052-.06-.103-.125-.14-.055-.032-.122-.046-.187-.059-.126-.025-.256-.043-.337-.135-.071-.08-.146-.217-.17-.313-.017-.067,0-.17.109-.143.081.02.151.094.203.145.07.068.129.144.212.204.126.091.292.125.454.147.373.051.745.088,1.113.165.305.064.616.158.837.349.107.093.185.211.337.26.081.026.134.036.173.105.029.051.045.092.105.126.064.036.275.075.266.164-.007.067-.149.026-.202.028-.038.002-.111.014-.118.052-.009.054.091.068.135.077.15.031.164.145.223.251.119.212.368.131.592.11.107-.01.2.016.189.117-.012.107-.103.168-.149.258-.024.046.003.107.001.157-.002.065.017.127-.002.192-.039.136-.084.247-.076.391.004.072.037.125.067.192.03.066.035.137.059.204.024.065.064.124.065.194,0,.035-.012.069-.005.104.006.03.038.063.024.094-.017.038-.093.026-.104.064-.013.044.081.047.109.075.04.04.03.118.044.167.019.063.079.114.095.176.016.063-.041.107-.052.166-.012.064.02.123.057.178.049.074.089.182.205.196.079.01.159-.027.234-.042.085-.017.171-.037.256-.053.08-.016.142-.014.207-.058.024-.016.037-.037.069-.044.039-.008.074.014.111.011.14-.012.094-.21.193-.273.075-.048.207-.044.243-.127.048-.11-.103-.199.061-.269.088-.038.087-.121.161-.158.053-.027.114.005.17.008.081.005.158-.026.239-.027.068,0,.168.023.223-.022.047-.038.018-.095.102-.105.056-.007.11.025.168.017.085-.012.14-.056.232-.055.038,0,.113.007.136-.022.006-.008.019-.011.031-.008.052.014.165-.051.193-.065.11-.052.193.034.295.053.106.02.216-.017.312-.052.049-.018.12-.051.191-.072.081-.024.164.01.208.071.028.039.13.081.16.087.086.017.176.01.262.025.117.019.197.085.297.132.118.055.135.092.109.2-.024.099.029.178.045.275.016.097.086.179.128.27.018.039.039.082.063.118.021.032.064.048.084.077.039.057.008.201-.019.26-.019.042-.051.077-.096.103-.032.018-.088.027-.106.057-.04.065.073.162.131.193.063.034.184.061.257.035.067-.024.046-.136.131-.101.04.016.056.06.098.079.042.018.084.013.113.048.038.047.039.144.026.197-.016.071-.106.117-.113.189-.004.041.016.077.013.118-.002.036.01.07.007.106-.005.042-.028.06-.006.101.018.033.054.052.054.092,0,.076-.104.11-.155.162-.071.072-.028.173-.093.246-.034.037-.091.055-.134.084-.047.032-.084.072-.134.101-.005.003-.01.006-.015.008-.057.029-.044.099.022.111.052.009.103.02.142.052.059.049.039.102.03.163-.009.062.02.085.043.14.011.027.007.049.011.076.005.031.028.053.035.081.015.057-.029.048-.077.074-.053.029-.038.043-.014.084.028.047.032.07-.009.118-.044.052-.101.082-.087.152.004.021.042.069.03.089-.001.002-.003.004-.005.005-.038.034-.06.077-.041.121.01.024.018.049.022.076.004.029,0,.055.019.08.019.027.056.04.074.068.055.084.006.198.089.274.056.051.11.023.177.043.073.022.069.102.172.089.195-.026.07-.193.103-.289.022-.063.095-.104.125-.164.033-.066.032-.141.036-.211.004-.083.021-.172.009-.255-.01-.07-.054-.131-.093-.192-.042-.066-.085-.133-.106-.206-.022-.075.003-.136.003-.21,0-.11-.127-.19-.069-.305.038-.075.124-.116.191-.171.068-.056.09-.121.134-.189.041-.062.093-.087.167-.04.037.023.075.049.113.076.055.039.089.096.083.155-.002.016.003.033.017.058.03.055.075.103.105.158.028.053.05.107.089.156.03.036.087.074.076.123-.005.024-.033.035-.041.058-.011.03.007.058.019.086.019.047.06.109.035.159-.02.04-.079.052-.074.103.004.047.071.091.111.119.038.027.102.075.157.063.045-.01.057-.069.101-.077.043-.008.09.033.13.042.06.013.12-.003.181.004.066.008.122.042.187.052.073.012.143.002.212.03.061.025.104.063.175.072.065.009.136,0,.199-.017.137-.036.248-.122.323-.22.043-.056.073-.118.113-.176.028-.04.058-.075.048-.114-.005-.02,0-.04.017-.054.036-.03-.021-.101-.029-.138-.02-.093.071-.124-.014-.21-.04-.041-.066-.084-.101-.127-.033-.039-.1-.059-.126-.101-.041-.067.054-.127-.008-.195-.03-.033-.09-.045-.107-.086-.021-.05.028-.082.057-.12.048-.064-.002-.147.048-.202.073-.079.263-.065.358-.031.055.019.087.045.147.037.06-.008.104-.023.167-.021.144.006.24.076.286.189.022.054-.016.089.027.138.014.016.03.029.048.042.032.023.02.066-.021.076h-.001c-.062.016-.116-.004-.175-.017-.059-.013-.13-.027-.19-.012-.03.007-.057.018-.071.042-.022.039.015.053.02.087.01.07-.07.087.016.15.052.038.135.075.205.086.06.009.104-.011.161-.019.048-.007.093.003.141.003.255-.005-.06-.252.129-.299.084-.021.164.044.245.049.1.006.179-.059.273-.006.047.026.078.058.131.077.054.021.11.032.159.061.046.027.08.062.135.078.053.015.11.013.162.031.097.035.162.106.264.136.113.033.231.03.347.049.202.034.417.16.63.11.096-.023.175-.09.282-.068.081.016.167.103.257.083.071-.016.039-.079.087-.116.056-.043.157-.018.223-.012.185.017.356-.085.538-.106.09-.01.115-.038.11-.113-.006-.087-.007-.139.085-.197.072-.046.206-.085.212-.172.005-.086-.12-.133-.143-.211-.022-.073.05-.138.035-.212-.018-.092-.071-.141-.042-.239.026-.09-.035-.155-.024-.242.009-.075.079-.131.174-.115.091.016.152.09.252.067.088-.021.122-.051.206.004.119.079.204.164.374.111.199-.062.002-.225-.092-.289-.174-.119-.388-.183-.566-.295-.087-.055-.125-.134-.197-.198-.03-.026-.073-.045-.096-.075-.026-.035-.04-.093-.05-.133-.006-.025-.006-.05.002-.073.02-.064.123-.074.166-.019.009.012.019.023.031.033.07.066.186.09.282.051.081-.032.171-.021.273.002.086.019.171.045.261.052.046.004.094,0,.142-.001.057-.002.08.059.033.085-.081.044-.183.074-.265.1-.156.051-.087.131-.009.223.037.044.067.091.133.107.07.017.149.002.221.018.128.028.282.086.338.192.027.051.033.114.002.164-.034.055-.092.045-.139.082-.097.077.108.204.149.266.049.075.036.2.045.285.004.036.015.093-.013.125-.031.035-.098.033-.144.046-.126.037-.139.153-.126.247.004.025.006.038-.006.061-.021.038-.053.029-.025.069.021.03.125.062.146.1.016.029.052.048.091.053.02.003.041.006.06.013.049.017.079.052.124.074.09.045.192.014.286.043.092.027.216.175.324.13.061-.025.058-.098.11-.133.052-.034.162-.023.175-.088.016-.087-.105-.093-.009-.179.081-.074.029-.118.008-.208-.017-.072-.079-.144-.046-.215.02-.044.038-.058.023-.107-.009-.028-.035-.058-.014-.088.053-.077.246.012.315.033.187.058.371-.012.558-.03.1-.009.208-.016.309-.015.114.001.149.053.191.132.082.153.22.287.41.356.216.078.48.081.711.109.102.012.209.039.312.041.04,0,.085-.001.116-.025.03-.023.025-.064.057-.084.065-.04.227.034.301.04.113.01.217-.035.329-.019.113.016.217.051.333.058.116.007.231-.003.344-.023.068-.012.194-.016.218-.078.026-.068-.016-.109.054-.168.059-.049.129-.126.208-.151.102-.032.216.011.319-.024.092-.031.167-.101.219-.168.059-.075.057-.174.118-.245.048-.056.164-.075.148-.16-.014-.074-.118-.13-.15-.2-.069-.151-.061-.357-.279-.43-.065-.022-.186-.009-.217-.071-.026-.051.01-.111-.022-.167-.072-.125-.253-.173-.342-.287,0-.001-.002-.002-.003-.004-.061-.08.055-.169.152-.118.019.01.038.018.059.024.101.029.189-.03.29-.015.098.015.169.083.261.111.111.033.233.012.345.04.099.025.179.092.285.103.059.006.116-.011.175-.006.056.005.107.028.162.036.115.016.226-.001.338.034.113.035.217.062.337.078.22.029.407.111.568.236.078.06.161.123.22.196.064.079.063.171.138.245.07.07.077.156.159.221.085.068.173.132.251.207.08.076.148.16.228.235.077.072.141.09.252.107.171.025.375.119.413.27.02.082-.028.151.052.218.041.034.132.077.03.1-.01.002-.019.003-.029.003-.037,0-.055.037-.028.057.036.026.066.054.067.083,0,.009-.002.015-.005.02-.036.053.008.12.078.138.049.013.097.023.128.036.177.074.245.24.364.358.035.035.079.061.126.083.027.013.058.019.087.03.012.005.03.01.039.019.014.015-.007.022-.013.034-.011.02.008.033.022.049.023.026.053.048.082.069.044.034.099.066.16.072.215.019.077-.175.132-.249.051-.07.142-.006.197.024.076.042.147.053.236.066.099.014.192.054.293.056.095.001.15-.011.213.06.048.055.07.13.15.161.014.005.054.015.078.014.027-.001.053.006.072.021.057.042.113.084.176.12.077.045.164.086.215.154.075.1-.016.132-.107.165-.038.014-.055.05-.04.081.035.074-.086-.007-.151.036-.037.024.063.143.049.169-.008.015-.009.032.005.044.031.026.065.05.09.08.033.04.047.094.095.126.055.037.12.016.179.038.063.024.06.074.097.115.045.049.12.05.183.077.066.028.108.077.161.118.051.039.112.072.184.078.074.006.128-.026.197-.037.117-.019.253.054.325.127.107.107-.107.08-.186.074-.071-.006-.14-.011-.209.007-.066.017-.134.072-.207.061-.074-.011-.083-.066-.114-.111-.035-.05-.094-.077-.146-.114-.108-.078-.214-.182-.351-.227-.074-.024-.156-.015-.23-.037-.067-.02-.119-.063-.184-.086-.077-.026-.147-.004-.225-.012-.069-.007-.129-.037-.184-.07-.117-.069-.212-.128-.352-.165-.15-.04-.25-.094-.349-.196-.076-.078-.173-.216-.31-.221-.142-.005-.235.096-.388.063-.134-.029-.239-.084-.383-.067-.278.031-.387.202-.474.394-.045.1-.132.141-.214.217-.062.058-.207.182-.178.264.005.013.012.025.021.036.023.027-.002.064-.042.065-.034.001-.066.01-.086.036-.037.047-.005.091-.07.13-.061.036-.105.039-.097.114.007.067.064.131.114.182.104.105.255.177.422.183.099.003.191-.017.28-.052.073-.029.14-.063.209-.008.052.041.059.077.145.055.075-.019.116-.057.2-.042.154.027.28.145.354.252.061.088.116.192.263.161.084-.018.144-.046.233-.028.097.02.18.071.275.094.174.042.305-.038.427-.129.096-.072.284-.177.181-.295-.043-.049-.151-.123-.038-.162.077-.027.188-.005.268.003.157.015.305-.026.46-.02.175.006.252.1.313.222.069.137.187.205.302.313.11.103.12.245.2.362.041.059.093.12.166.155.069.033.136.047.193.096.066.056.123.131.161.202.034.065.027.083-.016.136-.204.253.275.513.512.586.042.013.14.034.135-.029.096-.017.171.069.218.124.061.071.106.138.205.178.127.051.246.068.34.163.088.089.149.192.248.274.103.086.242.129.351.209.105.078.191.177.263.276.15.207.238.423.268.661.004.03.011.111.054.125.017.006.05-.013.072-.013.028,0,.054.009.08.018.084.027.204.071.232-.034.025-.094-.051-.199-.054-.294-.004-.118.079-.224.081-.343.006-.244-.168-.491-.275-.712-.124-.255-.242-.512-.364-.767-.244-.512-.494-1.022-.757-1.527-.262-.505-.536-1.005-.819-1.502-.283-.496-.577-.989-.882-1.476-.304-.486-.619-.968-.944-1.444-.326-.477-.662-.95-1.009-1.417-.347-.467-.704-.929-1.071-1.386-.367-.457-.745-.908-1.132-1.354-.387-.445-.784-.884-1.19-1.317-.404-.431-.818-.857-1.241-1.276-.424-.42-.856-.833-1.298-1.24-.443-.408-.895-.81-1.356-1.204-.462-.396-.934-.785-1.413-1.168-.128-.102-.253-.204-.393-.289ZM109.449,43.127c-.005-.007-.01-.013-.015-.02-.136-.187-.206-.404-.311-.603-.2-.38-.212-.398-.212-.398-.1-.185-.202-.373-.269-.568-.047-.137-.064-.243.125-.119.227.15.467.259.657.443.128.124.213.276.277.428.116.273.252.519.415.774.141.22.294.449.38.689.067.188-.156.068-.247.011-.143-.088-.274-.191-.403-.293-.14-.111-.292-.209-.398-.344ZM110.557,32.571c-.027-.004-.144-.019-.315-.047-.17-.028-.077-.093-.097-.124-.019-.031,0,0-.213-.047-.019-.004-.037-.008-.053-.012-.058-.013-.116.011-.147.053-.027.036-.113,0-.089.063.016.04.054.073.093.098,0,0,0,0,.04.026.022.015.001.033.005.051.007.032.133.078.125.095-.011.023-.167-.005-.187-.007-.163-.019-.114.009-.199-.023-.12-.044-.233-.101-.352-.148-.014-.005-.035-.039-.049-.051-.017-.014-.052-.033-.055-.054-.004-.023.074-.108.035-.141-.015-.012-.032-.029-.035-.047-.002-.014.009-.026.005-.04-.012-.044-.068-.067-.115-.08-.046-.013-.11-.009-.144-.04-.051-.047-.111-.057-.173-.088-.026-.013-.04-.034-.066-.048-.052-.028-.12-.028-.18-.033-.089-.008-.178-.043-.253-.081-.06-.03-.045-.048.024-.047.044,0,.089.008.13.021.088.026.288.083.443.127l.026.01c.026.009.232.056.345.061.112.004.157.053.188.075.032.021.163.028.273.041.11.013.135.059.218.068.082.009.415.038.488.048.074.009.259.024.447-.003.188-.027.035.084.069.161.033.077-.059.048.009.103.128.103-.215.063-.242.06ZM114.85,42.506c-.07.111-.193.081-.31.126-.079.03-.168.078-.26.071-.11-.008-.218-.024-.327-.038-.082-.01-.206-.019-.13-.103.091-.099.06-.189-.012-.257-.053-.051-.144-.114-.232-.107-.047.004-.072.038-.117.044-.043.006-.099-.011-.125-.04-.034-.038.01-.059.005-.098-.005-.045-.077-.068-.077-.115,0-.024.033-.054.021-.077-.011-.022-.053-.026-.074-.038-.082-.046-.173-.07-.212-.147-.022-.043-.078-.075-.096-.116-.012-.027.011-.075-.045-.075-.015-.04-.06-.079-.066-.12-.007-.047.105-.022.134-.02.065.005.13.008.192-.011.034-.01.078-.037.114-.038.053-.002.045.055.065.083.019.027.06.048.068.08.003.013-.005.034.002.048.011.02.044.022.055.042.016.029-.007.059-.002.088.004.026.062.062.052.085-.007.016.067.054.075.076.006.017-.005.034.006.05.053.075.197.015.27.047.03.013.032.044.056.061.029.021.074.018.103.04.028.022.036.056.063.078.031.025.071.03.112.037.054.008.048.007.077.043.034.041.144.031.147.091.004.075.178.091.245.095.076.004.14-.02.217-.002.083.019.03.075.005.115Z"/>
    </g>
    <path class="cls-23" d="M89.095,50.272c-.045.225.1.515.143.732.056.281.115.649-.139.881-.289.264-.888.399-.858.828.024.349.232.76.01,1.094-.116.175-.211.3-.154.498.037.129-.025.251-.15.328-.122.075-.205.186-.234.309-.044.187-.054.386-.017.575.02.105.038.14-.062.211-.084.061-.177.114-.255.181-.112.096-.107.188-.108.315,0,.093-.039.17-.113.24-.068.064-.175.115-.138.217.043.116.173.194.201.318.037.166-.001.322-.035.485-.034.163.241.287.318.436.136.261-.266.61.074.82.165.102.488.096.612.233.159.176-.287.409-.53.415-.027,0-.038-.027-.016-.04.055-.032.105-.079.151-.121.036-.033.033-.086-.01-.113-.092-.059-.223-.021-.33.022-.135.053-.254.054-.401.045-.215-.013-.611-.026-.704-.223-.021-.045-.02-.1.007-.125.022-.021.024-.052.002-.074-.09-.089-.152-.198-.234-.289-.018-.02-.051-.049-.075-.063-.063-.037-.109-.037-.142-.102-.059-.117.092-.195.117-.303.035-.146-.081-.444-.276-.499-.056-.016-.058.008-.102.009-.143.003-.229-.099-.324-.176-.085-.069-.18-.139-.227-.231-.056-.11-.06-.239-.081-.356-.084-.464-.33-.892-.639-1.282-.302-.382-.448-.805-.636-1.228-.142-.32-.376-.644-.827-.694-.445-.049-.892.061-1.34-.025-.099-.019-.198-.046-.287-.088-.095-.044-.153-.121-.241-.167-.067-.035-.14-.022-.215-.028-.103-.009-.163-.034-.249-.082-.21-.116-.441-.229-.682-.297-.176-.049-.375-.081-.515-.194-.099-.08-.043-.214-.082-.324-.049-.139-.187-.265-.273-.39-.166-.243-.165-.43-.128-.69.051-.356-.146-.752-.509-.964-.129-.076-.308-.138-.451-.051-.117.072-.172.205-.242.306-.234.333-.718.373-1.15.331-.241-.023-.469-.085-.7-.14-.061-.015-.126-.036-.189-.045-.103-.014-.192.023-.291.05-.166.046-.335.085-.502.119-.179.036-.275.158-.468.169-.223.013-.447-.012-.67-.007-.196.004-.338.106-.468.227-.143.133-.192.287-.404.367-.218.082-.457.125-.68.197-.42.136-.805.319-1.275.259-.37-.047-.685-.266-1.04-.275-.25-.006-.494.041-.742.042-.216,0-.435-.032-.647-.064-.382-.057-.757-.162-1.146-.093-.17.03-.384.084-.479.213.114-.051.411.088.5.151.097.068.133.176.223.249.104.084.235.073.371.061.322-.028.618-.086.943-.054.18.018.181.1.118.229-.054.112-.175.284-.318.329-.11.035-.3.049-.414.031-.114-.018-.201-.085-.312-.109-.281-.061-.589.205-.843.077-.098-.049-.16-.131-.261-.182-.13-.065-.086-.145-.146-.244-.071-.116-.24-.097-.374-.09-.177.009-.322-.028-.49-.073-.178-.047-.358-.089-.547-.07-.186.019-.359.084-.53.142-.169.057-.347.116-.533.119-.163.003-.306-.053-.457-.097-.284-.083-.565.008-.841-.071-.35-.101-.699-.214-1.008-.384-.279-.153-.409-.296-.526-.548-.092-.196-.183-.36-.457-.395-.232-.029-.486-.11-.282-.325.042-.045.157-.109.16-.17.005-.093-.187-.118-.268-.127-.702-.08-1.087.66-1.781.629-.188-.008-.344-.081-.533-.06-.204.022-.403.065-.601.109-.205.045-.412.096-.624.116-.216.02-.434.009-.651.01-.241.002-.46.032-.691.083-.195.043-.45.086-.61.194-.07.047-.049.061-.061.126-.01.054-.042.105-.088.145-.162.146-.401.239-.613.328-.176.074-.378.136-.536.235-.136.085-.21.211-.293.33-.101.146-.229.274-.36.402-.246.243-.453.535-.773.72-.135.078-.302.116-.426.206-.13.094-.177.229-.177.367,0,.127.04.249.047.375.01.195-.067.293-.213.505-.043.063-.091.124-.144.182-.106.117-.118.102-.227.128-.256.061-.177.438.018.528.079.037.136.011.208.086.071.075.098.172.104.261.017.289-.041.58-.003.868.037.283.195.543.312.808.122.275.205.565.113.855-.092.293-.301.552-.409.841-.075.201-.078.418-.266.581-.237.207-.298-.082-.312-.236-.026-.289.019-.572.04-.859.024-.321-.045-.639-.038-.96.003-.134.007-.276.018-.407-.194-.168-.394-.028-.47.145-.067.153-.175.292-.275.432-.116.163-.24.34-.434.448-.09.05-.143.067-.249.082-.12.017-.258.057-.313.155-.099.176-.145.43-.415.502-.061.016-.128.011-.186-.011-.053-.02-.107-.089-.171-.079-.057.009-.119.116-.149.149-.308.338-.551-.089-.64-.331-.153-.417.109-.864.075-1.287-.007-.092-.023-.163-.089-.237-.031-.035-.097-.075-.117-.113-.032-.059.008-.119.03-.178.101-.273.206-.545.314-.816.424-1.069.898-2.125,1.42-3.165.518-1.033,1.084-2.051,1.695-3.049.608-.994,1.261-1.969,1.957-2.924.347-.476.705-.946,1.073-1.411.042-.053.081-.123.142-.162.063-.041.149-.057.211-.103.024-.018.038-.038.059-.056.111-.092.241-.173.361-.258.619-.44,1.2-.91,1.86-1.31.305-.185.633-.378.996-.48.116-.033.247-.061.37-.041.288.046-.014.118-.073.215-.033.055-.018.044.054.037.076-.008.167-.049.232-.08.234-.11.382-.317.554-.48.19-.181.369-.369.619-.497.08-.041.152-.082.242-.105.131-.034.272-.037.403-.067.137-.03.136-.082.076-.172-.069-.103-.061-.096.014-.188-.001-.002-.01.001-.01.001.088-.08.198-.15.298-.221.235-.167.478-.373.746-.502.368-.177.798-.296,1.19-.434.19-.067.288-.238.428-.36.219-.191.469-.366.746-.499.109-.052.222-.085.338-.125.095-.033.16-.095.236-.153.094-.072.341-.234.212-.355-.095-.089-.326-.082-.455-.084-.214-.004-.429.007-.642.011-.119.002-.239.007-.358.008-.176,0-.164-.067-.094-.18.098-.156.184-.371.053-.532-.056-.069-.145-.112-.24-.137-.089-.023-.321.001-.37-.061-.053-.068.094-.187.138-.24.094-.11.183-.224.292-.324.193-.179.435-.311.686-.43.261-.124.525-.255.802-.354.089-.032.285-.109.231.031-.068.177-.301.29-.4.452-.07.115-.079.289-.1.416-.01.059-.024.122.002.18.065.148.323.116.482.133.091.009.183.018.274.029.151.024.362.037.501.102-.14.089.125.115.187.119.087.006.226.017.305-.022.055-.027.094-.085.149-.12.098-.061.208-.113.321-.152.079-.028.201-.061.283-.015.089.05.015.102.041.171.027.07.166.123.25.095.089-.03.124-.135.155-.2.042-.088.339-.494.232-.566-.084-.056-.381.025-.485.038-.127.016-.254.032-.382.044-.19.018-.366-.038-.555-.062-.151-.019-.231-.074-.367-.122-.08-.028-.197-.039-.262-.089-.131-.102.049-.368.134-.471.087-.106.245-.201.363-.284.002-.001.004-.003.006-.004.044-.031.11-.018.135.025.005.009.013.019.024.03.032.033.112.1.161.117.112.038.312-.012.428-.023.135-.013.337-.062.47-.027.069.018.121.069.19.088.143.038.217-.012.087-.1-.09-.061-.182-.038-.141-.147.015-.039.092-.109.063-.143-.036-.042-.21-.002-.211-.084,0-.05.154-.117.195-.143.084-.052.098-.064.115-.146.016-.078.032-.167.11-.219.139-.094.391-.127.561-.158.089-.016.384-.094.416.013.035.118-.225.335-.302.418-.049.053-.11.097-.063.164.047.067.184.094.268.105.106.015.262.02.353-.036.072-.044.129-.132.184-.189.052-.054.222-.177.224-.251.004-.116-.21-.102-.001-.152.082-.02.21-.072.263-.129.035-.038.029-.068.061-.109.093-.12.321-.158.475-.201.099-.027.198-.072.306-.066.099.005.166.029.269.018.09-.009.193-.041.284-.034.088.006.188.078.279.062.132-.023.112-.171.127-.253.019-.098.138-.124.241-.17.209-.093.412-.212.664-.18.277.035-.028.238-.12.31-.051.039-.124.08-.154.132.151.061.459-.097.604-.145.204-.067.412-.132.623-.182.053-.013.117-.034.172-.025,0,0,0,.003,0,.003-.008.007-.015.016-.023.024.124-.04.276-.029.404-.004.04.008.125.019.152.048.03.033.005.029.01.064.033.244.26.235.515.213.332-.028.666-.032.994-.087.079-.013.158-.029.234-.05.059-.016.137-.066.196-.072.119-.012.146.113.183.186.049.096.031.123-.049.205-.068.069-.137.138-.207.207-.06.059-.184.136-.226.201-.043.067.047.21-.09.232-.074.012-.177-.028-.253-.034-.07-.005-.141-.003-.21-.002-.107,0-.237.026-.309-.044-.037-.036-.032-.093-.097-.098-.054-.004-.161.07-.195.099-.183.159.166.273.319.281.089.005.195-.026.274.007.048.02.095.073.135.102.061.046.171.102.211.162.059.089-.06.133-.138.18-.148.089-.31.197-.484.25-.118.036-.246.011-.37.016-.043.002-.088,0-.12.021.132.116.417-.056.579.084.183.159-.135.206-.273.243-.384.103-.785.144-1.185.193-.302.036-.601.008-.897-.048-.17-.032-.3-.084-.466-.033-.1.031-.188.074-.283.112-.092.037-.185.007-.225.071-.042.067-.024.137-.095.2-.073.065-.185.089-.286.11-.086.018-.411.099-.392-.014.012-.073.155-.172.215-.219.072-.056.15-.093.232-.131.163-.074.312-.166.441-.276.145-.123.156-.164.175-.26.019-.094.061-.148.145-.216.085-.068.182-.128.259-.203.08-.079.126-.179.181-.27.062-.103.082-.165-.08-.19-.154-.024-.317-.038-.474-.036-.205.002-.347.121-.534.179-.164.05-.349.138-.516.083-.211-.07-.413-.121-.632-.053-.1.031-.2.071-.288.12-.078.043-.096.089-.152.14-.116.107-.281.15-.443.14-.159-.009-.294.093-.435.146-.068.026-.187.031-.203.108-.006.03.003.034.039.031.117-.009.231-.078.346-.1.094-.018.209-.018.244.072.043.111.048.231.071.346.011.054.022.109.045.161.019.042.079.094.084.135.018.146-.27.313-.378.394-.171.128-.344.255-.524.375-.218.144-.533.267-.664.48-.055.09-.141.191-.158.294-.013.078.013.15-.007.226-.023.083-.057.165-.086.246-.057.158-.285.254-.434.361-.133.095-.278.193-.386.309-.082.087-.097.24-.154.35-.178.343-.387.675-.601,1.003-.039.059-.173.19-.111.256.037.04.128.029.183.031.212.008.432.032.643.017.217-.016.416-.053.633-.013.158.029.267.027.423-.021.214-.065.392-.179.597-.258.215-.083.457-.115.689-.152.42-.066.831-.116,1.233-.239.339-.103.621-.063.9.124.136.092.28.177.433.248.097.046.174.084.236-.012.08-.124.062-.247-.013-.362-.03-.045-.068-.095-.067-.147.001-.063.075-.125.005-.18-.075-.06-.266-.008-.205-.144.042-.093.199-.185.282-.255.193-.162.563-.505.236-.711-.234-.147-.576-.025-.824-.132-.139-.06-.065-.129.008-.21.114-.127.211-.212.132-.377-.069-.142-.154-.201-.297-.296-.128-.085-.196-.195-.055-.301.144-.109.316-.197.482-.28.212-.106.444-.232.68-.298.285-.08.633-.125.929-.088.244.031.448.008.691-.014.129-.012.274-.012.338.094.062.104.001.273.14.343.099.05.249.008.346-.017.158-.041.311-.093.46-.152.26-.104.323-.076.369-.262.026-.108.055-.364.168-.442.066-.046.173-.008.254.002.152.018.302.046.445.091.182.057.368.1.5.217.129.114.252.233.384.346.137.117.434.045.624.043.22-.002.444,0,.663.025.109.012.211.041.32.052.107.011.214.021.321.033.062.006.205,0,.255.036.115.081-.161.426-.222.515-.05.074-.157.14-.071.207.077.06.254.074.353.09.161.026.324.044.487.057.257.02.594-.039.674.224.023.075.032.123-.039.154-.072.032-.177.036-.256.068-.111.044-.223.075-.345.092-.201.029-.423.009-.617.061-.143.038-.271.119-.421.141-.397.058-.038-.489-.003-.617.117-.438-.65.09-.774.173-.143.096-.281.215-.452.276-.253.09-.507.18-.748.291-.135.062-.268.128-.405.188-.054.023-.535.162-.301.26.119.05.339-.093.454-.117.085-.018.395-.059.415.034.016.078-.112.155-.104.246.008.09.086.138.182.169.202.064.42.025.624-.009.172-.029.471-.246.635-.102.214.187-.371.28-.503.32-.273.082-.61.158-.832.319-.042.031-.084.062-.126.093-.048.037-.109.059-.173.071-.058.011-.158.059-.174.067-.137.067-.288.143-.392.244-.155.149-.226.357-.313.537-.02.041-.028.096.003.129.034.037.033.088-.012.116-.07.044-.155.081-.215.114-.171.093-.304.158-.38.32-.11.235-.105.506-.126.754-.012.146-.019.284-.043.429-.032.191.132.234.213.383.057.104-.108.218-.176.297-.061.069-.122.142-.181.211-.192.228-.482.573-.444.873.018.141.134.268.219.387.06.084.112.186.187.262.062.063.839.479.569.564-.156.049-.322-.018-.465-.054-.092-.023-.189-.012-.277-.05-.09-.039-.13-.105-.184-.17-.128-.154-.324-.22-.541-.153-.13.04-.147.181-.27.208-.105.023-.222.004-.33.037-.081.025-.168.065-.24.104-.114.061-.167.168-.291.222-.095.042-.136.058-.169.164-.049.153-.098.282-.275.373-.311.16-.595.225-.802.495-.08.105-.11.225-.189.333-.084.113-.263.274-.281.408-.018.14.158.234.281.298.203.106.365.271.482.442.054.078.094.158.113.246.011.05.004.075.051.112.106.083.4.105.537.087.099-.012.155-.085.249-.031.083.048.093.079.216.07.172-.013.344-.129.484-.205.175-.095.351-.174.447-.329.049-.079.144-.172.1-.257-.054-.103-.153-.155-.125-.281.029-.129.124-.259.231-.355.079-.071.28-.207.41-.137.101.054.042.226.064.311.039.155.13.3.203.446.034.068.072.241.16.245.138.007.392-.201.48-.263.117-.062.27-.178.405-.203.206-.038.423.201.512.319.077.101.137.211.181.324.038.098.036.156.169.166.219.016.456.027.675.016.141-.007.206-.035.265-.136.075-.128.173-.247.284-.356.114-.112.119-.136.265-.137.107,0,.22-.013.308-.067.167-.104.107-.32.176-.47.079-.172.096-.45.334-.503.263-.058.341.169.572.223.072.017.139-.006.098-.057-.057-.072-.155-.137-.122-.234.047-.139.234-.238.397-.249.37-.023.74-.097,1.081-.218.295-.105.553-.309.882-.322.185-.007.373.073.548.12.208.056.394.101.612.117.395.027.748-.125,1.108-.233.153-.046.352-.024.514-.022.196.002.399.124.552.22.102.064.325.113.38.21.067.117-.227.276.094.244.145-.015.284-.073.429-.077.174-.006.327-.073.498-.091.326-.033.678.17.99.083.142-.04.282-.085.422-.128.135-.041.295-.121.426-.076.181.063.319.185.525.171.163-.012.352-.048.515-.023.22.033.425.183.547.329.069.083.065.12.004.2-.063.081-.126.162-.193.242-.251.301-.435.606-.555.959-.005.015-.009.03-.012.046Z"/>
    <g>
      <path class="cls-30" d="M81.423,28.568c.014,0,.003-.008,0,0t0,0Z"/>
      <path class="cls-44" d="M92.219,27.513c-.077-.055-.134-.023-.081-.074.053-.051-.092-.016-.226-.005-.134.011-.184-.028-.239-.019-.054.008-.228.088-.463.083-.235-.005-.443.004-.484.028,0,0-.042.024-.042.024-.188.028-.36.062-.384.074-.346.177-.574.092-.878.139-.178.028-.813.185-.872.345-.017.046-.135.079-.183.031-.048-.048-.081-.024-.058-.074.024-.05.157-.041.182-.061.026-.019-.022-.019.101-.063.123-.045.153-.078.224-.107.072-.029-.014-.07-.002-.084.012-.015-.098-.077-.176-.066-.078.011-.14.022-.205-.002-.066-.024-.034-.075-.143-.057l-.078.013c-.025.004-.054-.004-.065-.024-.009-.016-.005-.034.011-.049.008-.007,0-.018-.011-.016l-.137.025c-.193.036-.282.041-.288.025l-.005-.016c.011-.022.028-.044.053-.057.021-.011.028-.022.036-.041.015-.029.056-.055-.015-.069-.071-.014-.104-.059-.141-.023-.037.035-.173.05-.298.069-.127.019-.037.013-.156.007-.076-.004-.103-.006-.113-.007-.004,0-.008,0-.013,0-.077.006-.14.01-.205-.013-.019-.007-.028-.025-.017-.04.009-.012.022-.02.039-.028.009-.004.007-.016-.003-.017-.286-.04-.699.106-.977.153-.355.059-.72.069-1.073.14-.239.048-.478.137-.729.137-.118,0-.295.023-.471.065-.175.042-.184.044-.299.083-.28.094-.686.269-.991.296-.022.002-.038.018-.035.035.011.06.039.101.11.131.104.044-.27.1-.299.104-.001,0-.002,0-.004,0-.147.032-.301.065-.451.088-.182.029-.229.02-.241-.017l-.002-.005s-.018-.007-.039-.009l-.064-.019c-.166-.05-.211-.054-.261-.034-.049.02-.275-.028-.361.021-.086.048-.195.146-.354.215-.16.068.1.053-.171.139-.27.087-.13.102-.096.102.035,0,.245.004.315-.024.07-.028.232-.077.246-.051,0,0,0,0,0,0,.019.03.005.067-.035.076-.129.029-.309.074-.275.103.051.044.117.082.068.117-.049.034-.371.156-.382.139-.01-.017.025-.017-.1-.052-.236-.067-.552.013-.792.032-.098.008-.52-.03-.569.034l.019-.025c-.109.011-.23.032-.301.052-.026.007-.048.021-.063.04l-.033.043c-.052.068-.486.119-.299.134.187.016.14.011.196.042.055.031.196-.023.209-.001.015.022.247.029.064.083-.183.054-.292.063-.341.042,0,0-.049-.021-.049-.021-.004-.006-.06-.006-.128,0-.012.001-.024.004-.035.008-.259.091-.509.279-.809.26-.176-.012-.198-.116-.44-.073-.398.07-.724.308-1.085.449-.467.182-.928.376-1.383.579-.036.016-.04.057-.008.078h0c.018.012-.061.049-.201.089-.141.04-.212.01-.318.081-.229.151-.534.195-.76.355-.008.006-.014.014-.014.022-.012.149-.56.315-.55.335.012.023.14.001.105.056-.035.054-.008.042.085.054.094.011.205-.018.228-.024.023-.005-.053.013.14-.082.193-.093.054-.075.184-.126.13-.051.276-.115.269-.071-.008.045-.043.089-.099.12-.055.031-.149.134-.189.151-.041.017-.188.047-.2.075-.012.028-.037.052-.174.073-.129.019-.46.162-.578.243-.029.02-.076.05-.107.068-.063.036-.127.07-.192.105-.159.085-.321.167-.483.248-.098.048-.196.097-.299.136-.04.015-.068.044-.102.065-.023.015-.055.026-.071.048-.013.018-.033.055-.014.074.024.024.099-.004.147.017.048.021.074-.01.18-.026.105-.016.071.006.204-.019.133-.026.12-.048.252-.055.132-.007.068.032.232-.017.166-.049.148-.018.183,0,.035.017.277-.056.137.019-.14.076-.173.03-.408.105-.178.057-.344.147-.526.193-.018.005-.03.019-.026.035.003.014.006.031.009.046.004.019.028.031.05.024.118-.036.269-.117.345-.056.011.009.03.012.044.007.075-.03.156-.06.239-.076.043-.008.075.032.048.061h0c-.01.01.026.013.023.018-.008.005-.016.01-.024.016-.033.024-.012.069.033.068.148-.001.358.031.437.028.528-.023.822-.34,1.275-.507.469-.174,1.067-.262,1.581-.324.149-.018.451-.08.592-.012.044.021-.126.221.075.239.172-.017.389-.122.587-.095.058.008-.03.105.03.099.119.038.272.044.291.143.002.012.013.022.027.025.179.039.366-.028.531.074.003.002-.154.094-.168.102-.045.026-.127.06-.125.113,0,.018.059.033.074.042.069.039.068.099.04.154-.013.024.018.049.048.04.061-.019.126-.031.188-.045.123-.028.251-.051.365-.102.235-.104.407-.225.561.045.043.076-.54.083-.56.086-.131.022-.248.136-.344.207-.036.027-.093.078-.021.095.063.015.169-.012.23-.028.095-.026.187-.066.287-.077.13-.015.583-.133.753-.101.032.006.04.04.014.055-.104.061-.282.146-.102.194.02.005.033.023.027.04-.015.037-.041.072-.069.104-.052.06-.11.116-.172.169-.06.052-.123.102-.191.147-.025.017-.049.036-.077.049-.014.007-.029.012-.046.014-.017.002-.035-.006-.051-.003-.018.004-.016.014-.003.022.032.02.077.027.115.032.213.027.01.187-.132.28-.024.016-.015.047.015.054.068.016.137.057.175.092.012.011.012.03,0,.041-.059.045-.228.036-.214.092.064.07.414-.002.53.051.264.119.233.199.526.169.03-.003.053.023.04.045-.033.056-.088.109-.147.152-.019.014-.017.038.005.051.114.065.078.183.242.209.104.016.174-.113.268-.083.145.045.121.201.246.263.165.082.423.001.608.038.183.037.317.105.509.088.152-.013.276-.076.447-.071.336.009.774.168,1.034-.089.098-.097.046-.167.091-.269.018-.041.109-.107.138-.158.116-.206.14-.476.338-.649.175-.153.026-.424.16-.57.104-.114.257-.058.378-.119.094-.048.099-.135.19-.196.192-.128.485-.093.707-.165.269-.088.526-.165.723-.344.238-.217.474-.495.761-.669.292-.177.678-.166,1.011-.255.467-.126.919-.314,1.341-.518.165-.08.726-.226.35-.351-.172-.057-.53.037-.705.076-.101.023-.308.135-.411.079-.204-.111.392-.352.554-.439.013-.007.03-.007.042.001.081.05.464.162.497.167.223.031.773.085.937-.1.023-.025.055-.078.085-.136.029-.056-.01-.119-.082-.134-.133-.026.004-.154-.162-.175-.406-.051-.814.054-1.222-.003-.032-.004-.041-.073-.085-.079-.075-.009-.163.047-.23.031-.062-.015-.13-.041-.184-.077-.021-.015-.018-.042.007-.052.419-.168.873-.323,1.316-.231.038.008.041.05.005.061-.117.037-.264.045-.391.057-.022.002-.03.025-.013.036.028.019.058.039.093.051.042.014.083.007.127.006.061-.002.121-.005.181-.008.059-.003.118-.007.177-.01.071-.004.147-.005.216-.02.066-.014.101-.022.119-.026.022-.005.042-.014.056-.029.016-.017.03-.041.035-.064,0,0,0,0-.003-.008-.002-.008-.076-.025-.162-.013-.083.011-.193.041-.214.032-.01-.004-.018-.009-.025-.014-.017-.013-.008-.036.015-.041.174-.037.542.026.656-.097.011-.012-.001-.03-.02-.028-.047.004-.011-.026-.028-.036-.007-.004-.01-.002-.006-.009.005-.007.021-.013.03-.017.033-.016.068-.031.098-.051.015-.01.032-.025.039-.04.012-.026-.015-.033-.042-.032-.015,0-.031,0-.046-.002-.022-.002-.052-.005-.066-.02-.021-.024-.057-.016-.089-.019-.041-.003-.083-.005-.124-.009-.023-.002-.084.002-.077-.029.003-.016.018-.029.032-.039.012-.009.033-.024.051-.023.019.002.034.025.048.034.032.019.072.031.112.031.068,0,.21-.033.239-.04.028-.006.05-.009.174-.025.123-.016.124-.016.159-.02.028-.003.054-.014.073-.03.016-.013.032-.029.046-.046.014-.017-.002-.04-.027-.038-.177.015-.409.006-.586-.012-.03-.003-.043-.033-.022-.052.059-.052.149-.083.198-.142.04-.048-.019-.082-.066-.103-.021-.009-.051-.011-.068-.026-.027-.024.006-.045-.004-.071-.013-.032-.077-.035-.11-.042-.058-.011-.187.031-.177-.011.004-.015.177-.075.205-.081.09-.02.235-.004.333-.016.223-.028.326-.073.34-.077.014-.005-.04-.004.101-.026.14-.022.128-.037.151-.067.022-.029.058-.066.028-.09-.024-.019-.063-.024-.093-.036-.015-.006-.027-.01-.036-.021-.016-.02-.007-.032-.042-.036-.08-.009-.149.043-.226.034-.036-.004-.096-.004-.129-.016-.039-.015,0-.029.028-.04.027-.011.086-.016.104-.039.018-.022-.014-.037-.017-.058-.006-.036.069-.073-.007-.086-.023-.004-.048,0-.071.003-.044.007-.09.024-.136.023-.025,0-.223.006-.23-.013-.006-.017.02-.022.004-.038-.008-.008-.034-.01-.045-.012-.022-.004-.188-.015-.144-.06.045-.046.097-.072.159-.098.046-.02.125-.045.148-.087.11-.195.767-.145.727-.445-.002-.013.009-.03.024-.036.27-.104.589-.113.844-.24.015-.007.022-.022.018-.036-.05-.189.346-.16.499-.203.075-.021.134-.04.197-.046.062-.006.184-.031.108-.086Z"/>
    </g>
  </g>
  <g>
    <polygon class="cls-18" points="131.705 115.577 119.331 121.205 119.331 118.53 119.331 108.79 119.331 105.787 131.705 100.16 131.705 103.263 148.268 95.062 148.268 79.392 102.729 100.16 102.729 141.947 148.268 121.205 148.268 111.616 148.268 111.616 148.268 111.616 131.705 113.004 131.705 115.577"/>
    <polygon class="cls-17" points="98.81 100.16 98.81 141.947 82.053 134.301 76.002 124.056 70.028 128.825 53.542 121.331 53.232 121.205 53.232 79.392 69.834 86.962 69.834 115.577 76.002 110.682 82.208 121.205 82.208 92.59 96.638 99.176 96.948 99.327 97.259 99.453 98.81 100.16"/>
    <polygon class="cls-19" points="133.525 82.123 147.994 75.537 133.525 68.951 115.837 60.877 101.329 54.291 86.861 60.877 101.329 67.463 112.54 72.56 69.173 68.926 54.743 75.512 101.368 96.759 115.837 90.173 90.119 78.49 133.525 82.123"/>
  </g>
  <g id="Generative_Object" data-name="Generative Object" class="cls-8">
    <g>
      <path class="cls-11" d="M165.635,136.108c-14.198,5.955-28.396,11.91-42.594,17.866-1.247-1.74-6.132-8.369-6.12-9.988,18.485-8.048,36.97-16.095,55.455-24.143-.753,2.662-1.747,5.612-3.07,8.751-1.182,2.805-2.439,5.312-3.671,7.515Z"/>
      <path class="cls-42" d="M122.037,157.605c-.284-.31-.533-.741-.803-1.073.889-.397,2.009-.357,1.505-1.362-.778-1.549-2.796-3.631-3.712-5.283-.017-.03-.044-.554-.1-.66-.045-.085-.257.002-.301-.083-.219-.426-.812-1.744-1.003-2.311-.009-.028-.23-.626,0-.578,1.988,3.567,4.388,6.953,6.822,10.318.15.208,1.275,1.182.953,1.362-.185.103-.764-.091-.803-.083-.038.008-.385.449-.502.495-1.298.52-1.245.145-2.057-.743Z"/>
      <g>
        <path class="cls-12" d="M165.635,136.108c-1.158,2.07-2.529,4.294-4.151,6.602-1.448,2.06-2.9,3.906-4.297,5.547-9.76,4.024-19.52,8.048-29.28,12.073l-.451-.206c-1.388-2.091-2.945-4.098-4.415-6.149,14.198-5.955,28.396-11.91,42.594-17.866Z"/>
        <g>
          <path class="cls-2" d="M129.662,156.367c-.027-.542-.162-1.235.752-1.486,1.843-.506,2.653,1.911.803,2.146-1.171.149-.991-.319-1.555-.66Z"/>
          <path class="cls-37" d="M130.716,154.964c1.462-.139,1.773,1.669.602,1.898-1.811.355-1.955-1.769-.602-1.898Z"/>
        </g>
        <g>
          <path class="cls-1" d="M129.662,156.367c.016.313.243.535.201.867-.077.611-.994.94-1.655.867-2.036-.227-1.056-3.253,1.455-1.733Z"/>
          <path class="cls-51" d="M128.408,156.037c1.453-.08,1.667,1.722.301,1.898-1.743.225-1.828-1.814-.301-1.898Z"/>
        </g>
      </g>
    </g>
    <g>
      <g>
        <path class="cls-40" d="M95.851,146.049c-1.28.447-5.162,1.216-5.518,2.352.227.729-.57,1.95,0,2.435-.028.067-.072.098-.1.165-.203.474-1.774,3.171-1.706,3.343.028.071.428.202.502.206l.1.248c-.114-.01-.315-.182-.502-.041.527.745.662.9,1.706.784,2.953.655,4.271-2.264,6.17-3.384,1.099-.648,2.767-1.041,4.063-1.321,2.123,1.104,4.718,3.213,6.873,4.54,2.126,1.309,4.495,2.482,6.572,3.797-.339.997.876,1.54,0,2.6-.46.557-1.207.49-1.906.619-1.303-.858-7.176-4.234-8.478-4.705-.202-.073-.371-.171-.351.083.028.365,4.596,3.33,5.267,3.714,1.083.62,1.994,1.204,3.261,1.486.198.044.19.081.201.083.099.673.23,1.242-.201,1.857-.701,1.001-1.838.467-2.91.537-1.286-.985-6.312-3.753-7.926-4.457-.108-.047-.471-.138-.602-.124,1.954,1.614,4.405,3.381,6.772,4.581.33.167.952.472,1.354.413.067.028.132.057.201.083-.016,1.852-1.255,2.527-3.411,2.146-.096-.046-.177-.103-.301-.083-.183-.565-4.762-2.955-5.618-3.384-.093-.047-1.059-.73-1.003-.454,1.591,1.035,3.207,2.676,4.866,3.591.324.178.77.422,1.154.248.614.513.244.778.602,1.321-.352,1.594-2.788,1.064-4.013.578-.599-.238-4.356-2.648-4.415-3.013-.031-.192.64-.944.301-1.816-.449-1.155-2.419-1.216-2.508-1.321-.035-.041.261-.631.201-.991-.179-1.059-2.541-2.011-3.461-1.114-.102-1.34-1.317-2.392-3.01-2.146-.193.028-.756.421-.803.413-.143-.026-.659-1.539-1.906-1.733-1.598-.249-1.823.506-2.659,1.238-.143.125-.568.382-.602.413-1.596-.569-2.551-2.173-3.762-2.972-.865-.57-2.269-.877-3.16-1.486.066-.092.084-.225.1-.248,1.986-2.797,3.973-5.593,5.418-8.626,1.02.172,1.734.408,2.809.371-.068.139-1.637.661-.752.743,1.415-.309,2.886-.4,4.314-.66,3.043-.554,5.891-1.734,9.13-1.321l-.351.413Z"/>
        <path class="cls-56" d="M111.402,147.122c1.362.149,2.318.126,3.461-.578.103.029.733,1.439.853,1.651.634,2.198,3.747,6.538,2.709,8.708-1.482,3.099-7.027.583-8.729-1.073-.004-.353,2.192-1.419,2.609-1.857.483-.509.808-1.124.652-1.816-2.063,1.602-4.78.474-6.923-.413-2.003-.828-3.178-2.067-5.468-1.981-.372.014-.688.217-1.053.165-.067-.01-.618-.404-.803-.413-.439-.02-2.911.87-3.311.825-.07-.008-.754-.501-.903-.578,1.019,1.161-2.48,5.014-3.512,5.2-.578.104-1.284-.112-1.856-.165l-.1-.248c1.583.103,4.145-3.084,1.204-3.549.029-.067.072-.098.1-.165.234-.554.644-2.432.853-2.641.363-.364,4.743-1.529,5.618-1.816,2.398-.787,2.964-1.844,5.819-1.156,2.383.574,6.422,1.809,8.829,2.559.263.082,1.53.862,1.555.537l-1.605-1.197Z"/>
        <path class="cls-43" d="M121.235,156.532c.27.332.519.763.803,1.073l-6.321,2.724c-.133-.251-1.385-.952-1.706-1.156-2.076-1.315-4.445-2.488-6.572-3.797-2.155-1.327-4.75-3.436-6.873-4.54-.732-.381-1.222-.643-2.157-.578-.208.014-3.079.739-3.211.825-.234.154-.775,1.422-1.053,1.775-.888,1.126-2.078,2.49-3.813,2.683-1.043.116-1.179-.04-1.706-.784.187-.141.388.031.502.041.572.053,1.278.269,1.856.165,1.032-.186,4.53-4.039,3.512-5.2.149.076.833.57.903.578.4.044,2.872-.845,3.311-.825.185.008.735.403.803.413.365.052.681-.151,1.053-.165,2.198,2.179,5.671,4.936,9.381,4.787.838-.034,1.576-.411,2.358-.578-.416.439-2.613,1.504-2.609,1.857,1.702,1.656,7.247,4.172,8.729,1.073,1.038-2.17-2.075-6.51-2.709-8.708,1.624,2.866,3.381,5.704,5.518,8.337Z"/>
        <path class="cls-39" d="M100.968,169.904c-1.312,1.168-4.343,1.19-5.819.248,2.842.435,4.068-1.874,1.254-2.889-.636.661-1.169,1.44-1.856,2.064-1.074.975-1.685,1.685-3.411,1.156.881-.111,1.465-.37,2.107-.867.341-.264,3.064-3.175,3.11-3.384.24-1.091-1.18-2.216-2.558-1.775-.798.256-3.537,3.054-3.762,3.797-1.211.933-3.118.971-3.712-.495.836.74,1.721.84,2.759.33.302-.148,4.603-3.994,4.766-4.251.717-1.133-1.004-2.438-2.358-2.105-1.334.329-4.098,3.728-5.267,4.457-1.065.664-2.322.554-3.01-.413.897.618,1.94.499,2.859,0,.374-.203,4.145-3.439,4.264-3.673.549-1.078-1.019-2.407-2.358-2.187-.478.078-4.718,3.527-4.966,3.962-.132.034-.392.153-.502.165.493-.68,3.89-3.154,4.013-3.673.204-.861-1.214-1.92-2.257-1.775-.497.069-1.012.762-1.555.825.836-.732,1.06-1.487,2.659-1.238,1.247.194,1.763,1.707,1.906,1.733.046.008.61-.385.803-.413,1.693-.245,2.908.806,3.01,2.146.92-.897,3.282.055,3.461,1.114.061.359-.236.95-.201.991.09.104,2.059.165,2.508,1.321.339.872-.332,1.624-.301,1.816.058.364,3.816,2.775,4.415,3.013Z"/>
        <path class="cls-46" d="M82.106,159.834c-.219.201-1.306,1.202-1.405,1.321-.726-.55-1.326-1.188-2.157-1.651-1.286-.716-3.959-1.263-4.866-1.816-.075-.046-.217-.11-.201-.206.627-.66,1.192-1.384,1.706-2.105.891.609,2.295.915,3.16,1.486,1.211.798,2.167,2.402,3.762,2.972Z"/>
        <path class="cls-32" d="M111.402,147.122l1.605,1.197c-.026.325-1.292-.455-1.555-.537-2.407-.75-6.446-1.985-8.829-2.559-2.855-.688-3.421.369-5.819,1.156-.875.287-5.256,1.452-5.618,1.816-.209.209-.618,2.087-.853,2.641-.57-.485.227-1.706,0-2.435.356-1.137,4.238-1.906,5.518-2.352.681-.238,1.391-.603,2.007-.825.514-.186,1.602-.747,1.956-.825,2.486-.546,8.433,2.378,11.588,2.724Z"/>
        <path class="cls-54" d="M115.717,160.329c.707,1.33-.884,2.976-2.609,2.848.77,2.102-1.109,3.507-3.612,2.848-.146-.318-.324-.365-.602-.578,1.072-.069,2.209.464,2.91-.537.431-.615.3-1.184.201-1.857.349.062.662.231,1.003.124.04-.043-.823-.731-.903-.784.699-.129,1.446-.062,1.906-.619.876-1.06-.339-1.603,0-2.6.321.203,1.572.905,1.706,1.156Z"/>
        <path class="cls-33" d="M97.858,145.224c-.616.223-1.326.588-2.007.825l.351-.413c-3.24-.414-6.087.766-9.13,1.321-1.428.26-2.899.351-4.314.66-.884-.082.684-.604.752-.743.717-.025,2.093-.286,2.859-.413,3.83-.635,7.451-2.354,11.488-1.238Z"/>
        <path class="cls-10" d="M95.149,170.152c-.371-.237-.706-.268-.602-.825.687-.624,1.22-1.403,1.856-2.064,2.814,1.015,1.588,3.324-1.254,2.889Z"/>
        <path class="cls-22" d="M108.894,165.447c.278.213.456.26.602.578.01.023-.009.056,0,.083-.268.016-.568-.078-.803-.165-.069-.026-.134-.054-.201-.083-1.284-.538-3.647-2.102-4.866-2.889-.916-.592-1.886-1.264-2.659-1.981,1.614.704,6.64,3.473,7.926,4.457Z"/>
        <path class="cls-14" d="M109.496,166.107c.459,1.419-.962,2.753-2.759,2.559-.441-.048-1.063-.391-1.455-.578,2.156.381,3.395-.294,3.411-2.146.235.087.535.181.803.165Z"/>
        <path class="cls-3" d="M104.981,168.006c.039.121.033,1.17,0,1.321-.358-.543.012-.807-.602-1.321-.143-.12-.679-.287-.853-.413-1.383-.995-2.822-1.939-4.164-2.972.857.429,5.435,2.819,5.618,3.384Z"/>
        <path class="cls-38" d="M100.567,150.837c-1.296.28-2.964.672-4.063,1.321-1.9,1.12-3.217,4.039-6.17,3.384,1.735-.192,2.925-1.556,3.813-2.683.278-.353.82-1.621,1.053-1.775.131-.086,3.002-.811,3.211-.825.936-.065,1.425.197,2.157.578Z"/>
        <path class="cls-25" d="M89.029,154.551c-.074-.005-.474-.136-.502-.206-.068-.172,1.503-2.869,1.706-3.343,2.941.465.379,3.652-1.204,3.549Z"/>
        <path class="cls-55" d="M112.105,162.393c.08.053.943.742.903.784-.341.108-.655-.062-1.003-.124-.011-.002-.003-.039-.201-.083l-8.528-5.2c-.02-.254.149-.156.351-.083,1.302.47,7.175,3.847,8.478,4.705Z"/>
        <path class="cls-49" d="M111.804,162.971c-1.267-.282-2.177-.866-3.261-1.486-.672-.384-5.239-3.35-5.267-3.714l8.528,5.2Z"/>
        <path class="cls-35" d="M100.968,160.99c.772.717,1.742,1.389,2.659,1.981,1.219.787,3.582,2.351,4.866,2.889-.403.059-1.025-.245-1.354-.413-2.367-1.2-4.818-2.967-6.772-4.581.131-.014.494.077.602.124Z"/>
        <path class="cls-29" d="M99.363,164.621c1.342,1.032,2.781,1.976,4.164,2.972.174.125.71.293.853.413-.383.174-.83-.069-1.154-.248-1.659-.915-3.275-2.555-4.866-3.591-.056-.276.911.407,1.003.454Z"/>
        <path class="cls-24" d="M112.305,153.973c-.782.167-1.52.544-2.358.578-3.71.149-7.183-2.609-9.381-4.787,2.29-.086,3.465,1.153,5.468,1.981,2.143.886,4.86,2.014,6.923.413.156.692-.169,1.307-.652,1.816Z"/>
        <g>
          <path class="cls-45" d="M86.32,167.758c-.272-.672-.182-.87-.1-1.568,1.169-.73,3.933-4.129,5.267-4.457,1.354-.333,3.074.972,2.358,2.105-.162.257-4.464,4.103-4.766,4.251-1.038.51-1.923.41-2.759-.33Z"/>
          <path class="cls-15" d="M91.587,162.063c1.584-.269,2.468,1.862.602,2.641-1.233.515-2.477-.311-2.157-1.362.052-.172,1.375-1.249,1.555-1.279Z"/>
        </g>
        <g>
          <path class="cls-31" d="M83.21,165.777c-.399-.561-.548-1.289-.201-1.898.248-.435,4.488-3.884,4.966-3.962,1.339-.22,2.907,1.109,2.358,2.187-.119.234-3.89,3.47-4.264,3.673-.919.499-1.963.618-2.859,0Z"/>
          <path class="cls-16" d="M88.076,160.247c.504-.076,1.316.46,1.555.784.927,1.256-1.935,2.91-2.91,1.403-.51-.788.516-2.062,1.354-2.187Z"/>
        </g>
        <g>
          <path class="cls-13" d="M91.136,170.482c-1.157-.355-1.385-1.303-1.104-2.229.226-.743,2.964-3.541,3.762-3.797,1.378-.441,2.798.684,2.558,1.775-.046.209-2.769,3.121-3.11,3.384-.642.496-1.226.755-2.107.867Z"/>
          <path class="cls-50" d="M94.095,164.621c1.306-.181,2.213,1.518.602,2.229-1.006.443-2.133-.136-1.956-1.032.044-.223,1.106-1.163,1.354-1.197Z"/>
        </g>
        <g>
          <path class="cls-4" d="M82.507,164.044c-2.319.254-2.976-1.483-1.806-2.889.098-.118,1.186-1.119,1.405-1.321.034-.031.459-.288.602-.413.543-.064,1.058-.756,1.555-.825,1.043-.145,2.461.914,2.257,1.775-.123.519-3.52,2.993-4.013,3.673Z"/>
          <path class="cls-9" d="M84.363,158.926c.319-.038,1.056.309,1.254.537,1.082,1.245-1.818,2.656-2.508,1.321-.336-.649.637-1.784,1.254-1.857Z"/>
        </g>
      </g>
      <g>
        <path class="cls-26" d="M78.695,144.068c-.45,2.5-4.37,7.293-6.02,9.657-12.973-5.597-25.946-11.195-38.918-16.792-1.12-1.946-2.252-4.111-3.332-6.493-1.525-3.364-2.666-6.538-3.529-9.403,17.266,7.677,34.533,15.354,51.799,23.031Z"/>
        <path class="cls-47" d="M75.284,155.129c-.016.023-.035.156-.1.248-.513.72-1.079,1.445-1.706,2.105-.016.097.126.161.201.206-.791.023-.725,1.019-1.455.991-.763-.373-1.219-1.065-2.107-.825,2.557-3.798,5.357-7.59,7.826-11.473.382.081-.82,2.268-.953,2.518-.928,1.735-2.259,3.624-3.512,5.2l1.806,1.032Z"/>
        <g>
          <path class="cls-5" d="M72.675,153.726c-.506.725-4.225,5.653-4.114,5.984.017.05.907-.08-.251.537-8.854-3.891-17.707-7.781-26.561-11.672-1.491-1.928-3.007-4.007-4.523-6.238-1.253-1.845-2.407-3.65-3.47-5.403,12.973,5.597,25.946,11.195,38.918,16.792Z"/>
          <g>
            <path class="cls-21" d="M64.699,154.551c1.859-.166,2.079,1.989.702,2.229-2.142.373-2.273-2.088-.702-2.229Z"/>
            <path class="cls-48" d="M64.699,154.716c1.587-.196,1.835,1.693.602,1.898-1.763.294-1.868-1.742-.602-1.898Z"/>
          </g>
          <g>
            <path class="cls-27" d="M67.307,155.707c2.148-.18,2.231,2.186.502,2.311-2,.144-2.326-2.158-.502-2.311Z"/>
            <path class="cls-41" d="M67.307,155.872c1.838-.193,2.023,1.855.502,1.981-1.683.14-2.005-1.823-.502-1.981Z"/>
            <path class="cls-36" d="M67.207,156.367c.536.003-.162.43-.201.413-.194-.088.085-.353.201-.413Z"/>
            <polygon class="cls-20" points="67.307 156.862 67.458 156.904 67.307 157.028 67.257 156.986 67.307 156.862"/>
          </g>
        </g>
      </g>
    </g>
  </g>
</svg>