<?xml version="1.0" encoding="UTF-8"?>
<svg id="Layer_1" data-name="Layer 1" xmlns="http://www.w3.org/2000/svg" xmlns:xlink="http://www.w3.org/1999/xlink" viewBox="0 0 63.7 63.7">
  <defs>
    <style>
      .cls-1 {
        fill: url(#linear-gradient-15);
      }

      .cls-2 {
        fill: url(#linear-gradient-13);
      }

      .cls-3 {
        fill: url(#linear-gradient-28);
      }

      .cls-4 {
        fill: url(#linear-gradient-42);
      }

      .cls-5 {
        fill: url(#linear-gradient-46);
      }

      .cls-6 {
        fill: url(#bottommm);
      }

      .cls-7 {
        fill: url(#linear-gradient-2);
      }

      .cls-8 {
        opacity: .87;
      }

      .cls-9 {
        fill: url(#linear-gradient-43);
      }

      .cls-10 {
        fill: url(#linear-gradient-25);
      }

      .cls-11 {
        fill: url(#linear-gradient-10);
      }

      .cls-12 {
        fill: url(#linear-gradient-12);
      }

      .cls-13 {
        fill: url(#linear-gradient-40);
      }

      .cls-14 {
        fill: url(#linear-gradient-27);
      }

      .cls-15 {
        fill: url(#linear-gradient-37);
      }

      .cls-16 {
        fill: url(#linear-gradient-39);
      }

      .cls-17 {
        fill: url(#linear-gradient-52);
      }

      .cls-18 {
        fill: url(#linear-gradient-47);
      }

      .cls-19 {
        fill: url(#linear-gradient-26);
      }

      .cls-20 {
        fill: url(#linear-gradient-4);
      }

      .cls-21 {
        fill: url(#linear-gradient-35);
      }

      .cls-22 {
        fill: url(#linear-gradient-30);
      }

      .cls-23 {
        fill: url(#linear-gradient-7);
      }

      .cls-23, .cls-24, .cls-25 {
        stroke: #fff;
        stroke-miterlimit: 10;
        stroke-width: .146px;
      }

      .cls-26 {
        fill: url(#linear-gradient-44);
      }

      .cls-27 {
        fill: url(#linear-gradient-49);
      }

      .cls-28 {
        fill: url(#linear-gradient-3);
      }

      .cls-29 {
        fill: url(#linear-gradient-34);
      }

      .cls-30 {
        fill: url(#linear-gradient-5);
      }

      .cls-31 {
        fill: url(#linear-gradient-38);
      }

      .cls-32 {
        fill: url(#linear-gradient-22);
      }

      .cls-33 {
        fill: url(#linear-gradient-24);
      }

      .cls-34 {
        fill: #231f20;
      }

      .cls-35 {
        fill: url(#linear-gradient-33);
      }

      .cls-36 {
        fill: url(#linear-gradient-51);
      }

      .cls-24 {
        fill: url(#linear-gradient-9);
      }

      .cls-37 {
        fill: url(#linear-gradient-14);
      }

      .cls-38 {
        fill: url(#linear-gradient-29);
      }

      .cls-25 {
        fill: url(#linear-gradient-8);
      }

      .cls-39 {
        fill: url(#linear-gradient-20);
      }

      .cls-40 {
        fill: url(#linear-gradient-17);
      }

      .cls-41 {
        fill: url(#linear-gradient-50);
      }

      .cls-42 {
        fill: url(#linear-gradient-11);
      }

      .cls-43 {
        fill: url(#linear-gradient-19);
      }

      .cls-44 {
        fill: url(#linear-gradient-6);
      }

      .cls-45 {
        fill: url(#linear-gradient-36);
      }

      .cls-46 {
        fill: url(#linear-gradient-21);
      }

      .cls-47 {
        fill: url(#linear-gradient-45);
      }

      .cls-48 {
        fill: url(#linear-gradient-48);
      }

      .cls-49 {
        fill: url(#linear-gradient-32);
      }

      .cls-50 {
        fill: url(#linear-gradient-41);
      }

      .cls-51 {
        fill: url(#linear-gradient-16);
      }

      .cls-52 {
        fill: url(#linear-gradient);
      }

      .cls-53 {
        fill: url(#_Áåçûìÿííûé_ãðàäèåíò_68);
      }

      .cls-54 {
        fill: url(#linear-gradient-23);
      }

      .cls-55 {
        fill: url(#linear-gradient-31);
      }

      .cls-56 {
        fill: url(#linear-gradient-18);
      }
    </style>
    <linearGradient id="bottommm" x1="4.262" y1="15.922" x2="59.438" y2="47.778" gradientUnits="userSpaceOnUse">
      <stop offset="0" stop-color="#8e5f2b"/>
      <stop offset=".1" stop-color="#b37129"/>
      <stop offset=".37" stop-color="#c48f2f"/>
      <stop offset=".48" stop-color="#fef7b4"/>
      <stop offset=".58" stop-color="#c48f2f"/>
      <stop offset=".82" stop-color="#7d461d"/>
      <stop offset="1" stop-color="#efbc48"/>
    </linearGradient>
    <linearGradient id="_Áåçûìÿííûé_ãðàäèåíò_68" data-name="Áåçûìÿííûé ãðàäèåíò 68" x1="5.254" y1="16.495" x2="58.446" y2="47.205" gradientUnits="userSpaceOnUse">
      <stop offset=".006" stop-color="#c0902f"/>
      <stop offset=".253" stop-color="#fdf7ce"/>
      <stop offset=".304" stop-color="#f6ebbc"/>
      <stop offset=".406" stop-color="#e5ce8f"/>
      <stop offset=".548" stop-color="#c9a048"/>
      <stop offset=".596" stop-color="#c0902f"/>
      <stop offset=".871" stop-color="#edd689"/>
      <stop offset="1" stop-color="#fdf7ce"/>
    </linearGradient>
    <linearGradient id="linear-gradient" x1="39.33" y1="18.766" x2="42.355" y2="18.766" gradientUnits="userSpaceOnUse">
      <stop offset=".122" stop-color="#875a1f"/>
      <stop offset=".131" stop-color="#956925"/>
      <stop offset=".15" stop-color="#ac802f"/>
      <stop offset=".17" stop-color="#bc9036"/>
      <stop offset=".192" stop-color="#c6993a"/>
      <stop offset=".221" stop-color="#c99d3c"/>
      <stop offset=".345" stop-color="#9e7927"/>
      <stop offset=".378" stop-color="#a6822e"/>
      <stop offset=".434" stop-color="#be9b42"/>
      <stop offset=".503" stop-color="#e3c462"/>
      <stop offset=".537" stop-color="#f9db74"/>
      <stop offset=".544" stop-color="#f9df86"/>
      <stop offset=".559" stop-color="#faebb6"/>
      <stop offset=".571" stop-color="#fcf6e3"/>
      <stop offset="1" stop-color="#c99d3c"/>
    </linearGradient>
    <linearGradient id="linear-gradient-2" x1="31.86" y1="10.697" x2="31.863" y2="10.697" xlink:href="#linear-gradient"/>
    <linearGradient id="linear-gradient-3" x1="29.589" y1="13.698" x2="49.265" y2="13.698" xlink:href="#linear-gradient"/>
    <linearGradient id="linear-gradient-4" x1="14.889" y1="15.065" x2="28.727" y2="15.065" xlink:href="#linear-gradient"/>
    <linearGradient id="linear-gradient-5" x1="25.957" y1="8.782" x2="25.96" y2="8.782" xlink:href="#linear-gradient"/>
    <linearGradient id="linear-gradient-6" x1="22.461" y1="9.811" x2="29.492" y2="9.811" xlink:href="#linear-gradient"/>
    <linearGradient id="linear-gradient-7" x1="32.917" y1="35.603" x2="47.794" y2="35.603" xlink:href="#linear-gradient"/>
    <linearGradient id="linear-gradient-8" x1="16.748" y1="35.603" x2="31.637" y2="35.603" xlink:href="#linear-gradient"/>
    <linearGradient id="linear-gradient-9" x1="17.242" y1="24.122" x2="47.704" y2="24.122" xlink:href="#linear-gradient"/>
    <linearGradient id="linear-gradient-10" x1="37.553" y1="44.174" x2="55.669" y2="44.174" xlink:href="#linear-gradient"/>
    <linearGradient id="linear-gradient-11" x1="37.749" y1="49.241" x2="40.342" y2="49.241" xlink:href="#linear-gradient"/>
    <linearGradient id="linear-gradient-12" x1="39.553" y1="47.869" x2="53.467" y2="47.869" xlink:href="#linear-gradient"/>
    <linearGradient id="linear-gradient-13" x1="41.708" y1="50.389" x2="42.566" y2="50.389" xlink:href="#linear-gradient"/>
    <linearGradient id="linear-gradient-14" x1="41.765" y1="50.388" x2="42.49" y2="50.388" xlink:href="#linear-gradient"/>
    <linearGradient id="linear-gradient-15" x1="40.882" y1="50.746" x2="41.783" y2="50.746" xlink:href="#linear-gradient"/>
    <linearGradient id="linear-gradient-16" x1="40.953" y1="50.735" x2="41.703" y2="50.735" xlink:href="#linear-gradient"/>
    <linearGradient id="linear-gradient-17" x1="23.919" y1="51.055" x2="36.709" y2="51.055" xlink:href="#linear-gradient"/>
    <linearGradient id="linear-gradient-18" x1="28.442" y1="49.002" x2="38.113" y2="49.002" xlink:href="#linear-gradient"/>
    <linearGradient id="linear-gradient-19" x1="28.311" y1="49.843" x2="39.225" y2="49.843" xlink:href="#linear-gradient"/>
    <linearGradient id="linear-gradient-20" x1="26.312" y1="53.18" x2="32.342" y2="53.18" xlink:href="#linear-gradient"/>
    <linearGradient id="linear-gradient-21" x1="23.362" y1="51.151" x2="26.181" y2="51.151" xlink:href="#linear-gradient"/>
    <linearGradient id="linear-gradient-22" x1="28.799" y1="47.661" x2="36.275" y2="47.661" xlink:href="#linear-gradient"/>
    <linearGradient id="linear-gradient-23" x1="34.931" y1="52.593" x2="37.216" y2="52.593" xlink:href="#linear-gradient"/>
    <linearGradient id="linear-gradient-24" x1="26.306" y1="47.221" x2="31.326" y2="47.221" xlink:href="#linear-gradient"/>
    <linearGradient id="linear-gradient-25" x1="30.238" y1="54.57" x2="31.371" y2="54.57" xlink:href="#linear-gradient"/>
    <linearGradient id="linear-gradient-26" x1="32.342" y1="52.877" x2="35.129" y2="52.877" xlink:href="#linear-gradient"/>
    <linearGradient id="linear-gradient-27" x1="33.751" y1="54.106" x2="35.156" y2="54.106" xlink:href="#linear-gradient"/>
    <linearGradient id="linear-gradient-28" x1="31.818" y1="53.995" x2="33.662" y2="53.995" xlink:href="#linear-gradient"/>
    <linearGradient id="linear-gradient-29" x1="28.868" y1="49.412" x2="32.211" y2="49.412" xlink:href="#linear-gradient"/>
    <linearGradient id="linear-gradient-30" x1="28.277" y1="49.358" x2="29.275" y2="49.358" xlink:href="#linear-gradient"/>
    <linearGradient id="linear-gradient-31" x1="33.095" y1="51.851" x2="36.276" y2="51.851" xlink:href="#linear-gradient"/>
    <linearGradient id="linear-gradient-32" x1="33.096" y1="51.838" x2="35.882" y2="51.838" xlink:href="#linear-gradient"/>
    <linearGradient id="linear-gradient-33" x1="32.145" y1="52.817" x2="34.8" y2="52.817" xlink:href="#linear-gradient"/>
    <linearGradient id="linear-gradient-34" x1="31.489" y1="53.705" x2="33.456" y2="53.705" xlink:href="#linear-gradient"/>
    <linearGradient id="linear-gradient-35" x1="32.211" y1="49.156" x2="36.272" y2="49.156" xlink:href="#linear-gradient"/>
    <linearGradient id="linear-gradient-36" x1="27.497" y1="53.365" x2="30.07" y2="53.365" xlink:href="#linear-gradient"/>
    <linearGradient id="linear-gradient-37" x1="28.753" y1="52.844" x2="29.817" y2="52.844" xlink:href="#linear-gradient"/>
    <linearGradient id="linear-gradient-38" x1="26.412" y1="52.712" x2="28.905" y2="52.712" xlink:href="#linear-gradient"/>
    <linearGradient id="linear-gradient-39" x1="27.644" y1="52.252" x2="28.698" y2="52.252" xlink:href="#linear-gradient"/>
    <linearGradient id="linear-gradient-40" x1="28.734" y1="54.141" x2="30.843" y2="54.141" xlink:href="#linear-gradient"/>
    <linearGradient id="linear-gradient-41" x1="29.649" y1="53.614" x2="30.575" y2="53.614" xlink:href="#linear-gradient"/>
    <linearGradient id="linear-gradient-42" x1="25.536" y1="52.15" x2="27.629" y2="52.15" xlink:href="#linear-gradient"/>
    <linearGradient id="linear-gradient-43" x1="26.486" y1="51.758" x2="27.406" y2="51.758" xlink:href="#linear-gradient"/>
    <linearGradient id="linear-gradient-44" x1="8.145" y1="44.329" x2="25.066" y2="44.329" xlink:href="#linear-gradient"/>
    <linearGradient id="linear-gradient-45" x1="22.264" y1="49.277" x2="24.845" y2="49.277" xlink:href="#linear-gradient"/>
    <linearGradient id="linear-gradient-46" x1="10.386" y1="47.99" x2="23.1" y2="47.99" xlink:href="#linear-gradient"/>
    <linearGradient id="linear-gradient-47" x1="20.148" y1="50.306" x2="21.013" y2="50.306" xlink:href="#linear-gradient"/>
    <linearGradient id="linear-gradient-48" x1="20.216" y1="50.304" x2="20.946" y2="50.304" xlink:href="#linear-gradient"/>
    <linearGradient id="linear-gradient-49" x1="20.954" y1="50.692" x2="21.906" y2="50.692" xlink:href="#linear-gradient"/>
    <linearGradient id="linear-gradient-50" x1="21.031" y1="50.691" x2="21.844" y2="50.691" xlink:href="#linear-gradient"/>
    <linearGradient id="linear-gradient-51" x1="21.226" y1="50.598" x2="21.379" y2="50.598" xlink:href="#linear-gradient"/>
    <linearGradient id="linear-gradient-52" x1="21.33" y1="50.719" x2="21.395" y2="50.719" xlink:href="#linear-gradient"/>
  </defs>
  <g>
    <circle class="cls-34" cx="31.85" cy="31.85" r="24.75"/>
    <path class="cls-6" d="M31.85,0C14.26,0,0,14.26,0,31.85s14.26,31.85,31.85,31.85,31.85-14.26,31.85-31.85S49.44,0,31.85,0ZM31.85,62.555C14.892,62.555,1.145,48.808,1.145,31.85S14.892,1.145,31.85,1.145s30.705,13.747,30.705,30.705-13.747,30.705-30.705,30.705ZM31.85,2.19C15.469,2.19,2.19,15.469,2.19,31.85s13.279,29.66,29.66,29.66,29.66-13.279,29.66-29.66S48.231,2.19,31.85,2.19ZM31.85,56.6c-13.669,0-24.75-11.081-24.75-24.75S18.181,7.1,31.85,7.1s24.75,11.081,24.75,24.75-11.081,24.75-24.75,24.75Z"/>
    <path class="cls-53" d="M31.85,1.145C14.892,1.145,1.145,14.892,1.145,31.85s13.747,30.705,30.705,30.705,30.705-13.747,30.705-30.705S48.808,1.145,31.85,1.145ZM31.85,61.51c-16.381,0-29.66-13.279-29.66-29.66S15.469,2.19,31.85,2.19s29.66,13.279,29.66,29.66-13.279,29.66-29.66,29.66ZM57.797,31.85h.031s-.033-1.298-.033-1.298l.576-.029-.109-1.417c-.02-.153-.039-.307-.058-.461-.037-.294-.075-.598-.117-.897l-.007-.05-.596.093.027-.005-.208-1.162-.026-.115.562-.119-.165-.716c-.015-.062-.029-.124-.043-.187-.036-.158-.073-.322-.122-.479l-.28-.987c-.02-.072-.045-.143-.068-.212-.013-.038-.026-.076-.039-.115l-.015-.047-.564.182.017-.006-.216-.638c-.013-.038-.026-.075-.038-.113-.023-.069-.046-.139-.073-.206l-.105-.266.536-.206-.019-.047c-.036-.09-.071-.181-.107-.271-.129-.329-.263-.67-.418-.995l-.281-.623c-.039-.09-.084-.178-.127-.263l-.203-.396-.512.26-.308-.601-.311-.541.497-.287-.025-.043c-.041-.069-.08-.139-.12-.208-.072-.127-.147-.258-.227-.384l-.369-.575c-.194-.316-.412-.622-.623-.917-.051-.071-.101-.142-.152-.213l-.029-.041-.465.337-.196-.276-.594-.756.445-.361-.029-.038c-.111-.147-.233-.288-.352-.424l-.536-.619c-.077-.092-.161-.18-.233-.255l-.743-.779-.43.428.023-.024c-.115-.109-.23-.219-.344-.328-.195-.186-.396-.378-.598-.564l.386-.428-.556-.481c-.053-.045-.106-.091-.158-.137-.118-.103-.239-.209-.366-.304l-.807-.634c-.059-.045-.12-.088-.181-.131-.033-.023-.065-.046-.098-.07l-.04-.029-.352.482.013-.018c-.097-.068-.194-.137-.29-.206-.251-.18-.51-.364-.778-.531l.313-.481-.617-.396c-.099-.066-.201-.124-.296-.178l-.891-.512c-.131-.071-.263-.138-.395-.206-.071-.036-.142-.072-.213-.109l-.044-.023-.262.511c-.071-.036-.142-.072-.212-.109-.127-.066-.258-.133-.391-.196l-.568-.257.234-.524-.515-.233-.795-.314c-.313-.131-.639-.241-.955-.346-.113-.038-.225-.075-.337-.114l-.048-.016-.178.546-.32-.108-.924-.263.148-.553-.046-.014c-.189-.058-.384-.103-.573-.146l-.759-.175c-.156-.04-.317-.068-.472-.095-.068-.012-.135-.024-.203-.036l-.723-.129-.09.567c-.287-.044-.58-.08-.863-.115-.142-.018-.283-.035-.425-.054l.06-.573-.05-.005c-.299-.028-.603-.05-.897-.072-.156-.012-.312-.023-.469-.036-.302-.011-.605-.019-.907-.026-.153-.004-.307-.007-.46-.012h-.051s-.001.604-.001.604v-.031s-1.298.033-1.298.033l-.029-.576-1.417.109c-.153.02-.307.039-.461.058-.294.037-.598.075-.897.117l-.05.007.093.596-.005-.027-1.162.208-.115.026-.119-.562-.716.165c-.062.015-.124.029-.186.043-.158.036-.322.073-.48.122l-.987.28c-.072.02-.144.045-.213.069-.038.013-.076.026-.114.039l-.047.015.181.562-.005-.015-.638.216c-.037.013-.075.026-.112.038-.07.023-.139.046-.208.073l-.266.105-.206-.536-.047.019c-.09.036-.181.071-.271.107-.329.129-.67.263-.995.418l-.622.282c-.09.039-.178.084-.263.128l-.396.203.26.512-.601.308-.541.311-.287-.497-.043.025c-.069.04-.138.08-.208.12-.127.072-.258.147-.384.227l-.575.369c-.316.194-.622.412-.918.623-.071.051-.142.101-.213.152l-.041.029.337.465-.275.196-.756.594-.361-.445-.038.029c-.147.111-.287.233-.423.351l-.62.538c-.092.077-.18.161-.255.233l-.779.743.428.43-.024-.022c-.109.116-.219.231-.33.346-.186.194-.378.395-.563.597l-.428-.386-.482.556c-.045.054-.092.106-.138.159-.102.117-.208.239-.304.365l-.634.807c-.046.059-.089.12-.132.181-.023.033-.046.065-.069.097l-.029.04.482.352-.018-.013c-.068.097-.137.194-.206.29-.18.251-.364.51-.531.778l-.481-.313-.396.617c-.066.099-.124.2-.178.296l-.512.891c-.071.131-.138.263-.206.395-.036.071-.072.142-.109.213l-.023.044.511.262c-.036.071-.072.141-.108.211-.066.127-.134.259-.196.391l-.257.568-.524-.234-.233.515-.314.795c-.131.313-.24.639-.346.954-.038.113-.075.225-.114.337l-.016.048.546.178-.107.321-.263.924-.553-.148-.014.046c-.058.189-.103.384-.146.573l-.175.759c-.04.156-.068.317-.095.472-.012.068-.024.135-.036.203l-.129.723.567.09c-.044.287-.08.58-.115.863-.018.142-.035.283-.054.424l-.573-.06-.005.05c-.028.299-.05.603-.072.897-.012.156-.023.312-.036.469-.011.302-.019.605-.026.907-.004.153-.007.307-.012.46v.051s.604.001.604.001h-.031s.033,1.298.033,1.298l-.576.029.109,1.417c.02.154.039.307.058.461.037.294.075.598.117.896l.007.05.6-.093-.031.006.208,1.162.026.115-.562.119.165.716c.015.062.029.124.043.186.036.158.073.322.122.48l.28.987c.02.073.045.144.069.213.013.038.026.076.039.114l.015.047.557-.18-.011.004.216.638c.013.037.026.075.038.112.023.07.046.139.073.208l.105.266-.536.206.019.047c.036.091.072.181.107.272.129.329.262.669.417.994l.282.622c.039.09.084.179.128.264l.202.395.512-.26.308.601.311.541-.497.287.025.043c.04.069.08.139.12.208.072.127.147.258.227.384l.369.575c.194.316.412.622.624.918.051.071.101.142.151.213l.029.041.465-.337.196.275.594.756-.445.361.029.038c.111.147.233.288.351.424l.537.62c.07.084.144.163.233.255l.743.779.43-.428-.022.024c.116.109.231.219.346.329.194.186.395.378.597.563l-.386.428.556.481c.054.045.107.092.16.138.117.102.238.208.365.303l.807.634c.059.045.12.088.181.131.033.023.065.046.098.07l.04.029.352-.482-.013.018c.097.068.194.137.291.207.251.18.51.364.778.531l-.313.481.617.396c.099.066.205.127.296.178l.891.512c.13.071.263.138.395.206.071.036.142.073.213.109l.044.023.262-.511c.072.036.143.073.214.11.126.065.257.133.389.195l.568.257-.234.524.515.233.795.314c.313.131.64.241.955.346.112.038.225.075.336.114l.048.017.178-.546.321.107.924.263-.148.554.046.014c.189.058.384.103.573.146l.759.175c.156.04.317.068.472.095.068.012.135.024.203.036l.723.129.09-.567c.286.044.578.08.86.115.143.018.285.036.428.054l-.06.572.05.005c.299.028.604.05.898.072.155.011.311.023.468.035.301.011.602.019.903.026.155.004.31.007.465.012h.051s.001-.604.001-.604v.031s1.298-.033,1.298-.033l.029.576,1.417-.109c.154-.02.307-.039.461-.059.294-.037.598-.075.896-.117l.05-.007-.093-.6.006.031,1.162-.208.115-.026.119.562.716-.165c.062-.015.125-.029.187-.043.158-.036.321-.073.479-.122l.987-.28c.072-.02.143-.044.212-.068.038-.013.076-.026.115-.039l.047-.015-.18-.557.004.011.638-.216c.038-.013.076-.026.113-.038.069-.023.139-.046.206-.073l.266-.105.206.536.047-.019c.091-.036.181-.072.272-.107.329-.129.669-.262.994-.417l.622-.281c.09-.039.179-.084.264-.128l.395-.202-.26-.512.601-.308.541-.311.287.497.043-.025c.069-.041.139-.08.209-.12.127-.072.257-.146.383-.226l.575-.369c.316-.194.622-.412.918-.624.071-.051.142-.101.212-.151l.041-.029-.337-.465.275-.196.756-.594.361.445.038-.029c.147-.111.288-.233.424-.352l.619-.537c.084-.07.163-.144.255-.233l.779-.743-.428-.43.024.023c.109-.115.219-.23.328-.344.186-.195.378-.396.564-.598l.428.386.481-.556c.045-.053.092-.106.138-.159.103-.117.209-.239.304-.366l.634-.807c.045-.059.088-.12.131-.181.023-.033.046-.066.07-.098l.029-.04-.48-.351.016.012c.068-.097.137-.194.206-.29.18-.251.365-.511.531-.779l.481.313.396-.617c.066-.099.127-.205.178-.296l.512-.891c.071-.13.138-.263.206-.395.036-.071.073-.142.109-.213l.023-.044-.511-.262c.036-.071.073-.143.109-.214.065-.126.133-.257.195-.389l.257-.568.524.234.233-.515.314-.795c.131-.313.241-.64.347-.956.038-.112.075-.224.114-.336l.017-.048-.546-.178.107-.32.263-.924.554.148.014-.046c.058-.189.102-.384.146-.573l.175-.76c.04-.156.068-.317.095-.472.012-.068.024-.135.036-.203l.129-.723-.567-.09c.043-.286.08-.578.115-.86.018-.143.036-.285.054-.428l.572.06.005-.05c.028-.299.05-.604.072-.898.011-.155.023-.311.035-.468.011-.301.019-.602.026-.903.004-.155.007-.31.012-.465v-.051s-.604-.001-.604-.001ZM5.957,33.196h0s0,0,0,0ZM31.311,57.14c-.272-.007-.544-.013-.814-.023-.16-.013-.32-.025-.48-.037-.27-.02-.55-.041-.825-.066l-.049-.004-.059.569c-.142-.019-.284-.037-.426-.054-.281-.035-.572-.071-.856-.114l.09-.567-.692-.124c-.066-.012-.131-.024-.197-.035-.146-.025-.297-.052-.443-.089l-.73-.168c-.178-.041-.362-.083-.538-.137l-.049-.015-.149.555-.921-.261-.319-.107.178-.545-.046-.016c-.111-.038-.223-.076-.334-.113-.296-.099-.603-.202-.896-.325l-.759-.299-.493-.223-.234.524-.567-.256c-.13-.061-.259-.128-.385-.193-.071-.037-.142-.074-.214-.11l.262-.511-.044-.023c-.07-.036-.139-.072-.209-.107-.124-.063-.249-.126-.37-.192l-.851-.49c-.09-.051-.186-.106-.278-.167l-.592-.38-.313.481c-.266-.165-.524-.349-.774-.528-.096-.069-.193-.138-.29-.206l.338-.463-.04-.029c-.031-.023-.063-.045-.095-.067-.057-.04-.114-.08-.169-.123l-.773-.607c-.118-.089-.232-.188-.342-.285-.052-.045-.104-.091-.156-.135l-.532-.46-.383.425c-.201-.184-.401-.376-.595-.561-.115-.11-.229-.22-.345-.329l.407-.405-.711-.746c-.068-.071-.147-.153-.219-.239l-.516-.596c-.111-.128-.227-.261-.33-.398l-.031-.041-.447.362-.591-.753-.195-.274.465-.337-.028-.04c-.051-.072-.102-.143-.153-.215-.199-.278-.404-.565-.585-.862l-.353-.551c-.075-.117-.145-.241-.212-.36-.039-.068-.077-.136-.117-.203l-.025-.042-.496.287-.31-.538-.307-.598.512-.26-.195-.381c-.041-.08-.084-.162-.119-.246l-.27-.597c-.146-.305-.271-.625-.393-.935-.035-.09-.071-.181-.107-.271l-.018-.046-.536.206-.105-.267c-.026-.067-.049-.134-.071-.202-.013-.038-.025-.076-.038-.113l-.215-.637.546-.176-.015-.047c-.012-.037-.025-.074-.038-.111-.022-.064-.045-.131-.064-.198l-.268-.945c-.046-.147-.08-.301-.114-.45-.014-.061-.028-.122-.042-.182l-.158-.685-.561.118-.026-.114-.207-1.158.565-.088-.007-.049c-.038-.271-.072-.543-.106-.815-.02-.161-.04-.321-.061-.479l-.104-1.354-.571.029-.033-1.293h.574s.001-.047.001-.047c.005-.162.009-.324.012-.485.007-.274.013-.549.023-.821.013-.16.025-.32.037-.48.02-.27.041-.55.066-.825l.005-.049-.569-.059c.018-.141.036-.282.054-.422.035-.282.071-.574.115-.86l.567.09.124-.692c.012-.066.024-.131.035-.197.025-.146.051-.297.089-.443l.168-.73c.041-.178.083-.362.137-.538l.015-.049-.555-.149.261-.921.107-.319.545.178.016-.046c.039-.111.076-.223.113-.335.099-.296.202-.603.325-.896l.299-.759.223-.493-.524-.234.256-.567c.061-.13.129-.261.194-.387.036-.07.073-.141.108-.212l.51.262.023-.044c.036-.07.072-.14.107-.21.063-.124.126-.248.192-.37l.49-.851c.051-.09.106-.186.167-.278l.38-.593-.481-.313c.165-.266.349-.524.528-.775.069-.096.138-.193.206-.29l.463.338.029-.04c.023-.031.045-.063.068-.095.04-.057.08-.114.123-.169l.607-.773c.089-.119.189-.233.286-.343.045-.051.09-.103.134-.154l.46-.532-.425-.383c.184-.201.375-.401.561-.595.11-.115.22-.229.329-.345l.405.407.746-.711c.071-.068.153-.147.239-.219l.596-.517c.128-.111.26-.227.397-.33l.041-.031-.362-.447.753-.591.274-.195.337.465.04-.028c.072-.051.143-.102.215-.153.278-.199.566-.404.862-.586l.551-.353c.117-.075.241-.145.36-.212.068-.039.136-.077.203-.117l.043-.025-.287-.496.538-.31.598-.307.26.512.382-.196c.079-.041.161-.083.245-.119l.597-.27c.305-.146.625-.271.935-.393.09-.035.181-.071.271-.107l.046-.018-.205-.536.267-.105c.067-.026.134-.049.202-.071.038-.013.076-.025.113-.038l.637-.215.176.546.047-.015c.037-.012.074-.025.112-.038.064-.022.131-.045.197-.064l.945-.268c.147-.046.301-.08.45-.114.061-.014.122-.028.182-.042l.685-.158-.119-.561.114-.026,1.158-.207.088.565.049-.007c.272-.038.544-.072.816-.107.161-.02.321-.04.479-.061l1.354-.104-.029-.571,1.293-.033v.574s.047.001.047.001c.162.005.324.008.486.012.274.007.549.013.821.023.16.013.32.025.48.037.27.02.55.041.825.066l.049.005.059-.569c.141.018.282.036.423.054.282.035.574.071.86.115l-.09.567.692.124c.066.012.132.024.197.035.146.025.297.051.443.089l.73.168c.178.041.362.083.538.137l.049.015.149-.555.921.261.319.107-.178.545.046.016c.111.039.223.076.335.113.296.099.603.202.896.325l.759.299.493.223.234-.524.567.256c.13.061.26.128.386.194.071.037.141.073.212.109l-.262.51.044.023c.07.036.14.072.21.107.124.063.248.126.37.192l.851.49c.09.051.185.106.278.167l.593.38.313-.481c.266.165.524.349.775.528.096.069.193.138.29.206l-.338.463.04.029c.031.023.063.045.095.067.057.04.114.08.169.123l.773.607c.119.089.233.189.344.286.051.045.103.09.154.133l.532.46.383-.425c.201.185.402.376.596.562.114.109.228.219.343.327l-.407.405.711.746c.068.071.147.153.219.239l.517.596c.111.128.227.26.33.398l.031.041.447-.362.591.753.195.274h0s-.466.337-.466.337l.028.04c.051.071.101.143.152.214.199.278.405.566.586.864l.353.551c.074.117.144.241.212.36.039.068.077.136.117.204l.025.043.496-.287.31.538.307.598-.512.26.196.383c.041.079.083.161.119.245l.27.597c.146.304.271.624.392.933.036.091.071.182.108.273l.018.046.536-.205.105.267c.026.066.049.134.071.201.013.038.025.077.039.114l.215.637-.546.176.015.047c.012.037.025.074.038.111.022.065.045.131.064.198l.268.945c.046.148.081.302.115.451.014.06.027.121.042.18l.158.685.561-.119.026.114.207,1.158-.565.088.007.049c.038.272.073.545.107.817.02.16.04.32.061.478l.104,1.354.571-.029.033,1.293h-.574s-.001.047-.001.047c-.005.164-.009.328-.013.492-.007.272-.013.544-.023.814-.013.16-.025.32-.037.48-.02.271-.041.55-.066.825l-.004.049.569.059c-.019.142-.037.284-.054.426-.035.281-.071.572-.114.856l-.567-.09-.124.692c-.012.066-.024.131-.035.197-.025.146-.051.297-.089.443l-.168.73c-.041.178-.083.362-.137.538l-.015.049.556.149-.261.921-.107.319-.545-.178-.016.046c-.038.111-.076.223-.113.334-.099.296-.202.603-.325.896l-.299.759-.223.493.524.234-.256.567c-.061.13-.128.26-.193.385-.037.071-.073.142-.109.214l-.511-.262-.023.044c-.036.069-.071.139-.107.209-.063.125-.127.249-.193.371l-.49.851c-.051.09-.106.186-.167.278l-.38.593.481.313c-.165.266-.349.525-.529.775-.069.096-.138.193-.206.289l-.463-.338-.029.041c-.023.031-.045.063-.067.095-.04.057-.08.114-.123.169l-.607.773c-.089.119-.189.233-.285.343-.045.051-.09.103-.134.155l-.46.532.425.383c-.185.201-.376.402-.562.596-.109.114-.219.228-.327.343l-.405-.407-.746.711c-.07.068-.153.147-.239.219l-.596.516c-.128.111-.261.227-.398.33l-.041.031.362.447-.753.591-.274.195h0s-.338-.465-.338-.465l-.04.028c-.071.05-.142.101-.213.152-.279.199-.567.405-.864.587l-.551.353c-.117.074-.241.144-.36.212-.068.039-.136.077-.204.117l-.042.025.287.496-.538.31-.598.307-.26-.512-.383.196c-.079.041-.161.083-.244.118l-.597.27c-.304.146-.624.271-.933.392-.091.036-.182.071-.273.108l-.046.018.206.536-.267.105c-.066.026-.134.049-.201.071-.038.013-.077.026-.115.039l-.637.215-.176-.546-.047.015c-.037.012-.074.025-.111.038-.065.022-.131.045-.198.064l-.945.268c-.148.046-.302.081-.451.114-.06.014-.121.027-.181.042l-.685.158.118.561-.114.026-1.158.207-.088-.565-.049.007c-.272.038-.544.073-.817.107-.16.02-.32.04-.478.061l-1.354.104.029.571-1.293.033v-.574s-.047-.001-.047-.001c-.164-.005-.328-.009-.492-.013ZM33.196,57.743h0,0Z"/>
  </g>
  <g class="cls-8">
    <path class="cls-52" d="M39.365,18.242c-.021-.002-.038.014-.034.031.01.045.032.085.078.115.031.02.057.041.095.051.026.007.053.011.081.013.027.002.057-.004.083.005.081.028.091.151.205.133.052-.008.091-.031.142-.003.045.025.081.06.125.086.031.019.069.042.108.044.029.002.049.01.075.024.022.012.067.033.077.055.005.012-.002.014-.005.027-.005.021.002.03.018.044.016.015.043.037.043.059,0,.021-.027.024-.04.039-.012.013-.016.03-.011.046.003.008.01.01.007.019-.002.008-.019.016-.026.02-.017.01-.02.011-.04.007-.013-.002-.026-.009-.031.004-.006.016.056.084.074.072.008-.005.006-.024.018-.031.021-.014.055-.007.079-.006.043.001.08.003.049.043-.023.029-.056.005-.087.009-.019.003-.054.022-.048.04.005.015.039.022.054.026.003.019.002.058-.035.044-.034-.013-.043-.058-.067-.08-.033-.03-.051.012-.037.037.011.02.031.035.053.047.019.01.023.005.044.006.028.001.038.013.025.034-.004.006-.008.008-.011.013-.006.011-.002.019-.018.026-.017.007-.034,0-.049.01-.02.013-.009.035-.027.046-.016.01-.028,0-.024.016.001.006.009.007.009.016,0,.009-.007.016-.004.026.007.026.042.031.058.051.009.012,0,.008-.001.02,0,.009.006.013.007.022.002.018-.013.024.003.043.015.016.034.023.055.032.025.011.015.001.039-.003.018-.003.035.021.028.035-.002.003-.008.004-.012.004-.01.022-.005.027.002.048.009.026.016.02.046.027.008.002.017.008.024.011.012.005.028.006.039.011.008.004.011.013.019.016.01.004.025,0,.036.001.014.002.024.009.037.013.003,0,.019.003.019.003.018.011.018.032.043.043.03.012.051.001.075-.013.025-.015.053-.007.082-.018.013-.005.029-.013.043-.009.014.004.02.015.037.017.042.005.054-.013.083-.031.031-.02.064,0,.099-.006.018-.003.031-.011.049-.008.017.003.029.015.044.02.029.011.046-.004.075-.003.02,0,.039.005.061.004.036-.002.059-.016.092-.023.02-.004.036.003.056.002.019,0,.029-.008.043-.017.038-.024.099-.029.143-.047.048-.019.088-.059.124-.091,0-.002-.002-.003-.005-.003,0,.002.002.006.002.008.013-.02.031-.039.042-.061.012-.025-.004-.042.001-.066.003-.016.027-.037.041-.048.02-.015.023-.035.03-.055.003-.009,0-.017.005-.026.007-.013.013-.019.014-.034,0-.016,0-.03.016-.042.016-.011.034-.015.035-.035,0-.017-.007-.031-.003-.049.006-.03.015-.05-.001-.078-.011-.019-.036-.047-.02-.069.003-.005.03-.013.036-.016.03-.013.06-.025.089-.038.024-.01.017-.053.02-.069.004-.022.028-.024.05-.03.019-.005.044-.017.048-.034.006-.022-.02-.039-.03-.057-.015-.027-.003-.062.026-.08.016-.01.027-.024.042-.035.023-.017.041-.027.054-.05.017-.029-.022-.06-.05-.074-.053-.025-.098.037-.138.054-.03.013-.062.002-.091.02-.024.015-.044.034-.071.045-.025.01-.056.009-.077.026-.03.024-.05-.003-.082-.001-.023,0-.044-.013-.065-.009-.005,0-.005.006-.011.007-.02,0-.039-.03-.035-.043.002-.007.012-.009.014-.017.004-.014-.005-.02.004-.033.007-.01.014-.01.01-.022-.004-.01-.021-.016-.027-.025-.007-.011-.003-.021-.004-.033-.004-.031-.108-.119-.058-.145.022-.011.073-.003.098-.006.063-.006.178.005.164-.071-.009-.047-.018-.112-.053-.151-.036-.041-.103-.071-.162-.083-.029-.006-.048-.015-.052-.04-.002-.014.006-.065-.03-.048-.013.006.001.026-.005.035-.008.011-.035.012-.048.013-.047.003-.094-.001-.14.006-.023.003-.046.01-.066.02-.017.01-.034.03-.058.021-.011-.004-.027-.021-.034-.029-.01-.012-.007-.018-.005-.034.003-.027-.003-.054-.026-.074-.016-.014-.059-.043-.083-.043-.016,0-.015.005-.032,0-.014-.004-.031-.01-.047-.011-.017-.002-.036.005-.052,0-.011-.003-.021-.012-.034-.006-.023.011.009.042-.019.053-.009.003-.033-.044-.036-.049-.006-.01-.012-.024-.022-.032-.013-.011-.027,0-.042-.003-.015-.003-.026-.016-.042-.02-.021-.005-.043-.005-.065-.006-.014,0-.029.002-.043.003-.004,0-.005.004-.002.006.01.007.017.019.017.027,0,.001-.003.007-.007.013-.007.011-.024.015-.037.01-.005-.002-.01-.003-.015-.003-.011,0-.009.006-.017.009-.027.008-.036-.019-.059-.017-.012,0-.022.012-.035.013-.015,0-.026-.003-.037-.01-.016-.01-.031-.022-.044-.035-.018-.018-.041-.031-.068-.038-.027-.007-.052-.032-.08-.036-.01-.002-.016.003-.026-.001-.016-.008-.014-.014-.035-.009-.021.005-.023.004-.043-.006-.012-.007-.025-.013-.037-.019-.014-.008-.055-.017-.067-.005-.009-.006-.018-.012-.029-.012-.011,0-.017.007-.03.005-.011-.002-.02-.01-.03-.014-.013-.004-.025,0-.038-.004-.016-.004-.021-.018-.04-.011-.023.009-.039.024-.066.027-.024.003-.045.003-.058.023-.011.017-.011.037-.019.055-.01.021-.005.036-.04.036-.014,0-.023.002-.036.003-.021.002-.025-.003-.036.013-.008.012-.008.027-.017.04-.009.014-.025.019-.033.034-.005.009-.013.021-.013.03,0,.009.009.023.012.033.003.011.015.02.019.03.007.016-.009.016-.023.025-.012.008-.019.02-.027.031-.014.019-.035.028-.06.035-.013.004-.032.009-.04.019-.008.009.003.02.003.03-.001.034-.074.064-.105.074-.022.007-.048.008-.072.006Z"/>
    <g>
      <path class="cls-7" d="M31.863,10.697s-.004.001,0,0t0,0Z"/>
      <path class="cls-28" d="M44.644,11.876c-.033-.02-.069-.037-.109-.05-.048-.015-.076-.034-.105-.068-.026-.031-.051-.061-.083-.088-.141-.119-.318-.023-.507-.056-.101-.018-.25-.149-.353-.159-.03-.003-.083-.006-.08-.041.003-.034.059-.054.093-.056.047-.004.098.011.142.024.043.013.078.045.121.055.023.005.047.002.07.009.02.006.036.016.056.022.044.013.078-.011.12.012.039.022-.005.044.038.06.037.014.216.058.201.033-.038-.051-.109-.089-.165-.126-.067-.045-.133-.092-.199-.138-.137-.094-.276-.187-.415-.279-.138-.091-.28-.177-.418-.268-.026-.017-.052-.04-.081-.054-.039-.018-.051.007-.086.014-.037.006-.082-.021-.112-.035-.035-.017-.069-.035-.102-.054-.063-.037-.123-.081-.195-.107-.037-.013-.076-.018-.115-.025-.042-.008-.081-.022-.123-.032-.033-.007-.065-.014-.097-.024-.043-.014-.089-.013-.133-.025-.033-.009-.076-.033-.111-.032-.015,0-.026.006-.041.003-.016-.003-.031-.012-.046-.018-.071-.031-.152-.043-.232-.049-.043-.003-.08-.01-.121-.02-.037-.009-.074-.003-.107.013-.029.014-.046.034-.036.062.006.016.049.051.044.065-.006.015-.043.008-.055.002-.025-.013-.028-.04-.047-.057-.023-.022-.058-.024-.091-.028-.043-.005-.085-.011-.127-.017-.083-.012-.161-.035-.236-.065-.033-.013-.064-.032-.1-.04-.038-.008-.071.004-.109-.006-.035-.009-.048.015-.072.033-.019.015-.044.038-.021.057.015.012.033.018.035.029.002.012.01.024.023.03.039.016.063.055.099.074.047.025.111.025.153.058.027.021.026.041.008.067-.016.023-.021.051-.04.073-.015.017-.039.036-.066.037-.022.001-.018-.005-.02-.02-.001-.012-.008-.021-.014-.032-.012-.021-.05-.034-.027-.056.025-.024.064-.006.086-.024,0-.02.033-.032.01-.052-.015-.013-.04-.018-.061-.022-.018-.004-.044-.008-.058-.019-.012-.01-.013-.022-.029-.03-.018-.008-.043-.008-.062-.014-.011-.004-.012-.016-.002-.021.013-.006.009-.016-.018-.023-.017-.004-.035-.002-.05-.009-.013-.006-.024-.016-.036-.025-.006-.005-.008-.012-.008-.019.001-.023-.04-.045-.06-.056-.041-.023-.091-.03-.138-.041-.022-.005-.04-.009-.058.005-.013.011-.018.022-.039.026-.037.006-.075-.017-.108-.026-.011-.003-.041-.005-.043-.018,0-.006.003-.009.008-.012.014-.006.014-.023,0-.03h0c-.009-.004-.022-.005-.028-.012-.015-.015.001-.029-.021-.043-.024-.015-.104-.042-.122-.014-.009.014,0,.02-.024.023-.028.004-.057,0-.086.007-.029.006-.056.018-.085.024-.023.005-.044.006-.058.024-.018.024,0,.036.023.046.012.005.016.017.013.028,0,.004.001.009.006.016.013.02.017.033.003.054-.016.023-.096.084-.05.111.007.004.034.005.037.013.003.008.007.016.015.02.062.036.157.024.224.049.046.017.095.044.132.072.011.008.03.023.009.03-.019.006-.058-.018-.072-.026-.071-.036-.141-.073-.229-.071-.051.001-.075.02-.098.055-.015.023-.033.035-.058.04-.019.004-.037.012-.051.024-.051.046-.232-.009-.28-.011-.015,0-.111.005-.093-.026.011-.019.075-.009.095-.008.035.003.067.014.101.02.011.002.031.007.042.005.006-.001.011-.004.013-.007.006-.008.016-.014.028-.015.027-.002.054-.007.079-.015.016-.005.031-.014.039-.026.005-.009.024-.016.033-.019h.001c.04-.015.043-.059.006-.078-.022-.011-.038-.025-.033-.043.003-.011-.003-.023-.016-.028-.011-.004-.02-.009-.02-.017,0-.006.003-.009.008-.011.014-.005.02-.018.015-.03,0-.002-.001-.004-.002-.006-.004-.023.019-.02.035-.031.021-.014.006-.044.003-.064-.003-.023-.028-.031-.036-.052-.015-.041.03-.033.06-.034.015,0,.03-.001.03-.016,0-.008-.011-.01-.008-.02.002-.009.016-.013.016-.023,0-.015-.03-.032-.042-.041-.009-.007-.014-.013-.027-.016-.011-.002-.024.004-.033-.004-.007-.006-.002-.019-.007-.027-.006-.009-.018-.014-.029-.018-.023-.009-.049-.011-.074-.014-.069-.009-.134-.031-.202-.043-.019-.003-.057-.016-.075-.008-.013.006-.009.018-.018.026-.01.009-.024.006-.03.018-.012.023.017.043-.024.055-.024.007-.054.004-.079,0-.062-.007-.123-.024-.184-.014-.017.003-.026.021-.014.032.002.002.004.004.004.007,0,.005,0,.008-.004.011-.009.007-.012.018-.004.026.015.017.024.036-.007.043-.013.003-.027-.008-.039.001-.007.005-.004.012-.01.017,0,0-.001,0-.002.001-.01.005-.011.017-.002.023.007.004.016.007.026.011.023.009.024.023.042.036.034.024.086.025.106.064.019.037-.022.046-.048.018-.011-.011-.016-.026-.032-.034-.02-.009-.047-.005-.068-.01-.026-.007-.063-.02-.093-.036-.015-.008-.025-.021-.029-.035-.003-.01-.037-.018-.046-.021-.04-.013-.072-.038-.115-.045-.043-.008-.067-.036-.112-.041-.027-.003-.053-.003-.079-.01-.026-.007-.05-.017-.077-.02-.047-.004-.094.008-.134-.013-.014-.007-.016-.023-.006-.033h0s0-.005-.001-.006c-.024-.012-.048-.007-.065-.032.023-.008-.012-.021-.021-.024-.026-.008-.055-.007-.083-.012-.033-.006-.056-.026-.088-.034-.022-.005-.033.002-.043.011-.012.011-.006.028.011.032,0,0,.002,0,.003,0,.01.003.015.011.015.02,0,.008.017.017.028.019.011.002.023-.005.033-.003.018.004.01.01.017.021.013.02.04.022.067.026.028.003.043.031.024.048-.005.004-.011.007-.022.006-.018-.002-.033-.015-.051-.02-.018-.005-.037-.005-.055-.011-.037-.011-.047-.02-.087-.011-.038.008-.078.003-.116,0-.044-.003-.085-.013-.128-.023-.022-.005-.044-.01-.067-.011-.02,0-.041.006-.061.003-.042-.005-.015-.03-.024-.052-.011-.025-.057-.028-.083-.03-.043-.004-.09-.01-.132.002-.022.006-.038.013-.062.013-.012,0-.023-.002-.034-.005-.012-.002-.025-.002-.035.004-.009.006-.044-.004-.052-.006-.011-.002-.041-.008-.055-.002-.016.006-.034.004-.05-.002-.012-.005-.024-.011-.037-.013-.036-.007-.039.017-.068.019-.014.001-.03-.005-.044-.006-.016-.001-.033,0-.049,0-.037,0-.06.013-.093.019-.014.003-.03-.002-.043,0-.012.003-.016.011-.026.017-.018.01-.039.003-.053.017-.014.014-.002.028-.025.032-.016.003-.038-.004-.054-.008-.023-.005-.073-.009-.078-.034-.008-.042.056-.02.081-.021.008,0,.079-.002.086-.015.004-.007.019-.016.013-.025-.006-.01-.033-.009-.044-.012-.019-.004-.036-.011-.04-.028-.006-.028.051-.013.068-.009.051.01.099.019.151.022.03.001.07.009.1.004.036-.007.027-.032.001-.045-.034-.018-.077-.018-.116-.021-.024-.001-.046-.005-.068-.009-.013-.003-.028-.008-.041-.005-.038.009.001.045-.045.043-.041-.002-.079-.012-.12-.012-.01,0-.041,0-.049-.008-.008-.009-.019-.016-.033-.016-.019,0-.038.001-.057.002-.021,0-.065.004-.082-.007-.013-.009-.001-.023-.013-.03-.017-.011-.065.002-.084.004-.028.003-.087-.017-.073.021.005.014.016.036.03.045.008.005.019.005.027.01.012.007.016.018.022.028.005.009.016.018.017.028.001.008-.006.017-.005.025,0,.006.003.01.007.014.013.014.004.034-.018.036-.023.002-.046-.001-.069-.007-.037-.009-.068-.01-.106-.002-.016.004-.06.019-.074.005-.019-.018.024-.018.035-.022.014-.005.017-.006.014-.02-.001-.006-.007-.01-.008-.016-.001-.006.002-.013.001-.019-.003-.017-.018-.025-.032-.036-.014-.01-.02-.02-.029-.033-.009-.013-.012-.015-.03-.018-.022-.004-.034-.006-.053-.016-.031-.017-.079-.017-.102-.042-.014-.015-.02-.021-.044-.026-.018-.004-.037-.007-.055-.011-.015-.003-.031-.004-.046-.008-.013-.003-.029-.008-.033-.02-.004-.011-.009-.015-.024-.014-.021.002-.043.016-.065.012-.028-.005-.041-.033-.065-.044-.037-.016-.064-.005-.103-.004-.02,0-.035-.008-.053-.014-.02-.006-.041-.009-.061-.012-.081-.011-.157-.035-.225-.071-.056-.029-.124-.009-.186-.003-.044.004-.13.01-.144-.037.029-.014.111.032.117-.016.006-.047-.096-.033-.128-.034-.019,0-.077.003-.091-.008-.016-.013.006-.026-.027-.036-.057-.016-.13-.022-.189-.019-.07.003-.134.009-.204.002-.067-.006-.126.014-.192.023-.062.008-.121.019-.183.007-.048-.009-.108-.019-.151.006-.027.016-.055.031-.09.034-.036.003-.069-.011-.105-.007-.034.004-.068.012-.102.016-.031.003-.07.005-.097.018.012.026-.012.032-.038.038-.037.008-.069.025-.105.034-.008.002-.019.006-.027.005-.015-.002-.008,0-.015-.01-.006-.009-.004-.016-.015-.022-.027-.016-.083-.003-.114,0-.023.002-.06,0-.079.013-.03.021,0,.045.03.046.037.001.071-.018.107-.022.022-.002.085.008.045.032-.024.014-.068.003-.096.005-.034.002-.06.016-.076.04.011.004.05.005.05.02,0,.021-.042.007-.055.012-.014.006-.008.019-.017.028-.012.013-.029.006-.045.009-.024.004-.049.026-.058.044-.008.016.009.039-.006.05-.022.018-.062-.008-.088-.002-.028.007-.033.036-.054.05-.028.018-.072.017-.105.028-.022.007-.077.028-.035.046.024.011.069.001.081.027-.022.019-.063.009-.091.006-.034-.004-.065-.004-.096.011-.029.014-.052.037-.088.038-.034.001-.077-.022-.11-.009-.028.011-.003.036-.022.054-.017.016-.057.026-.08.032-.024.006-.05.006-.072.014-.014.005-.017.014-.023.025-.007.013-.014.016-.027.024-.005.003-.01.007-.014.011-.025.024-.044.035-.08.04-.024.003-.116.014-.087.05.011.013.062.02.04.043-.013.013-.078.025-.046.046.012.008.03.005.042.012.005.003.009.008.011.013.004.009.012.016.024.019.003,0,.006.002.008.003.014.008.009.022.02.031.01.009.05.008.047.025-.003.015-.041.014-.052.023-.009.007-.012.018-.012.03,0,.017.015.031.036.034.017.002.032.01.048.018.031.015.054.015.089.019.043.005.072.008.115-.001.028-.006.052-.002.079-.004.021-.002.027-.009.029-.019.002-.011.016-.017.028-.013.016.006.027.013.05-.001.028-.018.046-.036.083-.041.015-.002.032-.003.045-.01.005-.003.012-.018.018-.019.019-.004.029.043.044.052.013.007.026.005.035.017.005.008.002.017.008.025.009.011.026.01.036.018.012.01.008.025.021.034.011.008.028.011.04.019.013.009.02.014.037.017.031.005.052.01.04.042-.019.053-.071.05-.118.061-.017.004-.016.024.001.027.008.002.016.004.024.007.017.008.031.02.053.012.005-.002.009-.004.012-.007.019-.015.048-.017.068-.002.015.01.032.018.048.018.027.001.05-.016.077-.016.026,0,.051.007.066-.016.012-.018.01-.031.041-.032.024,0,.052.011.067-.01.005-.007-.001-.011.009-.018.008-.005.021-.004.03-.005.023-.001.042-.001.063-.01.019-.008.035-.019.049-.032.029-.027.022-.066-.009-.092-.006-.005-.008-.012-.002-.021.009-.014.036-.014.051-.021.02-.01.031-.028.055-.033.02-.005.081.002.059-.031-.008-.011-.039-.02-.026-.035.008-.01.035-.007.048-.008.021,0,.049.001.055-.019.003-.01-.007-.025-.002-.034.009-.014.008-.031-.007-.041-.018-.013-.047-.017-.071-.021-.018-.003-.049-.003-.064-.012-.01-.006-.012-.013-.011-.021.002-.017-.013-.032-.034-.034h0c-.015-.002-.02-.017-.008-.025.025-.016.057-.028.072-.049.008-.011-.003-.02.008-.029.011-.009.041-.006.055-.01.022-.006.042-.014.066-.016.016-.002.054.003.066-.004.007-.005.011-.019.021-.025.011-.007.026-.011.039-.015.028-.008.057-.011.085-.021.037-.013.055-.035.077-.061.023-.026.049-.058.081-.076.029-.017.067-.021.101-.027.034-.006.082-.017.109.006.022.018.029.028.057.038.033.012.014.028-.013.037-.035.012-.072.036-.109.036-.018,0-.034-.002-.05.005-.017.007-.028.019-.048.024-.034.009-.069.002-.094.027-.009.009-.014.02-.026.027-.014.008-.033.007-.047.014-.037.018-.029.065-.046.093-.022.035-.017.056,0,.093.006.012.009.033.019.043.008.008.019.007.03.011.03.011.046.037.076.049.039.016.089.015.131.017.048.003.096.007.144.005.043-.002.076-.018.117-.025.043-.008.09-.002.134-.006.049-.005.088.005.135.012.019.003.115.006.119.027.003.017-.092.022-.106.023-.102.012-.192.002-.293-.01-.046-.006-.09-.011-.133.006-.037.015-.075-.003-.105.021-.013.01-.018.013-.036.016-.01.001-.023-.001-.029.007-.006.01.009.016.005.024-.005.013-.036.014-.049.015-.016,0-.087-.005-.09.018-.001.013.031.015.041.016.022.003.044.005.066.008.016.003.034.007.05,0,.013-.006.016-.022.029-.025.02-.006.066.034.073.048.019.034-.027.041-.056.03-.038-.015-.066-.027-.109-.03-.039-.002-.077-.017-.105.008-.013.012-.021.019-.042.021-.007,0-.014,0-.022,0-.006,0-.011.003-.013.007-.005.01-.013.019-.024.025-.03.015-.064.037-.031.053.015.007.033.007.034.025,0,.009-.006.016-.01.024-.006.013-.017.024-.033.028-.007.002-.013.004-.019.008-.016.011-.021.029-.034.041-.03.028-.043-.008-.072-.017-.02-.006-.044-.005-.065-.007-.025-.003-.05-.009-.075-.008-.043.002-.079.024-.12.029-.023.002-.048-.003-.07.005-.017.006-.028.02-.044.028-.037.018-.083.01-.124.007-.102-.007-.197-.02-.296-.039-.05-.01-.104.009-.152-.005-.014-.004-.036-.014-.023-.028.003-.004.009-.006.015-.006.008-.001.01-.01.002-.013h0c-.019-.007-.015-.03.006-.032.01,0,.021-.002.031-.004.012-.003.014-.016.003-.021-.008-.003-.013-.008-.008-.017.012-.019.041,0,.058-.005.049-.012-.068-.053-.084-.056-.068-.014-.12,0-.185.012-.031.005-.056-.003-.086-.006-.011-.001-.065,0-.065.015,0,.009.029.01.036.013.018.008.018.016.01.023-.009.008-.012.018-.012.029,0,.023-.033.054-.032.075,0,.042.065.031.091.055.037.034-.062.042-.084.043-.023.001-.046.001-.068.006-.039.008-.074.024-.115.03-.04.006-.085.005-.122.02-.031.013-.059.036-.087.053-.03.019-.052.043-.08.063-.023.016-.057.015-.072.037-.008.011-.006.017-.023.022-.018.006-.034.006-.05.015-.03.017-.052.042-.082.057-.073.038-.151.057-.235.07-.039.006-.076.017-.11.033-.032.016-.062.036-.1.041-.039.005-.077.001-.115.009-.022.005-.058.008-.071.025,0,0,0,0,0,0-.008.011.002.026.017.026.008,0,.016.007.016.013,0,.013.011.025.026.031.014.006.03.01.043.007.005-.001.01-.003.015-.006.019-.01.043-.007.058.007.003.003.007.005.013.006.022.004.034-.009.057.001.035.015.071.023.107.04.017.008.037.015.049.027.016.016.005.025.006.043,0,.021.02.016.031.03.011.015-.01.027-.019.038-.014.017-.02.038-.028.058-.006.014-.009.036-.026.044-.018.008-.052.007-.072.009-.029.003-.058.007-.087.01-.115.011-.228.008-.343.007-.079,0-.167.009-.239.04-.026.011-.038.034-.038.058,0,.001,0,.002,0,.003-.002.012-.018.013-.024.022-.013.021.022.069.035.088.022.033.039.059.019.097-.014.025-.054.054-.03.083.015.018.042.025.052.04.007.012.018.022.033.027.002,0,.004.002.006.004.012.012-.008.029.011.04.013.008.038,0,.053,0,.023-.001.046,0,.068,0,.046.003.095.005.14.012.023.004.041.017.063.022.012.002.023.006.033.01.033.013.129-.017.154-.021.061-.01.121-.016.179-.037.055-.02.104-.05.157-.073.045-.02.091-.038.108-.081.015-.039.031-.074.032-.114,0-.022.015-.031.039-.042.019-.008.04-.022.061-.026.041-.006.08,0,.121-.015.025-.009.032-.022.051-.038.024-.02.04-.019.036-.052-.003-.023.002-.032.023-.046.002-.001.003-.002.005-.003.032-.022.074-.028.114-.019.002,0,.004,0,.007.001.043.007.088.008.132.008.085,0,.147-.037.214-.075.032-.018.073-.034.111-.019.035.014.048.05.079.067.01.005.018.012.025.02.018.019.038.021.059.03.017.007.027.022.045.029.017.007.036-.002.052.004.015.005.013.015.023.024.012.011.026.009.042.01.049.002.097.018.141.032.033.011.065.023.096.036.031.013.072.021.098.042.05.039-.007.087.019.128.042.067.149-.013.175-.049.016-.023.01-.039.017-.062.008-.027.03-.016.055-.012.028.005.057-.018.039-.041-.015-.02-.058-.031-.082-.04-.076-.029-.146-.06-.226-.082-.074-.02-.142-.052-.197-.098-.028-.023-.056-.043-.088-.062-.021-.012-.055-.037-.036-.061.015-.018.042-.006.061,0,.019.006.038.006.057.01.019.005.029.015.044.024.025.017.061.017.084.036.024.02.032.033.066.041.036.008.058.025.09.04.036.016.08.018.119.028.04.011.077.025.111.045.014.008.027.017.043.023.015.006.037.004.051.011.022.012.01.038.013.056.003.016.014.028.022.042.008.015.011.033.024.046.01.01.024.016.036.024.014.01.019.021.03.033.022.025.07.021.102.034.038.015.071.031.114.037.042.005.084.008.126.012.019.002.041.004.06,0,.016-.003.012,0,.018-.011h0c.008-.012,0-.028-.017-.031-.017-.003-.034-.006-.044-.019-.008-.01-.006-.024-.012-.035-.005-.012-.015-.021-.026-.029-.01-.008-.034-.019-.018-.029.02-.013.063.012.088.003.021-.007.03-.024.048-.034.025-.013.046-.001.072.005.032.008.067.011.101.015.036.004.068-.004.103.004.042.009.069-.007.11-.012.027-.003.057,0,.084-.004.016-.002.02-.019.008-.027-.001,0-.002-.001-.003-.002-.013-.009-.02-.022-.03-.032-.009-.009-.02-.016-.032-.022-.01-.004-.025-.005-.032-.013-.017-.019.016-.038.031-.049.011-.008.022-.014.026-.026.004-.011-.001-.021.007-.031.012-.015.042-.02.06-.03.013-.007.022-.012.037-.016.006-.002.03-.004.031-.012.001-.009-.023-.011-.025-.022-.002-.017.026-.017.04-.021.027-.007.037-.022.057-.038.014-.011.026-.016.027-.022.002-.01.012-.018.024-.016.01.001.019.001.029-.003.018-.007.024-.024.048-.022.034.003.049.03.086.03.014,0,.069-.007.063.016-.007.023-.068.01-.088.011-.044.001-.05.034-.015.054.013.008.031.01.044.018.017.011.013.026.021.041.024.039.098.049.145.043.03-.004.058-.012.087-.017.03-.005.059-.003.089-.004.022,0,.058-.004.063-.026.004-.019-.019-.028-.03-.04-.003-.003.002-.008-.004-.012-.005-.004-.014-.004-.02-.004,0,0-.002,0-.003,0-.014,0-.028-.004-.039-.011-.006-.004-.018-.006-.022-.009-.01-.005-.017-.014-.028-.017-.013-.004-.028.002-.039-.007.026-.013.064-.005.093-.006.034-.002.07-.008.104-.012.016-.002.03-.005.044-.012.01-.005.022-.019.034-.021.004,0,.008,0,.013.002.039.016.041.06.007.081-.021.013-.044.025-.064.04-.029.021-.005.042.013.063.011.014.022.027.039.036.018.009.04.01.058.02.015.009.021.023.04.028.023.007.048.001.071.008.039.011.065.034.108.041.04.007.046.037.077.054.019.01.059.023.051.047-.009.023-.052.044-.078.046-.05.004-.099-.012-.149-.012-.021,0-.039.003-.059-.004-.02-.008-.035-.018-.057-.022-.024-.004-.05-.001-.074-.007-.023-.005-.043-.017-.066-.023-.023-.006-.045-.008-.066-.018-.023-.01-.043-.023-.068-.029-.045-.012-.094-.004-.14-.013-.021-.004-.042-.01-.062.001-.019.01-.022.02-.048.02-.048,0-.097-.013-.145-.008-.02.002-.035.013-.055.016-.022.004-.046-.003-.068-.005-.035-.003-.075-.004-.1.019-.009.009-.012.018-.026.024-.018.007-.041.009-.06.017-.045.017-.092-.006-.135.01-.016.006-.026.019-.043.024-.021.006-.046,0-.067.002-.003,0-.006,0-.009,0-.023.002-.037.022-.027.039h0c.01.019-.012.034-.004.052.003.008.014.012.018.019.006.009.003.017.005.027.006.02.02.021.04.028.006.002.015.004.019.009.008.009-.002.014,0,.017.004.011.022.013.035.018.05.017.085.044.141.053.06.01.123.018.184.013.048-.004.102-.025.15-.012.025.007.035.024.054.037.021.014.049.018.076.019.058.002.118-.009.176-.011.042-.001.096-.029.122.011.024.037-.028.072-.056.096-.016.014-.04.023-.054.038-.017.019.002.036-.007.055-.009.018-.034.018-.041.038-.007.02-.007.033-.028.047-.032.023-.08.039-.122.029-.051-.011-.093-.041-.143-.056-.055-.017-.104-.019-.157.001-.056.022-.1.024-.159.006-.056-.017-.111-.037-.171-.039-.028,0-.083.016-.103-.006-.015-.016-.003-.032-.036-.034-.017-.001-.035.003-.052.005-.033.004-.079.015-.111.004-.012-.004-.017-.009-.017-.015,0-.012-.008-.022-.022-.024h-.005c-.016-.003-.022-.003-.031-.011-.013-.011-.019-.019-.039-.026-.045-.015-.071-.009-.113.005-.027.009-.054,0-.082.003-.034.003-.046.023-.074.034-.03.012-.038.015-.043.044-.003.019-.007.036-.032.043-.04.011-.09-.012-.13-.013-.062-.002-.123-.008-.176-.036-.02-.01-.01-.012-.017-.026-.005-.01-.014-.018-.027-.022-.014-.004-.027,0-.04-.007-.012-.006-.018-.016-.032-.022-.027-.01-.058-.009-.086-.018-.029-.01-.048-.014-.079-.008-.027.005-.054.013-.073-.009-.021-.023-.021-.036-.062-.027-.04.009-.06.001-.099-.007-.002,0-.003,0-.005,0-.016-.002-.021-.019-.009-.027.003-.002.006-.005.008-.009.011-.022-.027-.036-.025-.058.002-.016.041-.039.019-.054-.017-.012-.053.017-.064-.005-.002-.003-.002-.007,0-.01.008-.018.004-.038-.014-.051,0,0-.002-.001-.002-.002-.005-.006-.009-.012-.016-.016-.01-.005-.019-.012-.031-.014-.026-.005-.053-.008-.079-.014-.026-.006-.056-.01-.082-.002-.026.008-.045.022-.074.027-.065.011-.131.011-.197.01-.065-.001-.128.006-.192.013-.033.003-.066.005-.099.004-.034,0-.065.007-.098.011-.031.004-.055-.008-.085-.009-.03-.001-.055.014-.083.02-.03.007-.059.012-.087.024-.026.011-.047.028-.073.038-.011.004-.026.005-.036.01-.012.006-.016.016-.026.024-.019.014-.046.011-.07.013-.083.004-.165.02-.248.024-.03.001-.059.004-.088.009h0c-.058.01-.111.037-.145.077-.005.006-.011.012-.017.018-.01.009-.019.01-.03.011-.021.002-.052.012-.069.021-.036.019-.065.046-.101.065-.005.003-.01.005-.015.008-.041.02-.066.057-.065.096,0,.007,0,.013.002.02.006.024-.012.037.018.055.026.016.04.029.012.052-.025.019-.046.023-.06.051-.015.029-.042.04-.079.047-.058.011-.081.025-.152.075-.008.005-.014.012-.02.018-.019.019-.059.022-.066.047-.008.029-.016.045-.05.061-.011.005-.025.009-.033.018-.013.013-.002.02-.006.033-.003.013-.016.012-.026.02-.01.008-.013.02-.014.031-.002.025.007.051-.014.072-.017.017-.048.021-.064.039-.02.023.011.042.001.066-.009.021-.044.023-.053.044-.01.024.019.039.036.054.011.009.02.021.033.029.013.008.029.011.042.019.026.017.024.048.03.072.007.029.028.054.041.082.014.03.005.058-.014.085-.015.021-.045.04-.05.065-.006.029.026.036.039.057.012.02-.009.047.024.051.017.002.02-.003.032.01.008.009.005.016.02.021.015.004.032-.004.047-.004.017,0,.036.007.047.017.011.01.015.023.026.032.012.01.03.018.046.024.035.014.072.019.105.036.03.016.054.038.079.059.05.042.101.074.172.085.07.011.123.043.19.061.058.016.073.071.136.082.075.014.157-.006.225-.03.068-.024.133-.058.208-.064.076-.006.151.02.226.006.013-.002.033-.007.044-.016.015-.012.034-.018.054-.021.028-.004.055-.015.08-.024.053-.017.106-.034.16-.049.05-.013.106-.023.158-.008.046.013.075.044.111.069.09.063.183.012.286.023.075.008.122.064.111.124-.007.036-.036.064-.057.095-.024.035-.033.075-.025.115.018.088.134.102.204.154.08.059.138.136.155.223.009.043.018.084.038.125.017.034.039.069.01.103-.027.032-.076.047-.105.078-.032.035-.051.08-.059.123-.015.085.033.16.092.226.032.037.065.073.089.114.012.02.022.041.023.063.001.022-.008.043-.006.065.004.038.04.069.05.106.011.043.007.084.038.122.027.033.064.059.086.095.024.038.04.081.046.124.005.042,0,.087.029.124.013.018.029.033.04.052.01.018.017.038.034.054.061.055.156-.012.216-.034.092-.035.182-.03.281-.024.041.003.08,0,.104-.03.017-.021.022-.048.059-.051.021-.001.04.008.062,0,.023-.007.043-.028.061-.041.033-.025.057-.058.098-.076.048-.021.1-.03.143-.057.042-.026.072-.059.095-.098.019-.033.031-.068.079-.076.026-.005.053-.002.079-.006.018-.003.049-.012.026-.029.087-.016.123-.076.128-.145.003-.043-.026-.084-.007-.127.017-.038.056-.063.1-.079.05-.018.104-.024.158-.029.047-.005.105-.003.146-.024.039-.02.063-.059.094-.086.036-.032.066-.064.082-.106.015-.038.019-.08.013-.12-.006-.041-.031-.077-.039-.118-.009-.044.015-.083.011-.126-.003-.035-.035-.068-.03-.103.007-.054.094-.073.141-.097.083-.043.146-.106.241-.134.098-.029.205-.032.29-.086.043-.028.081-.057.132-.075.052-.018.107-.031.155-.055.085-.043.143-.114.222-.163.052-.033.135-.072.128-.135-.01-.093-.167-.077-.247-.077-.062,0-.124.003-.186.006-.057.003-.118.01-.173-.004-.04-.01-.093-.029-.119-.057-.028-.03-.015-.07.024-.088.085-.039.183.02.268.03.055.007.105-.012.158-.021.058-.01.118-.006.176-.008.124-.005.246-.016.37-.028.06-.006.121-.001.181-.008.058-.007.111-.027.163-.048.054-.022.107-.043.165-.057.038-.01.075-.019.111-.034.039-.017.129-.057.116-.103-.009-.031-.06-.036-.08-.061-.013-.017-.02-.034-.041-.046-.018-.01-.04-.015-.061-.019-.041-.008-.084-.014-.11-.044-.023-.026-.048-.071-.056-.102-.005-.022,0-.055.035-.047.026.006.049.031.066.047.023.022.042.047.069.067.041.03.095.041.148.048.122.017.243.029.364.054.1.021.201.052.273.114.035.03.061.069.11.085.026.008.044.012.056.034.009.017.015.03.034.041.021.012.09.025.087.053-.002.022-.049.008-.066.009-.013,0-.036.004-.039.017-.003.018.03.022.044.025.049.01.053.048.073.082.039.069.12.043.193.036.035-.003.065.005.062.038-.004.035-.034.055-.049.084-.008.015,0,.035,0,.051,0,.021.006.041,0,.063-.013.044-.028.081-.025.128.001.024.012.041.022.063.01.022.011.045.019.067.008.021.021.041.021.063,0,.011-.004.023-.002.034.002.01.012.02.008.031-.006.012-.03.009-.034.021-.004.014.026.015.035.024.013.013.01.038.014.054.006.021.026.037.031.057.005.021-.013.035-.017.054-.004.021.007.04.019.058.016.024.029.059.067.064.026.003.052-.009.076-.014.028-.006.056-.012.084-.017.026-.005.046-.005.068-.019.008-.005.012-.012.022-.014.013-.003.024.005.036.004.046-.004.031-.069.063-.089.024-.016.068-.014.08-.041.016-.036-.033-.065.02-.088.029-.012.028-.04.053-.052.017-.009.037.002.055.003.027.002.052-.008.078-.009.022,0,.055.008.073-.007.015-.012.006-.031.033-.034.018-.002.036.008.055.006.028-.004.046-.018.076-.018.013,0,.037.002.044-.007.002-.003.006-.004.01-.003.017.005.054-.017.063-.021.036-.017.063.011.096.017.035.006.071-.006.102-.017.016-.006.039-.017.062-.024.026-.008.054.003.068.023.009.013.043.027.052.029.028.006.057.003.086.008.038.006.064.028.097.043.039.018.044.03.036.065-.008.032.01.058.015.09.005.032.028.058.042.088.006.013.013.027.021.039.007.01.021.016.027.025.013.019.003.066-.006.085-.006.014-.017.025-.031.034-.01.006-.029.009-.035.019-.013.021.024.053.043.063.021.011.06.02.084.011.022-.008.015-.044.043-.033.013.005.018.02.032.026.014.006.027.004.037.016.013.015.013.047.009.064-.005.023-.035.038-.037.062-.001.013.005.025.004.039,0,.012.003.023.002.035-.001.014-.009.02-.002.033.006.011.018.017.018.03,0,.025-.034.036-.051.053-.023.024-.009.057-.031.08-.011.012-.03.018-.044.027-.015.01-.027.024-.044.033-.002,0-.003.002-.005.003-.019.009-.014.032.007.036.017.003.034.007.046.017.019.016.013.033.01.053-.003.02.007.028.014.046.004.009.002.016.003.025.002.01.009.017.011.027.005.019-.01.016-.025.024-.017.01-.012.014-.004.027.009.015.01.023-.003.038-.014.017-.033.027-.029.05.001.007.014.023.01.029,0,0,0,.001-.002.002-.013.011-.02.025-.014.039.003.008.006.016.007.025.001.009,0,.018.006.026.006.009.018.013.024.022.018.027.002.065.029.09.018.017.036.008.058.014.024.007.022.033.056.029.064-.008.023-.063.034-.094.007-.021.031-.034.041-.054.011-.022.011-.046.012-.069.001-.027.007-.056.003-.083-.003-.023-.018-.043-.03-.063-.014-.022-.028-.043-.035-.067-.007-.024.001-.045,0-.069,0-.036-.041-.062-.023-.1.012-.024.04-.038.062-.056.022-.018.029-.04.044-.062.013-.02.03-.028.054-.013.012.008.025.016.037.025.018.013.029.031.027.051,0,.005.001.011.006.019.01.018.025.034.034.052.009.017.016.035.029.051.01.012.029.024.025.04-.002.008-.011.012-.013.019-.003.01.002.019.006.028.006.015.019.036.011.052-.006.013-.026.017-.024.034.001.015.023.03.036.039.012.009.033.025.051.02.015-.003.019-.022.033-.025.014-.003.029.011.043.014.019.004.039-.001.059.001.022.003.04.014.061.017.024.004.047,0,.069.01.02.008.034.02.057.024.021.003.045,0,.065-.006.045-.012.081-.04.106-.072.014-.018.024-.039.037-.058.009-.013.019-.025.016-.037-.002-.006,0-.013.006-.018.012-.01-.007-.033-.01-.045-.007-.03.023-.041-.005-.069-.013-.013-.021-.028-.033-.041-.011-.013-.033-.019-.041-.033-.013-.022.018-.042-.002-.064-.01-.011-.029-.015-.035-.028-.007-.016.009-.027.019-.039.016-.021,0-.048.016-.066.024-.026.086-.021.117-.01.018.006.029.015.048.012.019-.003.034-.008.055-.007.047.002.079.025.093.062.007.018-.005.029.009.045.004.005.01.01.016.014.01.007.006.021-.007.025h0c-.02.005-.038-.001-.057-.006-.019-.004-.042-.009-.062-.004-.01.002-.019.006-.023.014-.007.013.005.017.006.029.003.023-.023.028.005.049.017.012.044.025.067.028.019.003.034-.004.053-.006.016-.002.03.001.046,0,.083-.002-.02-.082.042-.098.027-.007.054.014.08.016.033.002.058-.019.089-.002.015.008.025.019.043.025.018.007.036.01.052.02.015.009.026.02.044.025.017.005.036.004.053.01.032.011.053.035.086.044.037.011.075.01.113.016.066.011.136.052.206.036.031-.007.057-.029.092-.022.026.005.054.034.084.027.023-.005.013-.026.028-.038.018-.014.051-.006.073-.004.061.006.116-.028.176-.035.029-.003.038-.012.036-.037-.002-.029-.002-.045.028-.064.024-.015.067-.028.069-.056.002-.028-.039-.043-.047-.069-.007-.024.016-.045.012-.069-.006-.03-.023-.046-.014-.078.009-.029-.011-.051-.008-.079.003-.024.026-.043.057-.038.03.005.05.03.082.022.029-.007.04-.017.067.001.039.026.067.054.122.036.065-.02,0-.074-.03-.094-.057-.039-.127-.06-.185-.096-.028-.018-.041-.044-.064-.065-.01-.009-.024-.015-.031-.025-.009-.011-.013-.03-.016-.044-.002-.008-.002-.016,0-.024.007-.021.04-.024.054-.006.003.004.006.007.01.011.023.021.061.029.092.017.026-.011.056-.007.089,0,.028.006.056.015.085.017.015.001.031,0,.046,0,.019,0,.026.019.011.028-.027.014-.06.024-.086.033-.051.017-.029.043-.003.073.012.014.022.03.043.035.023.006.049,0,.072.006.042.009.092.028.11.063.009.017.011.037,0,.054-.011.018-.03.015-.045.027-.032.025.035.067.049.087.016.024.012.065.015.093.001.012.005.03-.004.041-.01.011-.032.011-.047.015-.041.012-.045.05-.041.081.001.008.002.012-.002.02-.007.012-.017.009-.008.022.007.01.041.02.048.033.005.01.017.016.03.017.007,0,.013.002.02.004.016.006.026.017.04.024.029.015.063.005.094.014.03.009.071.057.106.043.02-.008.019-.032.036-.043.017-.011.053-.007.057-.029.005-.028-.034-.03-.003-.059.027-.024.009-.038.002-.068-.006-.023-.026-.047-.015-.07.007-.014.012-.019.007-.035-.003-.009-.011-.019-.005-.029.017-.025.08.004.103.011.061.019.121-.004.182-.01.033-.003.068-.005.101-.005.037,0,.049.017.063.043.027.05.072.094.134.116.07.025.157.026.232.036.033.004.068.013.102.014.013,0,.028,0,.038-.008.01-.007.008-.021.018-.028.021-.013.074.011.098.013.037.003.071-.011.107-.006.037.005.071.017.109.019.038.002.075-.001.112-.008.022-.004.063-.005.071-.026.008-.022-.005-.036.018-.055.019-.016.042-.041.068-.049.033-.011.07.004.104-.008.03-.01.055-.033.072-.055.019-.024.019-.057.039-.08.016-.018.054-.024.048-.052-.004-.024-.038-.042-.049-.065-.023-.049-.02-.117-.091-.14-.021-.007-.061-.003-.071-.023-.009-.017.003-.036-.007-.055-.023-.041-.083-.056-.112-.094,0,0,0,0,0-.001-.02-.026.018-.055.05-.039.006.003.013.006.019.008.033.009.062-.01.095-.005.032.005.055.027.085.036.036.011.076.004.113.013.033.008.059.03.093.034.019.002.038-.004.057-.002.018.002.035.009.053.012.038.005.074,0,.111.011.037.011.071.02.11.026.072.009.133.036.185.077.025.02.053.04.072.064.021.026.021.056.045.08.023.023.025.051.052.072.028.022.057.043.082.068.026.025.048.052.075.077.025.023.046.03.082.035.056.008.123.039.135.088.007.027-.009.049.017.071.013.011.043.025.01.033-.003,0-.006.001-.009.001-.012,0-.018.012-.009.019.012.009.022.018.022.027,0,.003,0,.005-.002.007-.012.017.002.039.026.045.016.004.032.008.042.012.058.024.08.078.119.117.011.011.026.02.041.027.009.004.019.006.028.01.004.001.01.003.013.006.005.005-.002.007-.004.011-.004.007.003.011.007.016.008.008.017.016.027.023.014.011.032.022.052.023.07.006.025-.057.043-.081.017-.023.046-.002.064.008.025.014.048.017.077.022.032.005.063.018.096.018.031,0,.049-.004.07.02.016.018.023.042.049.053.004.002.018.005.026.005.009,0,.017.002.024.007.019.014.037.027.057.039.025.015.054.028.07.05.025.033-.005.043-.035.054-.012.005-.018.016-.013.027.012.024-.028-.002-.049.012-.012.008.021.047.016.055-.003.005-.003.011.002.014.01.008.021.016.029.026.011.013.015.031.031.041.018.012.039.005.059.013.021.008.019.024.032.037.015.016.039.016.06.025.022.009.035.025.052.038.017.013.037.023.06.025.024.002.042-.008.064-.012.038-.006.083.018.106.041.035.035-.035.026-.061.024-.023-.002-.046-.003-.068.002-.021.006-.044.023-.068.02-.024-.004-.027-.022-.037-.036-.011-.016-.031-.025-.048-.037-.035-.025-.07-.06-.115-.074-.024-.008-.051-.005-.075-.012-.022-.006-.039-.021-.06-.028-.025-.009-.048-.001-.074-.004-.022-.002-.042-.012-.06-.023-.038-.023-.069-.042-.115-.054-.049-.013-.082-.031-.114-.064-.025-.026-.056-.071-.101-.072-.046-.002-.077.031-.127.021-.044-.009-.078-.027-.125-.022-.091.01-.127.066-.155.129-.015.033-.043.046-.07.071-.02.019-.067.059-.058.086.001.004.004.008.007.012.008.009,0,.021-.014.021-.011,0-.021.003-.028.012-.012.015-.002.03-.023.043-.02.012-.034.013-.032.037.002.022.021.043.037.059.034.034.083.058.138.06.032.001.062-.006.091-.017.024-.009.046-.021.068-.003.017.013.019.025.047.018.024-.006.038-.019.065-.014.05.009.091.047.116.082.02.029.038.063.086.053.027-.006.047-.015.076-.009.032.006.059.023.09.031.057.014.1-.012.14-.042.031-.024.093-.058.059-.096-.014-.016-.049-.04-.013-.053.025-.009.062-.002.087,0,.051.005.1-.008.15-.007.057.002.082.033.102.073.022.045.061.067.099.102.036.034.039.08.065.118.013.019.03.039.054.051.022.011.044.015.063.031.022.018.04.043.052.066.011.021.009.027-.005.045-.067.083.09.167.167.191.014.004.046.011.044-.01.031-.006.056.023.071.04.02.023.035.045.067.058.041.017.08.022.111.053.029.029.049.063.081.089.034.028.079.042.115.068.034.026.062.058.086.09.049.068.078.138.087.216.001.01.004.036.017.041.006.002.016-.004.023-.004.009,0,.018.003.026.006.027.009.067.023.076-.011.008-.031-.017-.065-.018-.096-.001-.039.026-.073.027-.112.002-.08-.055-.16-.09-.233-.04-.083-.079-.167-.119-.251-.08-.167-.161-.334-.247-.499-.086-.165-.175-.328-.268-.491-.092-.162-.188-.323-.288-.482-.099-.159-.202-.316-.308-.472-.106-.156-.216-.31-.33-.463-.113-.153-.23-.304-.35-.453-.12-.149-.243-.297-.37-.442-.126-.145-.256-.289-.389-.43-.132-.141-.267-.28-.405-.417-.138-.137-.28-.272-.424-.405-.145-.133-.292-.264-.443-.393-.151-.129-.305-.257-.462-.382-.042-.033-.083-.067-.128-.094ZM35.113,13.539s-.003-.004-.005-.007c-.045-.061-.067-.132-.102-.197-.065-.124-.069-.13-.069-.13-.033-.06-.066-.122-.088-.185-.015-.045-.021-.079.041-.039.074.049.153.085.215.145.042.04.069.09.091.14.038.089.082.169.136.253.046.072.096.147.124.225.022.061-.051.022-.081.004-.047-.029-.09-.062-.132-.096-.046-.036-.095-.068-.13-.112ZM35.475,10.091c-.009-.001-.047-.006-.103-.015-.056-.009-.025-.03-.032-.041-.006-.01,0,0-.069-.015-.006-.001-.012-.003-.017-.004-.019-.004-.038.004-.048.017-.009.012-.037,0-.029.02.005.013.018.024.03.032,0,0,0,0,.013.009.007.005,0,.011.002.017.002.01.043.025.041.031-.003.008-.055-.002-.061-.002-.053-.006-.037.003-.065-.008-.039-.014-.076-.033-.115-.048-.005-.002-.012-.013-.016-.017-.006-.004-.017-.011-.018-.018-.001-.007.024-.035.012-.046-.005-.004-.011-.01-.011-.015,0-.005.003-.009.002-.013-.004-.014-.022-.022-.038-.026-.015-.004-.036-.003-.047-.013-.017-.015-.036-.019-.057-.029-.009-.004-.013-.011-.022-.016-.017-.009-.039-.009-.059-.011-.029-.003-.058-.014-.083-.026-.019-.01-.015-.016.008-.015.014,0,.029.003.042.007.029.009.094.027.145.042l.009.003c.009.003.076.018.113.02.037.001.051.017.061.024.011.007.053.009.089.013.036.004.044.019.071.022.027.003.136.012.159.016.024.003.084.008.146,0,.061-.009.012.027.023.053.011.025-.019.016.003.034.042.034-.07.021-.079.02ZM36.877,13.336c-.023.036-.063.027-.101.041-.026.01-.055.026-.085.023-.036-.003-.071-.008-.107-.012-.027-.003-.067-.006-.042-.034.03-.032.02-.062-.004-.084-.017-.017-.047-.037-.076-.035-.015.001-.023.012-.038.014-.014.002-.032-.004-.041-.013-.011-.013.003-.019.002-.032-.002-.015-.025-.022-.025-.038,0-.008.011-.018.007-.025-.004-.007-.017-.009-.024-.012-.027-.015-.056-.023-.069-.048-.007-.014-.026-.025-.031-.038-.004-.009.004-.024-.015-.024-.005-.013-.02-.026-.022-.039-.002-.015.034-.007.044-.006.021.001.042.003.063-.004.011-.003.025-.012.037-.012.017,0,.015.018.021.027.006.009.02.016.022.026.001.004-.002.011,0,.016.004.007.014.007.018.014.005.009-.002.019,0,.029.001.008.02.02.017.028-.002.005.022.018.024.025.002.006-.002.011.002.016.017.025.064.005.088.015.01.004.01.014.018.02.01.007.024.006.034.013.009.007.012.018.021.025.01.008.023.01.037.012.018.003.016.002.025.014.011.014.047.01.048.03.001.024.058.03.08.031.025.001.046-.007.071,0,.027.006.01.024.002.037Z"/>
    </g>
    <path class="cls-20" d="M28.464,15.873c-.015.074.033.168.047.239.018.092.037.212-.045.288-.094.086-.29.13-.28.271.008.114.076.248.003.358-.038.057-.069.098-.05.163.012.042-.008.082-.049.107-.04.025-.067.061-.076.101-.015.061-.018.126-.006.188.007.034.012.046-.02.069-.027.02-.058.037-.083.059-.037.031-.035.061-.035.103,0,.03-.013.056-.037.078-.022.021-.057.038-.045.071.014.038.057.063.066.104.012.054,0,.105-.011.158-.011.053.079.094.104.142.044.085-.087.199.024.268.054.033.159.031.2.076.052.058-.094.134-.173.136-.009,0-.013-.009-.005-.013.018-.01.034-.026.049-.04.012-.011.011-.028-.003-.037-.03-.019-.073-.007-.108.007-.044.017-.083.018-.131.015-.07-.004-.2-.008-.23-.073-.007-.015-.007-.033.002-.041.007-.007.008-.017,0-.024-.029-.029-.05-.065-.076-.095-.006-.006-.017-.016-.025-.021-.02-.012-.036-.012-.046-.033-.019-.038.03-.064.038-.099.011-.048-.027-.145-.09-.163-.018-.005-.019.003-.033.003-.047.001-.075-.032-.106-.058-.028-.023-.059-.045-.074-.076-.018-.036-.02-.078-.026-.116-.027-.151-.108-.291-.209-.419-.099-.125-.146-.263-.208-.401-.047-.105-.123-.21-.27-.227-.145-.016-.291.02-.438-.008-.032-.006-.065-.015-.094-.029-.031-.014-.05-.039-.079-.054-.022-.011-.046-.007-.07-.009-.034-.003-.053-.011-.081-.027-.069-.038-.144-.075-.223-.097-.057-.016-.123-.027-.168-.063-.032-.026-.014-.07-.027-.106-.016-.045-.061-.087-.089-.127-.054-.079-.054-.14-.042-.225.017-.116-.048-.246-.166-.315-.042-.025-.101-.045-.147-.017-.038.023-.056.067-.079.1-.077.109-.235.122-.376.108-.079-.008-.153-.028-.229-.046-.02-.005-.041-.012-.062-.015-.034-.004-.063.008-.095.016-.054.015-.11.028-.164.039-.058.012-.09.051-.153.055-.073.004-.146-.004-.219-.002-.064.001-.11.035-.153.074-.047.043-.063.094-.132.12-.071.027-.149.041-.222.064-.137.044-.263.104-.416.085-.121-.015-.224-.087-.34-.09-.082-.002-.161.013-.242.014-.071,0-.142-.011-.211-.021-.125-.019-.247-.053-.375-.031-.055.01-.125.027-.156.07.037-.017.134.029.163.049.032.022.043.058.073.081.034.027.077.024.121.02.105-.009.202-.028.308-.017.059.006.059.033.039.075-.018.037-.057.093-.104.108-.036.012-.098.016-.135.01-.037-.006-.066-.028-.102-.036-.092-.02-.193.067-.276.025-.032-.016-.052-.043-.085-.059-.043-.021-.028-.047-.048-.08-.023-.038-.079-.032-.122-.03-.058.003-.105-.009-.16-.024-.058-.015-.117-.029-.179-.023-.061.006-.117.028-.173.046-.055.019-.113.038-.174.039-.053,0-.1-.017-.149-.032-.093-.027-.185.003-.275-.023-.114-.033-.228-.07-.329-.125-.091-.05-.134-.097-.172-.179-.03-.064-.06-.118-.149-.129-.076-.009-.159-.036-.092-.106.014-.015.051-.036.052-.056.002-.03-.061-.038-.088-.041-.229-.026-.355.215-.582.206-.061-.003-.112-.026-.174-.02-.067.007-.132.021-.196.036-.067.015-.135.031-.204.038-.071.006-.142.003-.213.003-.079,0-.15.01-.226.027-.064.014-.147.028-.199.063-.023.015-.016.02-.02.041-.003.018-.014.034-.029.047-.053.048-.131.078-.2.107-.058.024-.124.044-.175.077-.044.028-.069.069-.096.108-.033.048-.075.089-.117.131-.08.079-.148.175-.253.235-.044.025-.099.038-.139.067-.043.031-.058.075-.058.12,0,.041.013.081.015.123.003.064-.022.096-.069.165-.014.021-.03.041-.047.06-.035.038-.039.033-.074.042-.084.02-.058.143.006.173.026.012.045.004.068.028.023.024.032.056.034.085.006.094-.013.189-.001.283.012.093.064.177.102.264.04.09.067.185.037.279-.03.096-.098.18-.134.275-.025.066-.026.136-.087.19-.078.068-.097-.027-.102-.077-.009-.094.006-.187.013-.281.008-.105-.015-.209-.012-.314,0-.044.002-.09.006-.133-.063-.055-.129-.009-.153.048-.022.05-.057.095-.09.141-.038.053-.078.111-.142.146-.029.016-.047.022-.081.027-.039.005-.084.019-.102.051-.032.057-.047.141-.136.164-.02.005-.042.004-.061-.004-.017-.007-.035-.029-.056-.026-.018.003-.039.038-.049.049-.101.11-.18-.029-.209-.108-.05-.136.035-.282.025-.42-.002-.03-.008-.053-.029-.078-.01-.011-.032-.024-.038-.037-.01-.019.003-.039.01-.058.033-.089.067-.178.102-.267.139-.349.293-.694.464-1.034.169-.338.354-.67.554-.996.199-.325.412-.643.639-.955.113-.155.23-.309.35-.461.014-.017.027-.04.046-.053.021-.013.049-.018.069-.034.008-.006.012-.013.019-.018.036-.03.079-.056.118-.084.202-.144.392-.297.608-.428.1-.061.207-.123.325-.157.038-.011.081-.02.121-.013.094.015-.005.039-.024.07-.011.018-.006.014.018.012.025-.003.054-.016.076-.026.076-.036.125-.104.181-.157.062-.059.12-.121.202-.162.026-.013.05-.027.079-.034.043-.011.089-.012.132-.022.045-.01.044-.027.025-.056-.022-.034-.02-.031.005-.061,0,0-.003,0-.003,0,.029-.026.065-.049.097-.072.077-.054.156-.122.244-.164.12-.058.261-.097.389-.142.062-.022.094-.078.14-.118.072-.062.153-.12.244-.163.036-.017.073-.028.11-.041.031-.011.052-.031.077-.05.031-.023.111-.077.069-.116-.031-.029-.107-.027-.149-.027-.07-.001-.14.002-.21.004-.039,0-.078.002-.117.002-.058,0-.054-.022-.031-.059.032-.051.06-.121.017-.174-.018-.023-.047-.037-.078-.045-.029-.008-.105,0-.121-.02-.017-.022.031-.061.045-.078.031-.036.06-.073.096-.106.063-.058.142-.102.224-.141.085-.041.172-.083.262-.116.029-.01.093-.036.076.01-.022.058-.098.095-.131.148-.023.038-.026.094-.033.136-.003.019-.008.04,0,.059.021.048.106.038.158.043.03.003.06.006.089.009.049.008.118.012.164.033-.046.029.041.038.061.039.028.002.074.005.1-.007.018-.009.031-.028.049-.039.032-.02.068-.037.105-.05.026-.009.066-.02.092-.005.029.016.005.033.013.056.009.023.054.04.082.031.029-.01.04-.044.051-.065.014-.029.111-.161.076-.185-.027-.018-.124.008-.159.012-.041.005-.083.01-.125.014-.062.006-.12-.012-.181-.02-.049-.006-.076-.024-.12-.04-.026-.009-.064-.013-.086-.029-.043-.033.016-.12.044-.154.029-.034.08-.066.119-.093,0,0,.001,0,.002-.001.014-.01.036-.006.044.008.002.003.004.006.008.01.011.011.037.033.052.038.037.013.102-.004.14-.007.044-.004.11-.02.154-.009.023.006.04.023.062.029.047.013.071-.004.028-.033-.029-.02-.06-.012-.046-.048.005-.013.03-.036.02-.047-.012-.014-.069,0-.069-.027,0-.016.05-.038.064-.047.028-.017.032-.021.038-.048.005-.026.011-.054.036-.072.045-.031.128-.042.183-.052.029-.005.125-.031.136.004.012.038-.073.109-.099.137-.016.017-.036.032-.021.053.015.022.06.031.088.034.035.005.086.006.115-.012.024-.014.042-.043.06-.062.017-.018.072-.058.073-.082.001-.038-.069-.033,0-.05.027-.006.069-.023.086-.042.011-.012.01-.022.02-.036.03-.039.105-.052.155-.066.032-.009.065-.024.1-.022.032.002.054.009.088.006.029-.003.063-.013.093-.011.029.002.061.025.091.02.043-.007.036-.056.042-.083.006-.032.045-.04.079-.055.068-.03.135-.069.217-.059.091.011-.009.078-.039.101-.017.013-.041.026-.05.043.049.02.15-.032.197-.047.067-.022.135-.043.204-.06.017-.004.038-.011.056-.008,0,0,0,0,0,.001-.003.002-.005.005-.007.008.041-.013.09-.009.132-.001.013.003.041.006.05.016.01.011.002.01.003.021.011.08.085.077.168.07.108-.009.218-.011.325-.028.026-.004.051-.009.076-.016.019-.005.045-.022.064-.023.039-.004.048.037.06.061.016.031.01.04-.016.067-.022.023-.045.045-.067.068-.02.019-.06.044-.074.066-.014.022.015.068-.029.076-.024.004-.058-.009-.083-.011-.023-.002-.046,0-.069,0-.035,0-.077.009-.101-.014-.012-.012-.01-.03-.032-.032-.018-.001-.053.023-.064.032-.06.052.054.089.104.092.029.002.064-.008.09.002.016.007.031.024.044.033.02.015.056.033.069.053.019.029-.02.043-.045.059-.048.029-.101.064-.158.082-.039.012-.08.004-.121.005-.014,0-.029,0-.039.007.043.038.136-.018.189.028.06.052-.044.067-.089.079-.125.034-.256.047-.387.063-.099.012-.196.003-.293-.016-.056-.01-.098-.028-.152-.011-.033.01-.061.024-.092.036-.03.012-.061.002-.074.023-.014.022-.008.045-.031.065-.024.021-.06.029-.093.036-.028.006-.134.032-.128-.005.004-.024.05-.056.07-.072.024-.018.049-.03.076-.043.053-.024.102-.054.144-.09.047-.04.051-.054.057-.085.006-.031.02-.048.047-.071.028-.022.059-.042.084-.066.026-.026.041-.058.059-.088.02-.034.027-.054-.026-.062-.05-.008-.104-.012-.155-.012-.067,0-.113.04-.175.058-.054.016-.114.045-.169.027-.069-.023-.135-.04-.207-.017-.033.01-.065.023-.094.039-.026.014-.031.029-.05.046-.038.035-.092.049-.145.046-.052-.003-.096.03-.142.048-.022.008-.061.01-.066.035-.002.01,0,.011.013.01.038-.003.076-.025.113-.033.031-.006.068-.006.08.023.014.036.016.076.023.113.004.018.007.036.015.053.006.014.026.031.027.044.006.048-.088.102-.123.129-.056.042-.112.083-.171.122-.071.047-.174.087-.217.157-.018.03-.046.062-.052.096-.004.025.004.049-.002.074-.007.027-.019.054-.028.08-.019.052-.093.083-.142.118-.043.031-.091.063-.126.101-.027.029-.032.079-.05.114-.058.112-.126.221-.196.328-.013.019-.057.062-.036.084.012.013.042.01.06.01.069.003.141.011.21.005.071-.005.136-.017.207-.004.052.01.087.009.138-.007.07-.021.128-.058.195-.084.07-.027.149-.038.225-.05.137-.022.271-.038.403-.078.111-.034.203-.021.294.041.045.03.091.058.141.081.032.015.057.028.077-.004.026-.04.02-.081-.004-.118-.01-.015-.022-.031-.022-.048,0-.021.025-.041.002-.059-.024-.019-.087-.002-.067-.047.014-.031.065-.061.092-.083.063-.053.184-.165.077-.232-.076-.048-.188-.008-.269-.043-.045-.019-.021-.042.003-.069.037-.042.069-.069.043-.123-.022-.046-.05-.066-.097-.097-.042-.028-.064-.064-.018-.098.047-.036.103-.064.158-.092.069-.035.145-.076.222-.097.093-.026.207-.041.303-.029.08.01.146.003.226-.005.042-.004.09-.004.11.031.02.034,0,.089.046.112.032.016.081.003.113-.006.052-.014.102-.03.15-.05.085-.034.106-.025.121-.086.009-.035.018-.119.055-.144.022-.015.056-.003.083,0,.05.006.098.015.145.03.059.018.12.033.163.071.042.037.082.076.125.113.045.038.142.015.204.014.072,0,.145,0,.217.008.036.004.069.013.104.017.035.003.07.007.105.011.02.002.067,0,.083.012.037.027-.053.139-.072.168-.016.024-.051.046-.023.068.025.02.083.024.115.029.052.009.106.014.159.019.084.007.194-.013.22.073.007.025.01.04-.013.05-.024.01-.058.012-.084.022-.036.015-.073.024-.113.03-.066.009-.138.003-.201.02-.047.013-.089.039-.138.046-.13.019-.012-.16-.001-.202.038-.143-.212.029-.253.057-.047.031-.092.07-.148.09-.083.03-.166.059-.244.095-.044.02-.088.042-.132.061-.018.008-.175.053-.098.085.039.016.111-.03.148-.038.028-.006.129-.019.136.011.005.025-.037.051-.034.08.003.029.028.045.06.055.066.021.137.008.204-.003.056-.009.154-.08.208-.033.07.061-.121.091-.164.104-.089.027-.199.052-.272.104-.014.01-.027.02-.041.03-.016.012-.036.019-.057.023-.019.004-.052.019-.057.022-.045.022-.094.047-.128.08-.051.049-.074.117-.102.175-.006.013-.009.031.001.042.011.012.011.029-.004.038-.023.014-.051.027-.07.037-.056.03-.099.052-.124.105-.036.077-.034.165-.041.246-.004.048-.006.093-.014.14-.011.062.043.077.07.125.018.034-.035.071-.057.097-.02.023-.04.046-.059.069-.063.075-.157.187-.145.285.006.046.044.087.071.126.02.027.036.061.061.086.02.02.274.157.186.184-.051.016-.105-.006-.152-.018-.03-.008-.062-.004-.09-.016-.029-.013-.042-.034-.06-.056-.042-.05-.106-.072-.177-.05-.043.013-.048.059-.088.068-.034.007-.073.001-.108.012-.027.008-.055.021-.078.034-.037.02-.055.055-.095.073-.031.014-.044.019-.055.053-.016.05-.032.092-.09.122-.102.052-.194.074-.262.162-.026.034-.036.074-.062.109-.027.037-.086.089-.092.133-.006.046.052.076.092.097.066.035.119.089.158.144.018.026.031.051.037.08.004.016.001.024.017.037.035.027.131.034.175.029.032-.004.051-.028.081-.01.027.016.03.026.071.023.056-.004.112-.042.158-.067.057-.031.115-.057.146-.108.016-.026.047-.056.033-.084-.018-.034-.05-.051-.041-.092.009-.042.041-.085.075-.116.026-.023.091-.068.134-.045.033.018.014.074.021.101.013.051.043.098.066.146.011.022.023.079.052.08.045.002.128-.066.157-.086.038-.02.088-.058.132-.066.067-.012.138.066.167.104.025.033.045.069.059.106.012.032.012.051.055.054.072.005.149.009.221.005.046-.002.067-.011.087-.044.025-.042.056-.081.093-.116.037-.037.039-.045.087-.045.035,0,.072-.004.101-.022.055-.034.035-.105.057-.153.026-.056.031-.147.109-.164.086-.019.111.055.187.073.023.005.045-.002.032-.019-.019-.023-.051-.045-.04-.076.015-.045.076-.078.13-.081.121-.007.242-.032.353-.071.096-.034.181-.101.288-.105.06-.002.122.024.179.039.068.018.129.033.2.038.129.009.244-.041.362-.076.05-.015.115-.008.168-.007.064,0,.13.041.18.072.033.021.106.037.124.069.022.038-.074.09.031.08.047-.005.093-.024.14-.025.057-.002.107-.024.163-.03.106-.011.222.056.323.027.046-.013.092-.028.138-.042.044-.013.096-.04.139-.025.059.021.104.061.172.056.053-.004.115-.016.168-.008.072.011.139.06.179.108.023.027.021.039.001.065-.02.027-.041.053-.063.079-.082.098-.142.198-.181.313-.002.005-.003.01-.004.015Z"/>
    <g>
      <path class="cls-30" d="M25.957,8.783s0-.003,0,0t0,0Z"/>
      <path class="cls-44" d="M29.484,8.438c-.025-.018-.044-.007-.027-.024.017-.017-.03-.005-.074-.002-.044.003-.06-.009-.078-.006-.018.003-.074.029-.151.027-.077-.002-.145.001-.158.009,0,0-.014.008-.014.008-.061.009-.118.02-.125.024-.113.058-.188.03-.287.046-.058.009-.266.06-.285.113-.006.015-.044.026-.06.01-.016-.016-.027-.008-.019-.024.008-.016.051-.014.059-.02.009-.006-.007-.006.033-.02.04-.015.05-.026.073-.035.024-.009-.005-.023,0-.027.004-.005-.032-.025-.058-.022-.026.003-.046.007-.067,0-.022-.008-.011-.024-.047-.019l-.025.004c-.008.001-.018-.001-.021-.008-.003-.005-.002-.011.004-.016.003-.002,0-.006-.004-.005l-.045.008c-.063.012-.092.013-.094.008l-.002-.005c.004-.007.009-.014.017-.019.007-.004.009-.007.012-.013.005-.01.018-.018-.005-.023-.023-.005-.034-.019-.046-.008-.012.011-.056.016-.098.023-.041.006-.012.004-.051.002-.025-.001-.034-.002-.037-.002-.001,0-.003,0-.004,0-.025.002-.046.003-.067-.004-.006-.002-.009-.008-.006-.013.003-.004.007-.007.013-.009.003-.001.002-.005-.001-.006-.093-.013-.228.035-.319.05-.116.019-.235.022-.35.046-.078.016-.156.045-.238.045-.039,0-.096.007-.154.021-.057.014-.06.014-.098.027-.092.031-.224.088-.324.097-.007,0-.013.006-.011.012.004.019.013.033.036.043.034.014-.088.033-.098.034,0,0,0,0-.001,0-.048.011-.098.021-.147.029-.059.009-.075.007-.079-.006v-.002s-.006-.002-.013-.003l-.021-.006c-.054-.016-.069-.018-.085-.011-.016.007-.09-.009-.118.007-.028.016-.064.048-.116.07-.052.022.033.017-.056.045-.088.028-.043.033-.031.033.012,0,.08.001.103-.008.023-.009.076-.025.08-.017,0,0,0,0,0,0,.006.01.002.022-.011.025-.042.01-.101.024-.09.034.017.014.038.027.022.038-.016.011-.121.051-.125.045-.003-.006.008-.006-.033-.017-.077-.022-.18.004-.259.01-.032.002-.17-.01-.186.011l.006-.008c-.036.004-.075.011-.098.017-.008.002-.016.007-.021.013l-.011.014c-.017.022-.159.039-.098.044.061.005.046.004.064.014.018.01.064-.008.068,0,.005.007.081.01.021.027-.06.018-.095.02-.111.014,0,0-.016-.007-.016-.007-.001-.002-.02-.002-.042,0-.004,0-.008.001-.012.002-.085.03-.166.091-.264.085-.057-.004-.065-.038-.144-.024-.13.023-.236.101-.354.147-.153.06-.303.123-.452.189-.012.005-.013.019-.003.026h0c.006.004-.02.016-.066.029-.046.013-.069.003-.104.026-.075.049-.174.064-.248.116-.003.002-.004.004-.005.007-.004.049-.183.103-.18.109.004.008.046,0,.034.018-.011.018-.003.014.028.018.031.004.067-.006.074-.008.008-.002-.017.004.046-.027.063-.031.018-.024.06-.041.043-.017.09-.037.088-.023-.003.015-.014.029-.032.039-.018.01-.049.044-.062.049-.013.006-.061.015-.065.025-.004.009-.012.017-.057.024-.042.006-.15.053-.189.08-.009.006-.025.016-.035.022-.021.012-.042.023-.063.034-.052.028-.105.055-.158.081-.032.016-.064.032-.098.044-.013.005-.022.014-.033.021-.008.005-.018.009-.023.016-.004.006-.011.018-.005.024.008.008.032-.001.048.006.016.007.024-.003.059-.009.034-.005.023.002.067-.006.043-.008.039-.016.082-.018.043-.002.022.01.076-.006.054-.016.048-.006.06,0,.011.006.09-.018.045.006-.046.025-.057.01-.133.034-.058.019-.112.048-.172.063-.006.002-.01.006-.009.011,0,.005.002.01.003.015.001.006.009.01.016.008.038-.012.088-.038.113-.018.004.003.01.004.014.002.025-.01.051-.02.078-.025.014-.003.024.01.016.02h0s.008.004.007.006c-.003.002-.005.003-.008.005-.011.008-.004.022.011.022.048,0,.117.01.143.009.172-.007.268-.111.416-.166.153-.057.348-.085.516-.106.049-.006.147-.026.193-.004.014.007-.041.072.025.078.056-.006.127-.04.192-.031.019.003-.01.034.01.032.039.013.089.014.095.047,0,.004.004.007.009.008.059.013.12-.009.173.024,0,0-.05.031-.055.033-.015.008-.042.019-.041.037,0,.006.019.011.024.014.022.013.022.032.013.05-.004.008.006.016.016.013.02-.006.041-.01.062-.015.04-.009.082-.017.119-.033.077-.034.133-.073.183.015.014.025-.176.027-.183.028-.043.007-.081.045-.112.068-.012.009-.03.025-.007.031.021.005.055-.004.075-.009.031-.008.061-.021.094-.025.043-.005.19-.043.246-.033.01.002.013.013.004.018-.034.02-.092.048-.033.063.007.002.011.008.009.013-.005.012-.013.023-.023.034-.017.02-.036.038-.056.055-.02.017-.04.033-.062.048-.008.005-.016.012-.025.016-.005.002-.01.004-.015.005-.006,0-.011-.002-.017,0-.006.001-.005.005,0,.007.01.006.025.009.038.011.07.009.003.061-.043.092-.008.005-.005.015.005.018.022.005.045.019.057.03.004.004.004.01,0,.013-.019.015-.074.012-.07.03.021.023.135,0,.173.017.086.039.076.065.172.055.01,0,.017.007.013.015-.011.018-.029.036-.048.05-.006.005-.005.013.002.017.037.021.025.06.079.068.034.005.057-.037.088-.027.047.015.04.066.08.086.054.027.138,0,.199.012.06.012.104.034.166.029.05-.004.09-.025.146-.023.11.003.253.055.338-.029.032-.032.015-.055.03-.088.006-.013.036-.035.045-.052.038-.067.046-.155.11-.212.057-.05.009-.138.052-.186.034-.037.084-.019.123-.039.031-.016.032-.044.062-.064.063-.042.158-.03.231-.054.088-.029.172-.054.236-.112.078-.071.155-.162.249-.219.095-.058.221-.054.33-.083.153-.041.3-.102.438-.169.054-.026.237-.074.114-.115-.056-.019-.173.012-.23.025-.033.007-.101.044-.134.026-.067-.036.128-.115.181-.143.004-.002.01-.002.014,0,.026.016.152.053.163.055.073.01.252.028.306-.033.007-.008.018-.025.028-.044.009-.018-.003-.039-.027-.044-.043-.008.001-.05-.053-.057-.133-.017-.266.018-.399,0-.01-.001-.013-.024-.028-.026-.025-.003-.053.015-.075.01-.02-.005-.043-.013-.06-.025-.007-.005-.006-.014.002-.017.137-.055.285-.105.43-.075.012.003.014.016.002.02-.038.012-.086.015-.128.019-.007,0-.01.008-.004.012.009.006.019.013.03.017.014.005.027.002.042.002.02,0,.04-.002.059-.002.019,0,.039-.002.058-.003.023-.001.048-.002.071-.007.021-.005.033-.007.039-.008.007-.002.014-.005.018-.009.005-.006.01-.013.011-.021,0,0,0,0-.001-.003,0-.002-.025-.008-.053-.004-.027.004-.063.014-.07.01-.003-.001-.006-.003-.008-.004-.006-.004-.003-.012.005-.014.057-.012.177.009.214-.032.004-.004,0-.01-.006-.009-.015.001-.004-.009-.009-.012-.002-.001-.003,0-.002-.003.002-.002.007-.004.01-.006.011-.005.022-.01.032-.017.005-.003.01-.008.013-.013.004-.008-.005-.011-.014-.01-.005,0-.01,0-.015,0-.007,0-.017-.002-.022-.007-.007-.008-.019-.005-.029-.006-.014,0-.027-.002-.041-.003-.007,0-.027,0-.025-.009.001-.005.006-.009.011-.013.004-.003.011-.008.017-.007.006,0,.011.008.016.011.01.006.023.01.036.01.022,0,.069-.011.078-.013.009-.002.016-.003.057-.008.04-.005.041-.005.052-.007.009-.001.018-.004.024-.01.005-.004.01-.01.015-.015.005-.006,0-.013-.009-.012-.058.005-.133.002-.191-.004-.01,0-.014-.011-.007-.017.019-.017.049-.027.065-.046.013-.016-.006-.027-.022-.034-.007-.003-.017-.004-.022-.008-.009-.008.002-.015-.001-.023-.004-.01-.025-.012-.036-.014-.019-.004-.061.01-.058-.004.001-.005.058-.025.067-.026.029-.006.077-.001.109-.005.073-.009.107-.024.111-.025.005-.002-.013-.001.033-.009.046-.007.042-.012.049-.022.007-.01.019-.022.009-.03-.008-.006-.021-.008-.03-.012-.005-.002-.009-.003-.012-.007-.005-.007-.002-.01-.014-.012-.026-.003-.049.014-.074.011-.012-.001-.032-.001-.042-.005-.013-.005,0-.009.009-.013.009-.003.028-.005.034-.013.006-.007-.005-.012-.006-.019-.002-.012.023-.024-.002-.028-.008-.001-.016,0-.023,0-.015.002-.029.008-.044.007-.008,0-.073.002-.075-.004-.002-.005.007-.007.001-.012-.003-.003-.011-.003-.015-.004-.007-.001-.061-.005-.047-.02.015-.015.032-.023.052-.032.015-.006.041-.015.049-.028.036-.064.25-.047.238-.145,0-.004.003-.01.008-.012.088-.034.192-.037.276-.078.005-.002.007-.007.006-.012-.016-.062.113-.052.163-.066.025-.007.044-.013.064-.015.02-.002.06-.01.035-.028Z"/>
    </g>
  </g>
  <g>
    <polygon class="cls-23" points="42.383 37.206 38.341 39.044 38.341 38.17 38.341 34.989 38.341 34.008 42.383 32.169 42.383 33.183 47.794 30.504 47.794 25.385 32.917 32.169 32.917 45.82 47.794 39.044 47.794 35.912 47.794 35.912 47.794 35.912 42.383 36.365 42.383 37.206"/>
    <polygon class="cls-25" points="31.637 32.169 31.637 45.82 26.163 43.322 24.186 39.976 22.235 41.533 16.85 39.085 16.748 39.044 16.748 25.385 22.172 27.858 22.172 37.206 24.186 35.607 26.214 39.044 26.214 29.697 30.928 31.848 31.029 31.897 31.13 31.939 31.637 32.169"/>
    <polygon class="cls-24" points="42.977 26.278 47.704 24.126 42.977 21.975 37.199 19.337 32.46 17.186 27.734 19.337 32.46 21.488 36.122 23.153 21.956 21.967 17.242 24.118 32.473 31.059 37.199 28.907 28.798 25.091 42.977 26.278"/>
  </g>
  <g id="Generative_Object" data-name="Generative Object" class="cls-8">
    <g>
      <path class="cls-11" d="M53.467,43.913c-4.638,1.945-9.276,3.891-13.914,5.836-.407-.569-2.003-2.734-1.999-3.263,6.038-2.629,12.077-5.258,18.115-7.887-.246.869-.571,1.833-1.003,2.859-.386.916-.797,1.735-1.199,2.455Z"/>
      <path class="cls-42" d="M39.225,50.935c-.093-.101-.174-.242-.262-.351.29-.13.656-.117.492-.445-.254-.506-.913-1.186-1.213-1.726-.005-.01-.014-.181-.033-.216-.015-.028-.084,0-.098-.027-.071-.139-.265-.57-.328-.755-.003-.009-.075-.205,0-.189.649,1.165,1.433,2.271,2.229,3.37.049.068.416.386.311.445-.06.034-.249-.03-.262-.027-.012.003-.126.147-.164.162-.424.17-.407.047-.672-.243Z"/>
      <g>
        <path class="cls-12" d="M53.467,43.913c-.378.676-.826,1.403-1.356,2.157-.473.673-.947,1.276-1.404,1.812-3.188,1.315-6.377,2.629-9.565,3.944l-.147-.067c-.453-.683-.962-1.339-1.442-2.009,4.638-1.945,9.276-3.891,13.914-5.836Z"/>
        <g>
          <path class="cls-2" d="M41.716,50.531c-.009-.177-.053-.403.246-.485.602-.165.867.624.262.701-.382.049-.324-.104-.508-.216Z"/>
          <path class="cls-37" d="M42.06,50.072c.478-.046.579.545.197.62-.592.116-.638-.578-.197-.62Z"/>
        </g>
        <g>
          <path class="cls-1" d="M41.716,50.531c.005.102.079.175.066.283-.025.2-.325.307-.541.283-.665-.074-.345-1.062.475-.566Z"/>
          <path class="cls-51" d="M41.306,50.423c.475-.026.545.563.098.62-.569.074-.597-.593-.098-.62Z"/>
        </g>
      </g>
    </g>
    <g>
      <g>
        <path class="cls-40" d="M30.671,47.16c-.418.146-1.686.397-1.803.768.074.238-.186.637,0,.795-.009.022-.023.032-.033.054-.066.155-.579,1.036-.557,1.092.009.023.14.066.164.067l.033.081c-.037-.003-.103-.059-.164-.013.172.243.216.294.557.256.965.214,1.395-.739,2.016-1.106.359-.212.904-.34,1.327-.431.693.361,1.541,1.05,2.245,1.483.695.428,1.468.811,2.147,1.24-.111.326.286.503,0,.849-.15.182-.394.16-.623.202-.426-.28-2.344-1.383-2.769-1.537-.066-.024-.121-.056-.115.027.009.119,1.501,1.088,1.721,1.213.354.202.651.393,1.065.485.065.014.062.026.066.027.032.22.075.406-.066.607-.229.327-.6.153-.95.175-.42-.322-2.062-1.226-2.589-1.456-.035-.015-.154-.045-.197-.04.638.527,1.439,1.104,2.212,1.496.108.055.311.154.442.135.022.009.043.019.066.027-.005.605-.41.826-1.114.701-.031-.015-.058-.034-.098-.027-.06-.185-1.556-.965-1.835-1.106-.03-.015-.346-.238-.328-.148.52.338,1.048.874,1.59,1.173.106.058.252.138.377.081.201.168.08.254.197.431-.115.521-.911.348-1.311.189-.196-.078-1.423-.865-1.442-.984-.01-.063.209-.308.098-.593-.147-.377-.79-.397-.819-.431-.012-.013.085-.206.066-.324-.059-.346-.83-.657-1.131-.364-.033-.438-.43-.781-.983-.701-.063.009-.247.138-.262.135-.047-.009-.215-.503-.623-.566-.522-.081-.595.165-.869.404-.047.041-.186.125-.197.135-.521-.186-.833-.71-1.229-.971-.283-.186-.741-.286-1.032-.485.021-.03.028-.074.033-.081.649-.914,1.298-1.827,1.77-2.818.333.056.566.133.918.121-.022.045-.535.216-.246.243.462-.101.943-.131,1.409-.216.994-.181,1.924-.567,2.982-.431l-.115.135Z"/>
        <path class="cls-56" d="M35.751,47.511c.445.049.757.041,1.131-.189.034.01.239.47.279.539.207.718,1.224,2.136.885,2.845-.484,1.012-2.295.191-2.851-.351-.001-.115.716-.463.852-.607.158-.166.264-.367.213-.593-.674.523-1.561.155-2.261-.135-.654-.271-1.038-.675-1.786-.647-.122.005-.225.071-.344.054-.022-.003-.202-.132-.262-.135-.143-.006-.951.284-1.082.27-.023-.003-.246-.164-.295-.189.333.379-.81,1.638-1.147,1.699-.189.034-.419-.037-.606-.054l-.033-.081c.517.034,1.354-1.008.393-1.159.009-.022.024-.032.033-.054.077-.181.21-.794.279-.863.118-.119,1.549-.499,1.835-.593.783-.257.968-.602,1.901-.377.778.188,2.098.591,2.884.836.086.027.5.282.508.175l-.524-.391Z"/>
        <path class="cls-43" d="M38.963,50.584c.088.109.17.249.262.351l-2.065.89c-.044-.082-.452-.311-.557-.377-.678-.43-1.452-.813-2.147-1.24-.704-.433-1.552-1.122-2.245-1.483-.239-.124-.399-.21-.705-.189-.068.005-1.006.241-1.049.27-.076.05-.253.464-.344.58-.29.368-.679.814-1.245.876-.341.038-.385-.013-.557-.256.061-.046.127.01.164.013.187.017.417.088.606.054.337-.061,1.48-1.32,1.147-1.699.049.025.272.186.295.189.131.014.938-.276,1.082-.27.06.003.24.132.262.135.119.017.222-.049.344-.054.718.712,1.853,1.613,3.064,1.564.274-.011.515-.134.77-.189-.136.143-.853.491-.852.607.556.541,2.367,1.363,2.851.351.339-.709-.678-2.127-.885-2.845.531.936,1.104,1.863,1.803,2.723Z"/>
        <path class="cls-39" d="M32.342,54.953c-.429.381-1.419.389-1.901.081.929.142,1.329-.612.41-.944-.208.216-.382.47-.606.674-.351.318-.55.551-1.114.377.288-.036.479-.121.688-.283.111-.086,1.001-1.037,1.016-1.106.078-.356-.385-.724-.836-.58-.261.084-1.155.998-1.229,1.24-.395.305-1.019.317-1.213-.162.273.242.562.274.901.108.099-.048,1.504-1.305,1.557-1.389.234-.37-.328-.796-.77-.688-.436.107-1.339,1.218-1.721,1.456-.348.217-.759.181-.983-.135.293.202.634.163.934,0,.122-.066,1.354-1.123,1.393-1.2.179-.352-.333-.786-.77-.715-.156.026-1.541,1.152-1.622,1.294-.043.011-.128.05-.164.054.161-.222,1.271-1.03,1.311-1.2.067-.281-.397-.627-.737-.58-.162.023-.33.249-.508.27.273-.239.346-.486.869-.404.407.063.576.558.623.566.015.003.199-.126.262-.135.553-.08.95.263.983.701.301-.293,1.072.018,1.131.364.02.117-.077.31-.066.324.029.034.673.054.819.431.111.285-.108.531-.098.593.019.119,1.246.907,1.442.984Z"/>
        <path class="cls-46" d="M26.181,51.663c-.072.066-.427.393-.459.431-.237-.18-.433-.388-.705-.539-.42-.234-1.293-.412-1.59-.593-.024-.015-.071-.036-.066-.067.205-.216.389-.452.557-.688.291.199.75.299,1.032.485.396.261.708.785,1.229.971Z"/>
        <path class="cls-32" d="M35.751,47.511l.524.391c-.008.106-.422-.149-.508-.175-.786-.245-2.106-.648-2.884-.836-.933-.225-1.117.121-1.901.377-.286.094-1.717.474-1.835.593-.068.068-.202.682-.279.863-.186-.158.074-.557,0-.795.116-.371,1.385-.623,1.803-.768.222-.078.454-.197.655-.27.168-.061.523-.244.639-.27.812-.178,2.755.777,3.785.89Z"/>
        <path class="cls-54" d="M37.16,51.825c.231.435-.289.972-.852.93.252.687-.362,1.145-1.18.93-.048-.104-.106-.119-.197-.189.35-.023.722.152.95-.175.141-.201.098-.387.066-.607.114.02.216.076.328.04.013-.014-.269-.239-.295-.256.228-.042.472-.02.623-.202.286-.346-.111-.524,0-.849.105.066.514.296.557.377Z"/>
        <path class="cls-33" d="M31.326,46.89c-.201.073-.433.192-.655.27l.115-.135c-1.058-.135-1.988.25-2.982.431-.466.085-.947.115-1.409.216-.289-.027.223-.197.246-.243.234-.008.684-.093.934-.135,1.251-.207,2.434-.769,3.753-.404Z"/>
        <path class="cls-10" d="M30.441,55.034c-.121-.078-.231-.088-.197-.27.225-.204.398-.458.606-.674.919.331.519,1.086-.41.944Z"/>
        <path class="cls-19" d="M34.931,53.497c.091.07.149.085.197.189.003.007-.003.018,0,.027-.087.005-.185-.025-.262-.054-.023-.008-.044-.018-.066-.027-.419-.176-1.191-.686-1.59-.944-.299-.193-.616-.413-.869-.647.527.23,2.169,1.134,2.589,1.456Z"/>
        <path class="cls-14" d="M35.128,53.712c.15.464-.314.899-.901.836-.144-.016-.347-.128-.475-.189.704.124,1.109-.096,1.114-.701.077.028.175.059.262.054Z"/>
        <path class="cls-3" d="M33.653,54.332c.013.039.011.382,0,.431-.117-.177.004-.264-.197-.431-.047-.039-.222-.094-.279-.135-.452-.325-.922-.634-1.36-.971.28.14,1.776.921,1.835,1.106Z"/>
        <path class="cls-38" d="M32.211,48.724c-.423.091-.968.22-1.327.431-.621.366-1.051,1.32-2.016,1.106.567-.063.956-.508,1.245-.876.091-.115.268-.529.344-.58.043-.028.981-.265,1.049-.27.306-.021.465.064.705.189Z"/>
        <path class="cls-22" d="M28.442,49.937c-.024-.002-.155-.044-.164-.067-.022-.056.491-.937.557-1.092.961.152.124,1.193-.393,1.159Z"/>
        <path class="cls-55" d="M35.98,52.499c.026.017.308.242.295.256-.111.035-.214-.02-.328-.04-.004,0,0-.013-.066-.027l-2.786-1.699c-.006-.083.049-.051.115-.027.425.154,2.344,1.257,2.769,1.537Z"/>
        <path class="cls-49" d="M35.882,52.688c-.414-.092-.711-.283-1.065-.485-.219-.126-1.711-1.094-1.721-1.213l2.786,1.699Z"/>
        <path class="cls-35" d="M32.342,52.041c.252.234.569.454.869.647.398.257,1.17.768,1.59.944-.132.019-.335-.08-.442-.135-.773-.392-1.574-.969-2.212-1.496.043-.005.161.025.197.04Z"/>
        <path class="cls-29" d="M31.818,53.227c.438.337.908.646,1.36.971.057.041.232.096.279.135-.125.057-.271-.023-.377-.081-.542-.299-1.07-.835-1.59-1.173-.018-.09.297.133.328.148Z"/>
        <path class="cls-21" d="M36.046,49.749c-.256.055-.496.178-.77.189-1.212.049-2.346-.852-3.064-1.564.748-.028,1.132.377,1.786.647.7.29,1.588.658,2.261.135.051.226-.055.427-.213.593Z"/>
        <g>
          <path class="cls-45" d="M27.557,54.252c-.089-.219-.059-.284-.033-.512.382-.238,1.285-1.349,1.721-1.456.442-.109,1.004.317.77.688-.053.084-1.458,1.34-1.557,1.389-.339.167-.628.134-.901-.108Z"/>
          <path class="cls-15" d="M29.278,52.391c.517-.088.806.608.197.863-.403.168-.809-.102-.705-.445.017-.056.449-.408.508-.418Z"/>
        </g>
        <g>
          <path class="cls-31" d="M26.541,53.604c-.13-.183-.179-.421-.066-.62.081-.142,1.466-1.269,1.622-1.294.437-.072.95.362.77.715-.039.077-1.271,1.134-1.393,1.2-.3.163-.641.202-.934,0Z"/>
          <path class="cls-16" d="M28.131,51.798c.165-.025.43.15.508.256.303.41-.632.951-.95.458-.167-.257.169-.673.442-.715Z"/>
        </g>
        <g>
          <path class="cls-13" d="M29.13,55.141c-.378-.116-.452-.426-.361-.728.074-.243.968-1.157,1.229-1.24.45-.144.914.223.836.58-.015.068-.905,1.019-1.016,1.106-.21.162-.4.247-.688.283Z"/>
          <path class="cls-50" d="M30.097,53.227c.427-.059.723.496.197.728-.329.145-.697-.044-.639-.337.014-.073.361-.38.442-.391Z"/>
        </g>
        <g>
          <path class="cls-4" d="M26.312,53.038c-.758.083-.972-.485-.59-.944.032-.039.387-.366.459-.431.011-.01.15-.094.197-.135.178-.021.346-.247.508-.27.341-.047.804.298.737.58-.04.17-1.15.978-1.311,1.2Z"/>
          <path class="cls-9" d="M26.918,51.366c.104-.012.345.101.41.175.354.407-.594.868-.819.431-.11-.212.208-.583.41-.607Z"/>
        </g>
      </g>
      <g>
        <path class="cls-26" d="M25.066,46.513c-.147.817-1.428,2.382-1.966,3.155-4.238-1.828-8.476-3.657-12.713-5.485-.366-.636-.736-1.343-1.088-2.121-.498-1.099-.871-2.136-1.153-3.072,5.64,2.508,11.281,5.016,16.921,7.523Z"/>
        <path class="cls-47" d="M23.952,50.126c-.005.007-.011.051-.033.081-.168.235-.352.472-.557.688-.005.032.041.053.066.067-.258.007-.237.333-.475.324-.249-.122-.398-.348-.688-.27.835-1.241,1.75-2.479,2.556-3.748.125.026-.268.741-.311.822-.303.567-.738,1.184-1.147,1.699l.59.337Z"/>
        <g>
          <path class="cls-5" d="M23.1,49.668c-.165.237-1.38,1.846-1.344,1.955.006.016.296-.026-.082.175-2.892-1.271-5.784-2.542-8.677-3.813-.487-.63-.982-1.309-1.477-2.038-.409-.603-.786-1.192-1.134-1.765,4.238,1.828,8.476,3.657,12.713,5.485Z"/>
          <g>
            <path class="cls-18" d="M20.494,49.937c.607-.054.679.65.229.728-.7.122-.742-.682-.229-.728Z"/>
            <path class="cls-48" d="M20.494,49.991c.519-.064.599.553.197.62-.576.096-.61-.569-.197-.62Z"/>
          </g>
          <g>
            <path class="cls-27" d="M21.346,50.315c.702-.059.729.714.164.755-.653.047-.76-.705-.164-.755Z"/>
            <path class="cls-41" d="M21.346,50.369c.601-.063.661.606.164.647-.55.046-.655-.595-.164-.647Z"/>
            <path class="cls-36" d="M21.314,50.531c.175.001-.053.14-.066.135-.064-.029.028-.115.066-.135Z"/>
            <polygon class="cls-17" points="21.346 50.692 21.395 50.706 21.346 50.746 21.33 50.733 21.346 50.692"/>
          </g>
        </g>
      </g>
    </g>
  </g>
</svg>